<svg width="38" height="38" viewBox="0 0 38 38" fill="none" xmlns="http://www.w3.org/2000/svg">
<circle cx="19" cy="19" r="19" fill="#433878"/>
<path d="M26.3321 18.0826H28.1654C28.1654 13.3801 24.6152 9.8335 19.9062 9.8335V11.6668C23.6297 11.6668 26.3321 14.3646 26.3321 18.0826Z" fill="#FDFDFD"/>
<path d="M19.9169 15.3336C21.8447 15.3336 22.6669 16.1559 22.6669 18.0836H24.5003C24.5003 15.1274 22.8732 13.5003 19.9169 13.5003V15.3336ZM23.0538 20.3231C22.8776 20.163 22.6462 20.0776 22.4082 20.0849C22.1703 20.0923 21.9446 20.1918 21.7787 20.3625L19.5851 22.6184C19.0571 22.5175 17.9956 22.1866 16.9029 21.0967C15.8103 20.0031 15.4793 18.9389 15.3813 18.4146L17.6353 16.2201C17.8062 16.0543 17.9059 15.8285 17.9132 15.5905C17.9206 15.3525 17.8351 15.121 17.6748 14.945L14.2877 11.2206C14.1273 11.044 13.9044 10.9368 13.6663 10.922C13.4282 10.9071 13.1937 10.9856 13.0126 11.1408L11.0234 12.8467C10.8649 13.0058 10.7704 13.2175 10.7576 13.4416C10.7438 13.6708 10.4817 19.0993 14.691 23.3105C18.3632 26.9817 22.963 27.2503 24.2298 27.2503C24.415 27.2503 24.5287 27.2448 24.5589 27.243C24.7831 27.2304 24.9946 27.1354 25.1529 26.9762L26.8579 24.9861C27.0133 24.8051 27.0919 24.5707 27.0772 24.3326C27.0625 24.0945 26.9555 23.8716 26.7791 23.7111L23.0538 20.3231Z" fill="#FDFDFD"/>
</svg>
