<svg width="80" height="80" viewBox="0 0 80 80" fill="none" xmlns="http://www.w3.org/2000/svg">
<rect width="80" height="80" rx="40" fill="#433878"/>
<g clip-path="url(#clip0_752_14511)">
<path d="M40.0015 28.4678C49.3688 28.4678 56.9625 26.2024 56.9625 23.4077C56.9625 20.6131 49.3688 18.3477 40.0015 18.3477C30.6342 18.3477 23.0405 20.6131 23.0405 23.4077C23.0405 26.2024 30.6342 28.4678 40.0015 28.4678Z" stroke="#FDFDFD" stroke-width="3.30144" stroke-miterlimit="10"/>
<path d="M56.9625 34.4693C56.9625 37.2639 49.3688 39.5294 40.0015 39.5294C30.6342 39.5294 23.0405 37.2639 23.0405 34.4693M37.2361 32.616V35.3814M42.7669 32.616V35.3814M56.9625 45.5308C56.9625 48.3254 49.3688 50.5909 40.0015 50.5909C30.6342 50.5909 23.0405 48.3254 23.0405 45.5308M37.2361 43.6774V46.4428M42.7669 43.6774V46.4428" stroke="#FDFDFD" stroke-width="3.30144" stroke-miterlimit="10"/>
<path d="M23.0405 23.4077V56.5921C23.0405 59.3868 30.6342 61.6523 40.0015 61.6523C49.3688 61.6523 56.9625 59.3868 56.9625 56.5922V23.4077M37.2361 54.7389V57.5042M42.7669 54.7389V57.5042" stroke="#FDFDFD" stroke-width="3.30144" stroke-miterlimit="10"/>
</g>
<defs>
<clipPath id="clip0_752_14511">
<rect width="46" height="46" fill="white" transform="translate(17 17)"/>
</clipPath>
</defs>
</svg>
