<svg width="80" height="80" viewBox="0 0 80 80" fill="none" xmlns="http://www.w3.org/2000/svg">
<rect width="80" height="80" rx="40" fill="#433878"/>
<g clip-path="url(#clip0_752_14800)">
<path d="M58.9521 41.3504C57.8342 41.3504 56.756 41.8196 55.9937 42.6378L54.9096 43.8017V35.6382C56.4999 36.2011 58.3149 35.7288 59.4131 34.3533C60.8091 32.6098 60.529 30.067 58.7819 28.6716L54.9096 25.5738V18.3531C54.9096 17.6089 54.3063 17.0056 53.5621 17.0056H48.1722C47.428 17.0056 46.8247 17.6089 46.8247 18.3531V19.1059L45.3065 17.8914C43.8202 16.703 41.744 16.703 40.2572 17.8916L26.7831 28.6709C25.0343 30.0675 24.756 32.6109 26.15 34.352C27.2756 35.7613 29.1143 36.1868 30.6546 35.6409V41.2003C29.6908 41.4856 28.7791 41.9242 27.9546 42.4992C27.8507 40.3621 26.0796 38.6553 23.9172 38.6553H18.3475C17.6033 38.6553 17 39.2586 17 40.0028V61.6526C17 62.3968 17.6033 63.0001 18.3475 63.0001H23.9172C25.6813 63.0001 27.1842 61.8638 27.7347 60.2849C27.808 60.2973 27.8829 60.3052 27.9597 60.3052H48.1722C51.0831 60.3052 53.9041 58.8611 55.7182 56.4423L62.1875 47.8168C62.7156 47.1128 62.9947 46.2745 62.9947 45.3928C62.9946 43.1638 61.1812 41.3504 58.9521 41.3504ZM25.2646 58.9577C25.2646 59.7007 24.6602 60.3052 23.9172 60.3052H19.695V41.3504H23.9173C24.6603 41.3504 25.2647 41.9548 25.2647 42.6978L25.2646 58.9577ZM49.5197 19.7005H52.2147V23.4178L49.5197 21.2618V19.7005ZM30.1482 32.8803C29.5692 33.3436 28.7216 33.2533 28.2548 32.6689C27.7917 32.0904 27.8803 31.2438 28.4659 30.776L41.9405 19.9963C42.4361 19.6 43.1283 19.6002 43.6235 19.996L57.0993 30.7768C57.6785 31.2393 57.7771 32.0846 57.3083 32.6704C56.8452 33.2504 55.9978 33.3461 55.4158 32.88L43.6238 23.4475C43.3778 23.2506 43.0799 23.1522 42.7821 23.1522C42.4843 23.1522 42.1864 23.2506 41.9404 23.4475L30.1482 32.8803ZM45.4771 35.9603H40.0871C39.343 35.9603 38.7397 36.5636 38.7397 37.3078V42.4956C37.126 41.3718 35.2385 40.8077 33.3497 40.8077V33.7703L42.7822 26.2252L52.2147 33.7703V46.6947L52.0333 46.8893C51.5215 45.2436 49.9842 44.0452 48.1722 44.0452H46.8247V37.3078C46.8246 36.5636 46.2213 35.9603 45.4771 35.9603ZM44.1297 38.6553V44.0453H41.4346V38.6553H44.1297ZM60.0314 46.1998L53.5621 54.8253C52.2542 56.5691 50.2393 57.6101 48.1721 57.6101H27.9597V46.002L28.8987 45.1756C31.4362 42.9427 35.2633 42.9427 37.8006 45.1756C38.2772 45.595 38.4821 45.7832 38.6789 45.9319C38.7648 45.9967 39.6111 46.7403 40.0871 46.7403H48.1721C48.9151 46.7403 49.5196 47.3447 49.5196 48.0878C49.5196 48.8308 48.9151 49.4352 48.1721 49.4352H37.3921C36.6479 49.4352 36.0446 50.0385 36.0446 50.7827C36.0446 51.5269 36.6479 52.1302 37.3921 52.1302H49.0753C50.1932 52.1302 51.2713 51.6611 52.0333 50.8431L57.9657 44.4746C58.2237 44.1976 58.5739 44.0452 58.9521 44.0452C59.6951 44.0452 60.2996 44.6497 60.2996 45.3927C60.3007 45.6838 60.2065 45.9672 60.0314 46.1998Z" fill="#FDFDFD"/>
</g>
<defs>
<clipPath id="clip0_752_14800">
<rect width="46" height="46" fill="white" transform="translate(17 17)"/>
</clipPath>
</defs>
</svg>
