<svg width="80" height="80" viewBox="0 0 80 80" fill="none" xmlns="http://www.w3.org/2000/svg">
<rect width="80" height="80" rx="40" fill="#433878"/>
<g clip-path="url(#clip0_752_14898)">
<path d="M36.6348 36.3164C35.8905 36.3164 35.2871 35.713 35.2871 34.9688V34.2332C35.2871 33.4749 34.9522 32.7682 34.4049 32.2433C32.8753 30.7764 31.918 28.7211 31.918 26.4336C31.918 21.9678 35.5381 18.3477 40.0039 18.3477C44.4697 18.3477 48.0898 21.9678 48.0898 26.4336C48.0898 28.7211 47.1326 30.7764 45.6029 32.2433C45.0556 32.7682 44.7207 33.4749 44.7207 34.2332V34.9688C44.7207 35.713 44.1173 36.3164 43.373 36.3164M36.6348 36.3164H43.373M36.6348 36.3164V40.3594C36.6348 41.1036 37.2382 41.707 37.9824 41.707H42.0254C42.7697 41.707 43.373 41.1036 43.373 40.3594V36.3164" stroke="#FDFDFD" stroke-width="2.69531" stroke-miterlimit="10" stroke-linecap="round" stroke-linejoin="round"/>
<path d="M52.6719 61.6523C57.6338 61.6523 61.6562 57.6299 61.6562 52.668C61.6562 47.706 57.6338 43.6836 52.6719 43.6836C47.7099 43.6836 43.6875 47.706 43.6875 52.668C43.6875 57.6299 47.7099 61.6523 52.6719 61.6523Z" stroke="#FDFDFD" stroke-width="2.69531" stroke-miterlimit="10" stroke-linecap="round" stroke-linejoin="round"/>
<path d="M55.5469 50.6016L50.8473 55.3011L49.4375 53.8912" stroke="#FDFDFD" stroke-width="2.69531" stroke-miterlimit="10" stroke-linecap="round" stroke-linejoin="round"/>
<path d="M27.4194 54.9141C28.908 54.9141 30.1147 53.7073 30.1147 52.2188C30.1147 50.7302 28.908 49.5234 27.4194 49.5234C25.9309 49.5234 24.7241 50.7302 24.7241 52.2188C24.7241 53.7073 25.9309 54.9141 27.4194 54.9141Z" stroke="#FDFDFD" stroke-width="2.69531" stroke-miterlimit="10" stroke-linecap="round" stroke-linejoin="round"/>
<path d="M35.5057 52.2188C35.5057 51.5926 35.4345 50.9832 35.2998 50.398L36.4879 49.0581L34.691 45.9459L32.9338 46.3054C32.0466 45.4777 30.9731 44.8472 29.7828 44.484L29.2166 42.7852H25.6229L25.0566 44.484C23.8664 44.8472 22.7929 45.4777 21.9057 46.3053L20.1484 45.9458L18.3516 49.058L19.5397 50.3979C19.4025 50.9951 19.3334 51.6059 19.3337 52.2187C19.3337 52.8448 19.405 53.4543 19.5397 54.0395L18.3516 55.3794L20.1484 58.4916L21.9056 58.1321C22.7928 58.9598 23.8663 59.5902 25.0565 59.9534L25.6229 61.6523H29.2166L29.7829 59.9535C30.9732 59.5903 32.0466 58.9598 32.9339 58.1321L34.6911 58.4916L36.488 55.3794L35.2999 54.0395C35.437 53.4423 35.506 52.8315 35.5057 52.2188Z" stroke="#FDFDFD" stroke-width="2.69531" stroke-miterlimit="10" stroke-linecap="round" stroke-linejoin="round"/>
<path d="M44.7313 56.8736C43.2273 57.294 41.642 57.5195 40.0039 57.5195C38.4749 57.5195 36.9919 57.3231 35.5781 56.9551M23.2905 45.2667C22.7672 43.6042 22.4844 41.8353 22.4844 40C22.4844 33.1285 26.4411 27.182 32.1999 24.3118M56.8775 44.7274C57.2979 43.2234 57.5234 41.6381 57.5234 40C57.5234 33.1285 53.5667 27.182 47.8079 24.3118" stroke="#FDFDFD" stroke-width="2.69531" stroke-miterlimit="10" stroke-linecap="round" stroke-linejoin="round"/>
</g>
<defs>
<clipPath id="clip0_752_14898">
<rect width="46" height="46" fill="white" transform="translate(17 17)"/>
</clipPath>
</defs>
</svg>
