<svg width="80" height="80" viewBox="0 0 80 80" fill="none" xmlns="http://www.w3.org/2000/svg">
<rect width="80" height="80" rx="40" fill="#433878"/>
<path d="M39.9955 42.3846C42.1674 42.3846 43.9281 40.624 43.9281 38.4521C43.9281 36.2802 42.1674 34.5195 39.9955 34.5195C37.8237 34.5195 36.063 36.2802 36.063 38.4521C36.063 40.624 37.8237 42.3846 39.9955 42.3846Z" stroke="#FDFDFD" stroke-width="2.69531" stroke-miterlimit="10"/>
<path d="M46.2725 50.8711V48.661C46.2725 45.1947 43.4625 42.3846 39.9961 42.3846C36.5298 42.3846 33.7197 45.1947 33.7197 48.661V50.8711M39.9961 29.1289V23.7383" stroke="#FDFDFD" stroke-width="2.69531" stroke-miterlimit="10"/>
<path d="M46.2726 29.1289H33.7198L27.4434 40L33.7198 50.8711H46.2726L52.5491 40L46.2726 29.1289Z" stroke="#FDFDFD" stroke-width="2.69531" stroke-miterlimit="10"/>
<path d="M39.9961 23.7383C41.4847 23.7383 42.6914 22.5315 42.6914 21.043C42.6914 19.5544 41.4847 18.3477 39.9961 18.3477C38.5075 18.3477 37.3008 19.5544 37.3008 21.043C37.3008 22.5315 38.5075 23.7383 39.9961 23.7383Z" stroke="#FDFDFD" stroke-width="2.69531" stroke-miterlimit="10"/>
<path d="M39.9961 50.8711V56.2617" stroke="#FDFDFD" stroke-width="2.69531" stroke-miterlimit="10"/>
<path d="M39.9961 61.6523C41.4847 61.6523 42.6914 60.4456 42.6914 58.957C42.6914 57.4685 41.4847 56.2617 39.9961 56.2617C38.5075 56.2617 37.3008 57.4685 37.3008 58.957C37.3008 60.4456 38.5075 61.6523 39.9961 61.6523Z" stroke="#FDFDFD" stroke-width="2.69531" stroke-miterlimit="10"/>
<path d="M30.5806 34.5645L25.9121 31.8691" stroke="#FDFDFD" stroke-width="2.69531" stroke-miterlimit="10"/>
<path d="M23.5786 33.2168C25.0672 33.2168 26.2739 32.0101 26.2739 30.5215C26.2739 29.0329 25.0672 27.8262 23.5786 27.8262C22.09 27.8262 20.8833 29.0329 20.8833 30.5215C20.8833 32.0101 22.09 33.2168 23.5786 33.2168Z" stroke="#FDFDFD" stroke-width="2.69531" stroke-miterlimit="10"/>
<path d="M49.4111 45.4355L54.0796 48.1309" stroke="#FDFDFD" stroke-width="2.69531" stroke-miterlimit="10"/>
<path d="M56.4126 52.1738C57.9012 52.1738 59.1079 50.9671 59.1079 49.4785C59.1079 47.9899 57.9012 46.7832 56.4126 46.7832C54.924 46.7832 53.7173 47.9899 53.7173 49.4785C53.7173 50.9671 54.924 52.1738 56.4126 52.1738Z" stroke="#FDFDFD" stroke-width="2.69531" stroke-miterlimit="10"/>
<path d="M30.5806 45.4355L25.9121 48.1309" stroke="#FDFDFD" stroke-width="2.69531" stroke-miterlimit="10"/>
<path d="M23.5786 52.1738C25.0672 52.1738 26.2739 50.9671 26.2739 49.4785C26.2739 47.9899 25.0672 46.7832 23.5786 46.7832C22.09 46.7832 20.8833 47.9899 20.8833 49.4785C20.8833 50.9671 22.09 52.1738 23.5786 52.1738Z" stroke="#FDFDFD" stroke-width="2.69531" stroke-miterlimit="10"/>
<path d="M49.4111 34.5645L54.0796 31.8691" stroke="#FDFDFD" stroke-width="2.69531" stroke-miterlimit="10"/>
<path d="M56.4126 33.2168C57.9012 33.2168 59.1079 32.0101 59.1079 30.5215C59.1079 29.0329 57.9012 27.8262 56.4126 27.8262C54.924 27.8262 53.7173 29.0329 53.7173 30.5215C53.7173 32.0101 54.924 33.2168 56.4126 33.2168Z" stroke="#FDFDFD" stroke-width="2.69531" stroke-miterlimit="10"/>
</svg>
