<svg width="80" height="80" viewBox="0 0 80 80" fill="none" xmlns="http://www.w3.org/2000/svg">
<rect width="80" height="80" rx="40" fill="#433878"/>
<path d="M48.6665 36.7656C48.6665 35.7732 47.862 34.9688 46.8696 34.9688H28.3618C27.3694 34.9688 26.5649 35.7732 26.5649 36.7656C26.5649 37.758 27.3694 38.5625 28.3618 38.5625H46.8696C47.862 38.5625 48.6665 37.758 48.6665 36.7656ZM28.3618 42.1562C27.3694 42.1562 26.5649 42.9607 26.5649 43.9531C26.5649 44.9455 27.3694 45.75 28.3618 45.75H39.6023C40.5947 45.75 41.3991 44.9455 41.3991 43.9531C41.3991 42.9607 40.5947 42.1562 39.6023 42.1562H28.3618Z" fill="#FFFBFB"/>
<path d="M32.5843 59.4062H26.5747C24.5931 59.4062 22.981 57.7941 22.981 55.8125V24.1875C22.981 22.2059 24.5931 20.5938 26.5747 20.5938H48.6663C50.6479 20.5938 52.26 22.2059 52.26 24.1875V35.2383C52.26 36.2307 53.0645 37.0352 54.0569 37.0352C55.0493 37.0352 55.8538 36.2307 55.8538 35.2383V24.1875C55.8538 20.2243 52.6295 17 48.6663 17H26.5747C22.6115 17 19.3872 20.2243 19.3872 24.1875V55.8125C19.3872 59.7757 22.6115 63 26.5747 63H32.5843C33.5767 63 34.3811 62.1955 34.3811 61.2031C34.3811 60.2107 33.5767 59.4062 32.5843 59.4062Z" fill="#FFFBFB"/>
<path d="M59.0367 43.0162C56.9349 40.9144 53.5151 40.9143 51.4146 43.0148L41.5495 52.8581C41.3401 53.0671 41.1854 53.3247 41.0994 53.6078L38.951 60.6808C38.8575 60.9886 38.8483 61.316 38.9245 61.6286C39.0007 61.9411 39.1594 62.2276 39.3841 62.4579C39.6088 62.6881 39.8912 62.8539 40.2019 62.9378C40.5125 63.0216 40.8399 63.0206 41.15 62.9347L48.4026 60.9257C48.7011 60.843 48.9732 60.6846 49.1924 60.4658L59.0368 50.6398C61.1386 48.538 61.1386 45.1182 59.0367 43.0162ZM46.988 57.5885L43.3392 58.5993L44.407 55.0838L51.0634 48.4421L53.6051 50.9838L46.988 57.5885ZM56.4969 48.0976L56.1488 48.445L53.6075 45.9038L53.9545 45.5576C54.6551 44.857 55.7951 44.857 56.4957 45.5576C57.1963 46.2582 57.1963 47.3981 56.4969 48.0976ZM46.8696 27.7812H28.3618C27.3694 27.7812 26.5649 28.5857 26.5649 29.5781C26.5649 30.5705 27.3694 31.375 28.3618 31.375H46.8696C47.862 31.375 48.6665 30.5705 48.6665 29.5781C48.6665 28.5857 47.862 27.7812 46.8696 27.7812Z" fill="#FFFBFB"/>
</svg>
