<svg width="80" height="80" viewBox="0 0 80 80" fill="none" xmlns="http://www.w3.org/2000/svg">
<rect width="80" height="80" rx="40" fill="#433878"/>
<g clip-path="url(#clip0_752_14738)">
<path d="M35.1914 63C25.1607 63 17 54.8408 17 44.8118C17 34.7828 25.1607 26.6236 35.1914 26.6236C38.5067 26.6236 41.7541 27.5281 44.5828 29.2392L43.0558 31.7627C40.6876 30.3302 37.9682 29.573 35.1914 29.573C26.7873 29.573 19.95 36.4091 19.95 44.8118C19.95 53.2144 26.7873 60.0506 35.1914 60.0506C43.5956 60.0506 50.4329 53.2144 50.4329 44.8118C50.4329 42.0356 49.6756 39.3166 48.2428 36.949L50.7669 35.4223C52.4783 38.2504 53.3829 41.4973 53.3829 44.8118C53.3829 54.8408 45.2222 63 35.1914 63Z" fill="#FDFDFD"/>
<path d="M35.1917 54.9128C29.6209 54.9128 25.0889 50.3815 25.0889 44.8118C25.0889 39.242 29.6209 34.7108 35.1917 34.7108C36.2664 34.7108 37.3249 34.8789 38.3379 35.2107L37.4199 38.0136C36.7006 37.7786 35.9484 37.6593 35.1917 37.6602C31.2476 37.6602 28.0389 40.8684 28.0389 44.8117C28.0389 48.755 31.2477 51.9632 35.1917 51.9632C39.1357 51.9632 42.3445 48.755 42.3445 44.8117C42.3455 44.0228 42.2157 43.2391 41.9604 42.4926L44.7512 41.5367C45.1116 42.5888 45.2945 43.6907 45.2945 44.8117C45.2945 50.3814 40.7624 54.9128 35.1917 54.9128Z" fill="#FDFDFD"/>
<path d="M61.7648 22.6635L57.9243 22.0826L57.3434 18.2429C57.1662 17.072 55.6818 16.5808 54.8421 17.4207L49.3184 22.9433C49.1556 23.1062 49.0331 23.3049 48.9608 23.5236C48.8886 23.7422 48.8686 23.9748 48.9024 24.2026L49.5206 28.3673L35.9516 41.9622C35.7036 41.8959 35.4479 41.8623 35.1912 41.8623C33.5646 41.8623 32.2412 43.1854 32.2412 44.8117C32.2412 46.438 33.5646 47.7611 35.1912 47.7611C36.8178 47.7611 38.1412 46.438 38.1412 44.8117C38.1412 44.5467 38.1055 44.2901 38.0397 44.0456L51.6038 30.4557L55.796 31.1016C56.2557 31.1726 56.7346 31.0158 57.0636 30.6869L62.5873 25.1643C63.1421 24.731 63.3634 22.863 61.7648 22.6635ZM55.5063 28.0728L52.3878 27.5923L51.9294 24.5039L54.8634 21.5705L55.1702 23.5986C55.2174 23.91 55.363 24.1982 55.5857 24.4209C55.8084 24.6435 56.0966 24.7891 56.408 24.8361L58.4365 25.143L55.5063 28.0728Z" fill="#FDFDFD"/>
</g>
<defs>
<clipPath id="clip0_752_14738">
<rect width="46" height="46" fill="white" transform="translate(17 17)"/>
</clipPath>
</defs>
</svg>
