<svg width="80" height="80" viewBox="0 0 80 80" fill="none" xmlns="http://www.w3.org/2000/svg">
<rect width="80" height="80" rx="40" fill="#433878"/>
<g clip-path="url(#clip0_752_14837)">
<path d="M59.9333 17H20.0667C19.2533 17 18.4733 17.3231 17.8982 17.8982C17.3231 18.4733 17 19.2533 17 20.0667V59.9333C17 60.7467 17.3231 61.5267 17.8982 62.1018C18.4733 62.6769 19.2533 63 20.0667 63H59.9333C60.7467 63 61.5267 62.6769 62.1018 62.1018C62.6769 61.5267 63 60.7467 63 59.9333V20.0667C63 19.2533 62.6769 18.4733 62.1018 17.8982C61.5267 17.3231 60.7467 17 59.9333 17ZM20.0667 18.5333H59.9333C60.34 18.5333 60.73 18.6949 61.0176 18.9824C61.3051 19.27 61.4667 19.66 61.4667 20.0667V23.1333H18.5333V20.0667C18.5333 19.66 18.6949 19.27 18.9824 18.9824C19.27 18.6949 19.66 18.5333 20.0667 18.5333ZM59.9333 61.4667H20.0667C19.66 61.4667 19.27 61.3051 18.9824 61.0176C18.6949 60.73 18.5333 60.34 18.5333 59.9333V24.6667H61.4667V59.9333C61.4667 60.34 61.3051 60.73 61.0176 61.0176C60.73 61.3051 60.34 61.4667 59.9333 61.4667Z" fill="#FDFDFD"/>
<path d="M30.0336 26.2C28.0623 26.2 26.1354 26.7845 24.4964 27.8797C22.8574 28.9748 21.5799 30.5314 20.8256 32.3526C20.0712 34.1738 19.8738 36.1777 20.2584 38.1111C20.643 40.0444 21.5922 41.8203 22.9861 43.2142C24.3799 44.608 26.1558 45.5573 28.0892 45.9418C30.0225 46.3264 32.0265 46.129 33.8476 45.3747C35.6688 44.6203 37.2254 43.3429 38.3205 41.7038C39.4157 40.0648 40.0002 38.1379 40.0002 36.1667C39.9972 33.5243 38.9462 30.991 37.0777 29.1225C35.2092 27.2541 32.676 26.203 30.0336 26.2ZM38.4278 35.4H33.7902C33.6385 34.664 33.2745 33.9885 32.7431 33.4572C32.2117 32.9258 31.5363 32.5617 30.8002 32.41V27.7717C32.762 27.9532 34.5985 28.8152 35.9916 30.2084C37.3847 31.6016 38.2465 33.4382 38.4278 35.4ZM30.0336 38.4667C29.5787 38.4667 29.134 38.3318 28.7558 38.079C28.3775 37.8263 28.0827 37.4671 27.9086 37.0468C27.7346 36.6266 27.689 36.1641 27.7778 35.718C27.8665 35.2718 28.0856 34.862 28.4072 34.5403C28.7289 34.2187 29.1387 33.9996 29.5849 33.9109C30.031 33.8221 30.4935 33.8677 30.9137 34.0417C31.334 34.2158 31.6932 34.5106 31.9459 34.8889C32.1987 35.2671 32.3336 35.7118 32.3336 36.1667C32.3336 36.7767 32.0912 37.3617 31.6599 37.793C31.2286 38.2243 30.6436 38.4667 30.0336 38.4667ZM29.2669 27.7724V32.41C28.6523 32.5345 28.0776 32.8082 27.5936 33.207C27.1096 33.6058 26.731 34.1175 26.4912 34.6969C26.2514 35.2764 26.1576 35.9059 26.2183 36.5301C26.2789 37.1543 26.492 37.754 26.8389 38.2765L23.5568 41.5594C22.5717 40.3793 21.9284 38.9521 21.6965 37.4325C21.4646 35.9129 21.653 34.3588 22.2412 32.9386C22.8294 31.5184 23.795 30.2862 25.0335 29.3755C26.2719 28.4649 27.7359 27.9105 29.2669 27.7724ZM24.6408 42.6458L27.9229 39.3637C28.3428 39.6428 28.8137 39.836 29.3086 39.9321C29.8035 40.0283 30.3125 40.0256 30.8064 39.9241L32.6349 44.1875C31.2808 44.6293 29.8366 44.7194 28.4382 44.4492C27.0397 44.1791 25.733 43.5577 24.6408 42.6435V42.6458ZM34.0448 43.5857L32.214 39.31C33.0255 38.75 33.59 37.8988 33.7902 36.9333H38.4286C38.3014 38.3169 37.8347 39.6477 37.07 40.8077C36.3053 41.9677 35.2662 42.9212 34.0448 43.5834V43.5857ZM57.6336 30.8H56.1002V27.7333C56.1002 27.3267 55.9387 26.9367 55.6511 26.6491C55.3636 26.3615 54.9736 26.2 54.5669 26.2H53.0336C52.6269 26.2 52.2369 26.3615 51.9493 26.6491C51.6618 26.9367 51.5002 27.3267 51.5002 27.7333V33.1H49.9669V30.8C49.9669 30.3933 49.8054 30.0033 49.5178 29.7158C49.2302 29.4282 48.8402 29.2667 48.4336 29.2667H46.9002C46.4936 29.2667 46.1036 29.4282 45.816 29.7158C45.5284 30.0033 45.3669 30.3933 45.3669 30.8V36.9333H43.8336C43.4269 36.9333 43.0369 37.0949 42.7493 37.3824C42.4618 37.67 42.3002 38.06 42.3002 38.4667V44.6C42.3002 45.0067 42.4618 45.3967 42.7493 45.6842C43.0369 45.9718 43.4269 46.1333 43.8336 46.1333H45.3669C45.6369 46.1318 45.9015 46.0582 46.1336 45.9202C46.3656 46.0582 46.6303 46.1318 46.9002 46.1333H48.4336C48.7035 46.1318 48.9682 46.0582 49.2002 45.9202C49.4323 46.0582 49.6969 46.1318 49.9669 46.1333H51.5002C51.7702 46.1318 52.0349 46.0582 52.2669 45.9202C52.4989 46.0582 52.7636 46.1318 53.0336 46.1333H54.5669C54.8369 46.1318 55.1015 46.0582 55.3336 45.9202C55.5656 46.0582 55.8303 46.1318 56.1002 46.1333H57.6336C58.0402 46.1333 58.4302 45.9718 58.7178 45.6842C59.0054 45.3967 59.1669 45.0067 59.1669 44.6V32.3333C59.1669 31.9267 59.0054 31.5367 58.7178 31.2491C58.4302 30.9615 58.0402 30.8 57.6336 30.8ZM43.8336 44.6V38.4667H45.3669V44.6H43.8336ZM46.9002 44.6V30.8H48.4336V44.6H46.9002ZM49.9669 44.6V34.6333H51.5002V44.6H49.9669ZM53.0336 44.6V27.7333H54.5669V44.6H53.0336ZM56.1002 44.6V32.3333H57.6336V44.6H56.1002ZM20.8336 21.6H21.6002C21.8036 21.6 21.9986 21.5192 22.1423 21.3754C22.2861 21.2317 22.3669 21.0367 22.3669 20.8333C22.3669 20.63 22.2861 20.435 22.1423 20.2912C21.9986 20.1474 21.8036 20.0667 21.6002 20.0667H20.8336C20.6302 20.0667 20.4352 20.1474 20.2915 20.2912C20.1477 20.435 20.0669 20.63 20.0669 20.8333C20.0669 21.0367 20.1477 21.2317 20.2915 21.3754C20.4352 21.5192 20.6302 21.6 20.8336 21.6ZM24.6669 21.6H25.4336C25.6369 21.6 25.8319 21.5192 25.9757 21.3754C26.1195 21.2317 26.2002 21.0367 26.2002 20.8333C26.2002 20.63 26.1195 20.435 25.9757 20.2912C25.8319 20.1474 25.6369 20.0667 25.4336 20.0667H24.6669C24.4636 20.0667 24.2686 20.1474 24.1248 20.2912C23.981 20.435 23.9002 20.63 23.9002 20.8333C23.9002 21.0367 23.981 21.2317 24.1248 21.3754C24.2686 21.5192 24.4636 21.6 24.6669 21.6ZM28.5002 21.6H29.2669C29.4702 21.6 29.6652 21.5192 29.809 21.3754C29.9528 21.2317 30.0336 21.0367 30.0336 20.8333C30.0336 20.63 29.9528 20.435 29.809 20.2912C29.6652 20.1474 29.4702 20.0667 29.2669 20.0667H28.5002C28.2969 20.0667 28.1019 20.1474 27.9581 20.2912C27.8143 20.435 27.7336 20.63 27.7336 20.8333C27.7336 21.0367 27.8143 21.2317 27.9581 21.3754C28.1019 21.5192 28.2969 21.6 28.5002 21.6ZM54.5669 21.6H59.1669C59.3702 21.6 59.5652 21.5192 59.709 21.3754C59.8528 21.2317 59.9336 21.0367 59.9336 20.8333C59.9336 20.63 59.8528 20.435 59.709 20.2912C59.5652 20.1474 59.3702 20.0667 59.1669 20.0667H54.5669C54.3636 20.0667 54.1686 20.1474 54.0248 20.2912C53.881 20.435 53.8002 20.63 53.8002 20.8333C53.8002 21.0367 53.881 21.2317 54.0248 21.3754C54.1686 21.5192 54.3636 21.6 54.5669 21.6ZM58.4002 48.4333H43.0669C42.8636 48.4333 42.6686 48.5141 42.5248 48.6579C42.381 48.8017 42.3002 48.9967 42.3002 49.2C42.3002 49.4033 42.381 49.5983 42.5248 49.7421C42.6686 49.8859 42.8636 49.9667 43.0669 49.9667H58.4002C58.6036 49.9667 58.7986 49.8859 58.9424 49.7421C59.0861 49.5983 59.1669 49.4033 59.1669 49.2C59.1669 48.9967 59.0861 48.8017 58.9424 48.6579C58.7986 48.5141 58.6036 48.4333 58.4002 48.4333ZM58.4002 51.5H43.0669C42.8636 51.5 42.6686 51.5808 42.5248 51.7246C42.381 51.8683 42.3002 52.0633 42.3002 52.2667C42.3002 52.47 42.381 52.665 42.5248 52.8088C42.6686 52.9526 42.8636 53.0333 43.0669 53.0333H58.4002C58.6036 53.0333 58.7986 52.9526 58.9424 52.8088C59.0861 52.665 59.1669 52.47 59.1669 52.2667C59.1669 52.0633 59.0861 51.8683 58.9424 51.7246C58.7986 51.5808 58.6036 51.5 58.4002 51.5ZM58.4002 54.5667H43.0669C42.8636 54.5667 42.6686 54.6474 42.5248 54.7912C42.381 54.935 42.3002 55.13 42.3002 55.3333C42.3002 55.5367 42.381 55.7317 42.5248 55.8755C42.6686 56.0192 42.8636 56.1 43.0669 56.1H58.4002C58.6036 56.1 58.7986 56.0192 58.9424 55.8755C59.0861 55.7317 59.1669 55.5367 59.1669 55.3333C59.1669 55.13 59.0861 54.935 58.9424 54.7912C58.7986 54.6474 58.6036 54.5667 58.4002 54.5667ZM58.4002 57.6333H43.0669C42.8636 57.6333 42.6686 57.7141 42.5248 57.8579C42.381 58.0017 42.3002 58.1967 42.3002 58.4C42.3002 58.6033 42.381 58.7983 42.5248 58.9421C42.6686 59.0859 42.8636 59.1667 43.0669 59.1667H58.4002C58.6036 59.1667 58.7986 59.0859 58.9424 58.9421C59.0861 58.7983 59.1669 58.6033 59.1669 58.4C59.1669 58.1967 59.0861 58.0017 58.9424 57.8579C58.7986 57.7141 58.6036 57.6333 58.4002 57.6333ZM37.7002 48.4333H22.3669C22.1636 48.4333 21.9686 48.5141 21.8248 48.6579C21.681 48.8017 21.6002 48.9967 21.6002 49.2C21.6002 49.4033 21.681 49.5983 21.8248 49.7421C21.9686 49.8859 22.1636 49.9667 22.3669 49.9667H37.7002C37.9036 49.9667 38.0986 49.8859 38.2423 49.7421C38.3861 49.5983 38.4669 49.4033 38.4669 49.2C38.4669 48.9967 38.3861 48.8017 38.2423 48.6579C38.0986 48.5141 37.9036 48.4333 37.7002 48.4333ZM37.7002 51.5H22.3669C22.1636 51.5 21.9686 51.5808 21.8248 51.7246C21.681 51.8683 21.6002 52.0633 21.6002 52.2667C21.6002 52.47 21.681 52.665 21.8248 52.8088C21.9686 52.9526 22.1636 53.0333 22.3669 53.0333H37.7002C37.9036 53.0333 38.0986 52.9526 38.2423 52.8088C38.3861 52.665 38.4669 52.47 38.4669 52.2667C38.4669 52.0633 38.3861 51.8683 38.2423 51.7246C38.0986 51.5808 37.9036 51.5 37.7002 51.5ZM37.7002 54.5667H22.3669C22.1636 54.5667 21.9686 54.6474 21.8248 54.7912C21.681 54.935 21.6002 55.13 21.6002 55.3333C21.6002 55.5367 21.681 55.7317 21.8248 55.8755C21.9686 56.0192 22.1636 56.1 22.3669 56.1H37.7002C37.9036 56.1 38.0986 56.0192 38.2423 55.8755C38.3861 55.7317 38.4669 55.5367 38.4669 55.3333C38.4669 55.13 38.3861 54.935 38.2423 54.7912C38.0986 54.6474 37.9036 54.5667 37.7002 54.5667ZM37.7002 57.6333H22.3669C22.1636 57.6333 21.9686 57.7141 21.8248 57.8579C21.681 58.0017 21.6002 58.1967 21.6002 58.4C21.6002 58.6033 21.681 58.7983 21.8248 58.9421C21.9686 59.0859 22.1636 59.1667 22.3669 59.1667H37.7002C37.9036 59.1667 38.0986 59.0859 38.2423 58.9421C38.3861 58.7983 38.4669 58.6033 38.4669 58.4C38.4669 58.1967 38.3861 58.0017 38.2423 57.8579C38.0986 57.7141 37.9036 57.6333 37.7002 57.6333Z" fill="#FDFDFD"/>
</g>
<defs>
<clipPath id="clip0_752_14837">
<rect width="46" height="46" fill="white" transform="translate(17 17)"/>
</clipPath>
</defs>
</svg>
