<svg width="80" height="80" viewBox="0 0 80 80" fill="none" xmlns="http://www.w3.org/2000/svg">
<rect width="80" height="80" rx="40" fill="#433878"/>
<path d="M49.7729 30.4737C51.2779 30.4737 52.7244 29.9842 54.0695 29.529C56.4288 28.7311 57.9544 28.2962 59.5376 29.3678C59.741 29.5054 59.9782 29.5851 60.2235 29.5982C60.4688 29.6114 60.7131 29.5575 60.9301 29.4423C61.147 29.3271 61.3286 29.155 61.4552 28.9445C61.5818 28.734 61.6487 28.4929 61.6487 28.2473V20.7349C61.6487 20.5138 61.5946 20.296 61.4909 20.1007C61.3873 19.9053 61.2373 19.7384 61.0542 19.6144C58.2777 17.736 55.5818 18.6484 53.202 19.4531C51.349 20.0806 50.0104 20.4795 48.7536 20.1034C48.7928 19.9767 48.8199 19.845 48.8199 19.7056C48.8199 19.3468 48.6773 19.0027 48.4236 18.7489C48.1699 18.4952 47.8257 18.3527 47.4669 18.3527H46.4847C46.1259 18.3527 45.7817 18.4952 45.528 18.7489C45.2743 19.0027 45.1317 19.3468 45.1317 19.7056C45.1317 20.1237 45.3252 20.4925 45.6229 20.7406V39.1926L40.7358 46.0227L39.2248 42.8812L39.2221 42.8755L32.8589 29.647L18.3511 61.6471H25.6261C26.3735 61.6471 26.9791 61.0415 26.9791 60.2941C26.9791 59.5467 26.3735 58.9412 25.6261 58.9412H22.549L28.112 46.6711L28.276 46.7799C28.9051 47.199 29.6692 47.7082 30.5462 47.7082C31.1737 47.7082 31.8594 47.4471 32.5935 46.7057C32.7293 46.5726 32.8612 46.4354 32.9888 46.2944C33.1141 46.1589 33.2848 45.974 33.4177 45.8647C33.5062 45.9226 33.6131 46.0008 33.694 46.0604C33.8274 46.1583 33.977 46.2682 34.1394 46.3688C35.4414 47.2761 36.658 46.6467 37.6232 45.7938L40.2782 51.3133L46.8724 42.0965L56.891 58.9412H31.352C30.6047 58.9412 29.9991 59.5467 29.9991 60.2941C29.9991 61.0415 30.6047 61.6471 31.352 61.6471H61.6487L48.3287 39.2521V30.3064C48.815 30.4209 49.2969 30.4737 49.7729 30.4737ZM35.5153 44.0366C35.4512 43.9933 35.3743 43.937 35.2942 43.8781C34.7825 43.5033 33.9264 42.875 32.8116 43.1764L32.7718 43.1878C31.9427 43.4389 31.3983 44.0282 31.0008 44.4587C30.9034 44.5645 30.8073 44.6695 30.708 44.7648L30.6788 44.7937C30.6178 44.8568 30.5531 44.9162 30.4851 44.9715C30.3113 44.8841 30.0199 44.6898 29.7767 44.5275C29.6162 44.4206 29.4352 44.3015 29.2423 44.1779L32.9317 36.0402L36.3842 43.217C36.0819 43.5452 35.7429 43.8921 35.5156 44.0361L35.5153 44.0366ZM54.0698 22.0164C56.1325 21.3186 57.5585 20.8984 58.9431 21.521V26.1843C56.9194 25.7081 54.9725 26.3669 53.2023 26.9658C51.1393 27.6636 49.7133 28.0838 48.329 27.4612V22.7979C50.3527 23.2744 52.2991 22.6158 54.0698 22.0164Z" fill="#FDFDFD"/>
</svg>
