<svg width="80" height="80" viewBox="0 0 80 80" fill="none" xmlns="http://www.w3.org/2000/svg">
<rect width="80" height="80" rx="40" fill="#433878"/>
<path fill-rule="evenodd" clip-rule="evenodd" d="M47.7148 19.8796C47.4602 19.8796 47.2161 19.9808 47.0361 20.1608C46.8561 20.3408 46.7549 20.5849 46.7549 20.8395C46.7549 21.094 46.8561 21.3382 47.0361 21.5182C47.2161 21.6982 47.4602 21.7993 47.7148 21.7993H49.236L40.0342 31.0011L38.7955 29.757C38.7063 29.6677 38.6005 29.5969 38.4839 29.5486C38.3674 29.5003 38.2425 29.4754 38.1163 29.4754C37.9902 29.4754 37.8653 29.5003 37.7487 29.5486C37.6322 29.5969 37.5264 29.6677 37.4372 29.757L31.6782 35.5178C30.7726 36.4252 32.1327 37.7816 33.0364 36.8761L38.1145 31.7944L39.3587 33.0385C39.5387 33.2182 39.7826 33.3192 40.0369 33.3192C40.2913 33.3192 40.5352 33.2182 40.7152 33.0385L50.5961 23.154V24.677C50.5961 24.9316 50.6972 25.1757 50.8772 25.3558C51.0572 25.5358 51.3014 25.6369 51.5559 25.6369C51.8105 25.6369 52.0547 25.5358 52.2347 25.3558C52.4147 25.1757 52.5158 24.9316 52.5158 24.677V20.8413C52.5158 20.5867 52.4147 20.3426 52.2347 20.1626C52.0547 19.9826 51.8105 19.8814 51.5559 19.8814L47.7148 19.8796ZM35.2422 19.8869C26.7721 19.8814 19.8848 26.7742 19.8848 35.2444C19.8848 43.7145 26.7703 50.6018 35.2422 50.6018C38.5128 50.5979 41.6965 49.5483 44.3282 47.6064L45.4021 48.6803L45.0073 49.0752C44.8281 49.255 44.7275 49.4986 44.7275 49.7525C44.7275 50.0064 44.8281 50.2499 45.0073 50.4298L53.6368 59.0648C54.3588 59.7817 55.335 60.1841 56.3524 60.1841C57.3699 60.1841 58.3461 59.7817 59.0681 59.0648C59.7848 58.3434 60.1871 57.3678 60.1871 56.3509C60.1871 55.3341 59.7848 54.3585 59.0681 53.6371L50.4349 45.004C50.3442 44.9133 50.2362 44.8418 50.1174 44.7936C49.9986 44.7454 49.8713 44.7215 49.7431 44.7233C49.4935 44.7268 49.2551 44.8275 49.0785 45.004L48.68 45.4024L47.6079 44.3339C48.2835 43.4151 48.8545 42.4237 49.3103 41.3783C49.4121 41.1449 49.417 40.8805 49.324 40.6435C49.2309 40.4064 49.0475 40.216 48.8141 40.1142C48.5806 40.0124 48.3163 40.0075 48.0792 40.1005C47.8422 40.1936 47.6518 40.377 47.55 40.6104C46.5066 43.0079 44.786 45.0486 42.5993 46.4821C40.4127 47.9156 37.8551 48.6796 35.2404 48.6803C33.4752 48.6823 31.727 48.336 30.0958 47.6613C28.4646 46.9867 26.9824 45.997 25.7342 44.7488C24.486 43.5006 23.4963 42.0184 22.8216 40.3872C22.147 38.756 21.8007 37.0078 21.8026 35.2426C21.8003 32.7485 22.493 30.3032 23.803 28.1809C25.1131 26.0586 26.9886 24.3434 29.2192 23.2277C31.4498 22.1121 33.9472 21.6401 36.4311 21.8647C38.915 22.0894 41.2872 23.0018 43.2814 24.4996C43.3822 24.5754 43.497 24.6307 43.6192 24.6622C43.7414 24.6937 43.8686 24.7008 43.9936 24.6832C44.1185 24.6655 44.2388 24.6234 44.3474 24.5593C44.4561 24.4951 44.5511 24.4102 44.627 24.3094C44.7028 24.2086 44.7581 24.0938 44.7896 23.9716C44.8211 23.8494 44.8282 23.7222 44.8106 23.5972C44.7929 23.4723 44.7508 23.352 44.6867 23.2433C44.6226 23.1347 44.5377 23.0397 44.4368 22.9638C41.7854 20.9692 38.5583 19.8889 35.2404 19.8851L35.2422 19.8869ZM35.2422 23.7263C32.1886 23.7301 29.2612 24.9448 27.1019 27.1041C24.9427 29.2633 23.728 32.1907 23.7241 35.2444C23.7241 41.5938 28.891 46.7643 35.2422 46.7625C37.1596 46.7606 39.0462 46.2801 40.7308 45.3645C42.4155 44.449 43.845 43.1274 44.8896 41.5196C44.9583 41.4137 45.0055 41.2954 45.0285 41.1713C45.0515 41.0472 45.0498 40.9198 45.0236 40.7964C44.9974 40.673 44.9471 40.5559 44.8756 40.4519C44.8041 40.3479 44.7129 40.259 44.607 40.1903C44.5012 40.1215 44.3829 40.0743 44.2588 40.0513C44.1347 40.0283 44.0073 40.03 43.8839 40.0562C43.7605 40.0825 43.6434 40.1327 43.5394 40.2042C43.4354 40.2757 43.3465 40.367 43.2778 40.4728C42.4083 41.8128 41.2179 42.9145 39.8146 43.6776C38.4113 44.4408 36.8396 44.8413 35.2422 44.8428C33.9812 44.8449 32.7321 44.5981 31.5665 44.1165C30.401 43.6349 29.3421 42.928 28.4503 42.0363C27.5586 41.1445 26.8517 40.0856 26.3701 38.9201C25.8885 37.7546 25.6417 36.5055 25.6438 35.2444C25.6438 29.9308 29.9287 25.6459 35.2422 25.6459C37.1438 25.6459 39.0019 26.2128 40.583 27.274C40.6875 27.349 40.8059 27.4021 40.9314 27.4303C41.0568 27.4586 41.1867 27.4613 41.3132 27.4384C41.4397 27.4155 41.5603 27.3674 41.6679 27.297C41.7755 27.2266 41.8678 27.1352 41.9394 27.0284C42.011 26.9216 42.0604 26.8015 42.0847 26.6753C42.109 26.549 42.1077 26.4192 42.0808 26.2934C42.054 26.1677 42.0021 26.0486 41.9284 25.9433C41.8546 25.838 41.7604 25.7486 41.6515 25.6803C39.7557 24.407 37.5241 23.7261 35.2404 23.7244L35.2422 23.7263ZM51.5415 26.5877C51.2878 26.5915 51.046 26.6955 50.8689 26.8771C50.6918 27.0586 50.5937 27.3029 50.5961 27.5566V38.1185C50.5961 38.373 50.6972 38.6172 50.8772 38.7972C51.0572 38.9772 51.3014 39.0783 51.5559 39.0783C51.8105 39.0783 52.0547 38.9772 52.2347 38.7972C52.4147 38.6172 52.5158 38.373 52.5158 38.1185V27.5566C52.5173 27.4284 52.493 27.3012 52.4445 27.1825C52.396 27.0639 52.3243 26.9561 52.2335 26.8656C52.1426 26.7751 52.0346 26.7038 51.9158 26.6557C51.7969 26.6077 51.6696 26.5857 51.5415 26.5877ZM47.7021 28.5037C47.576 28.5054 47.4515 28.5319 47.3357 28.5816C47.2199 28.6314 47.115 28.7035 47.0271 28.7938C46.9391 28.8841 46.8698 28.9909 46.8231 29.108C46.7764 29.2251 46.7532 29.3502 46.7549 29.4763V38.1185C46.7549 38.373 46.8561 38.6172 47.0361 38.7972C47.2161 38.9772 47.4602 39.0783 47.7148 39.0783C47.9693 39.0783 48.2135 38.9772 48.3935 38.7972C48.5735 38.6172 48.6746 38.373 48.6746 38.1185V29.4763C48.6763 29.3479 48.6523 29.2205 48.6039 29.1017C48.5555 28.9828 48.4838 28.8748 48.3929 28.7841C48.3021 28.6934 48.194 28.6219 48.075 28.5738C47.956 28.5256 47.8304 28.5018 47.7021 28.5037ZM43.8609 31.3833C43.7347 31.3849 43.6101 31.4114 43.4941 31.4613C43.3782 31.5112 43.2732 31.5835 43.1852 31.674C43.0973 31.7645 43.028 31.8714 42.9814 31.9887C42.9348 32.106 42.9118 32.2314 42.9137 32.3576V38.1185C42.9137 38.3733 43.015 38.6176 43.1951 38.7978C43.3753 38.978 43.6197 39.0792 43.8745 39.0792C44.1293 39.0792 44.3737 38.978 44.5538 38.7978C44.734 38.6176 44.8352 38.3733 44.8352 38.1185V32.3576C44.8372 32.2291 44.8133 32.1015 44.7651 31.9824C44.7168 31.8633 44.6451 31.7551 44.5542 31.6643C44.4634 31.5734 44.3552 31.5017 44.2361 31.4534C44.117 31.4052 43.9894 31.3813 43.8609 31.3833ZM40.0215 34.2628C39.8952 34.2644 39.7704 34.291 39.6543 34.341C39.5383 34.391 39.4332 34.4634 39.3452 34.5541C39.2572 34.6448 39.188 34.752 39.1415 34.8695C39.095 34.987 39.0722 35.1126 39.0744 35.2389V38.1185C39.0744 38.373 39.1755 38.6172 39.3555 38.7972C39.5355 38.9772 39.7796 39.0783 40.0342 39.0783C40.2888 39.0783 40.5329 38.9772 40.7129 38.7972C40.8929 38.6172 40.9941 38.373 40.9941 38.1185V35.2389C40.996 35.1104 40.9721 34.9829 40.9239 34.8638C40.8756 34.7447 40.8039 34.6365 40.713 34.5456C40.6222 34.4548 40.514 34.3831 40.3949 34.3348C40.2758 34.2865 40.1482 34.2626 40.0197 34.2646L40.0215 34.2628ZM36.1822 36.1825C36.0561 36.1846 35.9317 36.2115 35.8161 36.2617C35.7004 36.3119 35.5958 36.3844 35.5082 36.4751C35.4206 36.5657 35.3517 36.6728 35.3054 36.79C35.2592 36.9073 35.2365 37.0326 35.2386 37.1586V38.1185C35.2386 38.373 35.3398 38.6172 35.5198 38.7972C35.6998 38.9772 35.9439 39.0783 36.1985 39.0783C36.453 39.0783 36.6972 38.9772 36.8772 38.7972C37.0572 38.6172 37.1583 38.373 37.1583 38.1185V37.1586C37.1603 37.0301 37.1364 36.9025 37.0881 36.7835C37.0399 36.6644 36.9682 36.5562 36.8773 36.4653C36.7864 36.3744 36.6782 36.3027 36.5591 36.2545C36.44 36.2062 36.3125 36.1823 36.184 36.1843L36.1822 36.1825ZM30.4376 37.1568C30.183 37.1568 29.9389 37.2579 29.7589 37.4379C29.5789 37.6179 29.4778 37.8621 29.4778 38.1166C29.4778 38.3712 29.5789 38.6154 29.7589 38.7954C29.9389 38.9754 30.183 39.0765 30.4376 39.0765C30.6922 39.0765 30.9363 38.9754 31.1163 38.7954C31.2963 38.6154 31.3974 38.3712 31.3974 38.1166C31.3974 37.8621 31.2963 37.6179 31.1163 37.4379C30.9363 37.2579 30.6922 37.1568 30.4376 37.1568ZM46.3692 45.8099L47.3236 46.7625L46.7622 47.3239L45.8059 46.3695C45.9979 46.1884 46.1863 46.0018 46.3692 45.8081V45.8099ZM49.7558 47.0414L50.7989 48.0845L48.0842 50.8011L47.0411 49.7561L49.7558 47.0414ZM52.1554 49.441L57.7098 54.9954C57.8911 55.1719 58.0352 55.383 58.1336 55.6161C58.2321 55.8492 58.2828 56.0997 58.2828 56.3527C58.2828 56.6058 58.2321 56.8563 58.1336 57.0894C58.0352 57.3225 57.8911 57.5336 57.7098 57.7101C57.5335 57.8914 57.3225 58.0355 57.0896 58.1338C56.8566 58.2322 56.6063 58.2829 56.3533 58.2829C56.1004 58.2829 55.8501 58.2322 55.6171 58.1338C55.3841 58.0355 55.1733 57.8914 54.9969 57.7101L49.4425 52.1557L52.1554 49.441Z" fill="#FDFDFD"/>
</svg>
