<svg width="80" height="80" viewBox="0 0 80 80" fill="none" xmlns="http://www.w3.org/2000/svg">
<rect width="80" height="80" rx="40" fill="#433878"/>
<g clip-path="url(#clip0_752_14781)">
<path d="M40.1538 58.1498C32.3498 58.1498 25.5467 53.1686 23.0815 45.983L25.0901 46.8594L26.1704 44.3833L20.5761 41.9425L17 47.3079L19.2479 48.8063L20.5326 46.8788C23.3723 55.1318 31.1887 60.8513 40.1539 60.8513C50.1705 60.8513 58.7536 53.7127 60.5623 43.8772L57.9053 43.3885C56.3323 51.9418 48.8668 58.1498 40.1538 58.1498ZM40.1538 21.8502C47.8804 21.8502 54.6652 26.7785 57.1722 33.8857L54.7876 32.9057L53.7607 35.4044L59.7248 37.8556L63 32.7053L60.7204 31.2555L59.6841 32.8851C56.7726 24.7679 48.9997 19.1487 40.1538 19.1487C30.2393 19.1487 21.6719 26.2014 19.7827 35.9184L22.4345 36.4342C24.0776 27.9837 31.5296 21.8502 40.1538 21.8502Z" fill="#FDFDFD"/>
<path d="M30.689 52.7374H49.6115V30.5602L46.3849 27.3803H30.689V52.7374ZM33.3905 30.0818H45.2774L46.91 31.6908V50.0359H33.3905V30.0818Z" fill="#FDFDFD"/>
<path d="M37.063 33.0017H43.2441V35.7032H37.063V33.0017ZM37.063 38.708H43.2441V41.4095H37.063V38.708ZM37.063 44.4143H43.2441V47.1158H37.063V44.4143Z" fill="#FDFDFD"/>
</g>
<defs>
<clipPath id="clip0_752_14781">
<rect width="46" height="46" fill="white" transform="translate(17 17)"/>
</clipPath>
</defs>
</svg>
