<svg width="80" height="80" viewBox="0 0 80 80" fill="none" xmlns="http://www.w3.org/2000/svg">
<rect width="80" height="80" rx="40" fill="#433878"/>
<path d="M39.9996 38.9076C41.2776 38.9076 42.527 38.5287 43.5897 37.8188C44.6524 37.1088 45.4808 36.0998 45.9701 34.9192C46.4594 33.7386 46.5878 32.4394 46.3389 31.1858C46.0899 29.9323 45.475 28.7807 44.5717 27.8766C43.6684 26.9725 42.5173 26.3565 41.264 26.1065C40.0107 25.8564 38.7114 25.9836 37.5303 26.4719C36.3493 26.9602 35.3395 27.7877 34.6286 28.8497C33.9178 29.9118 33.5378 31.1608 33.5366 32.4388C33.5366 34.1534 34.2174 35.7979 35.4292 37.0109C36.6411 38.2238 38.285 38.906 39.9996 38.9076ZM39.9996 28.8508C40.7093 28.8508 41.403 29.0613 41.993 29.4555C42.5831 29.8498 43.0429 30.4101 43.3145 31.0658C43.5861 31.7214 43.6571 32.4428 43.5187 33.1388C43.3802 33.8348 43.0385 34.4741 42.5367 34.9759C42.0349 35.4777 41.3956 35.8194 40.6996 35.9579C40.0036 36.0963 39.2822 36.0253 38.6266 35.7537C37.9709 35.4821 37.4106 35.0223 37.0163 34.4322C36.6221 33.8422 36.4116 33.1485 36.4116 32.4388C36.4131 31.4877 36.7917 30.576 37.4642 29.9034C38.1368 29.2308 39.0485 28.8523 39.9996 28.8508Z" fill="#FDFDFD"/>
<path d="M24.3569 54.2054C24.3569 58.9837 32.4156 61.5625 39.9998 61.5625C47.5841 61.5625 55.6427 58.9865 55.6427 54.2054C55.6427 51.1637 52.2761 48.6912 46.7244 47.5153L51.1404 40.8453C53.3356 37.9737 54.3272 34.3606 53.9055 30.7708C53.4837 27.181 51.6816 23.8962 48.8807 21.6115C47.0354 20.0947 44.8325 19.0754 42.4818 18.6507C40.1311 18.226 37.7109 18.41 35.4514 19.1853C33.192 19.9605 31.1686 21.3012 29.5738 23.0796C27.9791 24.858 26.866 27.015 26.3407 29.3453C25.8883 31.315 25.8747 33.36 26.301 35.3355C26.7273 37.311 27.583 39.1685 28.8074 40.7763L33.2752 47.5153C27.7236 48.6912 24.3569 51.1665 24.3569 54.2054ZM29.1496 29.9692C29.6206 27.8941 30.6763 25.9975 32.1915 24.5036C33.7068 23.0098 35.6183 21.9812 37.6998 21.5397C38.446 21.3926 39.2047 21.3184 39.9653 21.3183C42.0456 21.3009 44.0887 21.8702 45.8604 22.9608C47.632 24.0515 49.0603 25.6193 49.9817 27.4845C50.9031 29.3498 51.2801 31.4369 51.0696 33.5066C50.8591 35.5764 50.0696 37.5449 48.7916 39.1864L43.0904 47.7913L43.0674 47.8287L40.8968 51.1004C40.7987 51.2481 40.6656 51.3692 40.5093 51.453C40.3531 51.5367 40.1785 51.5806 40.0012 51.5806C39.824 51.5806 39.6494 51.5367 39.4932 51.453C39.3369 51.3692 39.2038 51.2481 39.1057 51.1004L36.9293 47.8229L36.9092 47.7942L31.1506 39.1117C30.1647 37.8284 29.4742 36.3434 29.1283 34.7626C28.7824 33.1817 28.7897 31.5469 29.1496 29.9692ZM35.0031 50.1229L36.7079 52.6932C37.0687 53.2358 37.558 53.6808 38.1324 53.9886C38.7067 54.2964 39.3482 54.4575 39.9998 54.4575C40.6514 54.4575 41.2929 54.2964 41.8673 53.9886C42.4416 53.6808 42.9309 53.2358 43.2917 52.6932L44.9966 50.1229C49.8639 50.9509 52.7677 52.7938 52.7677 54.2054C52.7677 56.0339 47.7939 58.6875 39.9969 58.6875C32.1999 58.6875 27.2319 56.0339 27.2319 54.2054C27.2319 52.7938 30.1357 50.9509 35.0031 50.1229Z" fill="#FDFDFD"/>
</svg>
