<svg width="80" height="80" viewBox="0 0 80 80" fill="none" xmlns="http://www.w3.org/2000/svg">
<rect width="80" height="80" rx="40" fill="#433878"/>
<g clip-path="url(#clip0_752_14757)">
<mask id="mask0_752_14757" style="mask-type:luminance" maskUnits="userSpaceOnUse" x="17" y="17" width="46" height="46">
<path d="M17 17H63V63H17V17Z" fill="white"/>
</mask>
<g mask="url(#mask0_752_14757)">
<path fill-rule="evenodd" clip-rule="evenodd" d="M55.7805 26.4315C55.7804 26.4315 55.7807 26.4314 55.7805 26.4315L51.9648 28.0181C51.9471 28.0245 51.9327 28.0376 51.9246 28.0546C51.9216 28.0609 51.9199 28.0678 51.9195 28.0749C51.9193 28.0841 51.9209 28.0932 51.9242 28.1018L51.9276 28.1109L56.9815 42.6915L56.9855 42.7031C56.9879 42.7103 56.9909 42.715 56.9949 42.7194C57.0019 42.7265 57.0101 42.7321 57.0192 42.736C57.0434 42.7469 57.064 42.7452 57.0785 42.7392C57.0784 42.7393 57.0786 42.7392 57.0785 42.7392L60.8947 41.1525C60.9124 41.1461 60.9268 41.133 60.9348 41.116C60.9378 41.1097 60.9395 41.1028 60.9399 41.0957C60.9401 41.0865 60.9385 41.0773 60.9351 41.0688L60.9319 41.0597L55.8778 26.4791L55.8739 26.4675C55.8721 26.4614 55.8689 26.4559 55.8645 26.4513C55.8576 26.4442 55.8494 26.4385 55.8403 26.4346C55.8161 26.4238 55.7951 26.4256 55.7805 26.4315ZM57.8256 25.8094C57.4291 24.6329 56.112 24.0653 54.993 24.5284L51.1837 26.1122C50.1469 26.5371 49.597 27.7006 49.9827 28.7893L55.0338 43.3612C55.4303 44.5377 56.7473 45.1053 57.8663 44.6422L57.8679 44.6416L61.6758 43.0583C62.7126 42.6335 63.2624 41.47 62.8766 40.3813L57.8256 25.8094ZM23.4616 26.9182L23.4613 26.919L19.0703 41.7764C19.068 41.7842 19.0656 41.7919 19.0631 41.7997C19.0558 41.8224 19.0634 41.8615 19.111 41.8785L22.9821 43.2624L23.0006 43.2693C23.0015 43.2696 23.0024 43.27 23.0054 43.2698C23.0141 43.2688 23.0225 43.2661 23.0301 43.262C23.04 43.2574 23.0488 43.2508 23.0561 43.2428C23.0635 43.2347 23.0691 43.2253 23.0727 43.2151L23.0729 43.2143L27.464 28.3569C27.4663 28.3491 27.4687 28.3413 27.4711 28.3336C27.4785 28.3109 27.4708 28.2717 27.4233 28.2548L23.5522 26.8708L23.5336 26.8639C23.5327 26.8637 23.5318 26.8633 23.5288 26.8635C23.5202 26.8645 23.5117 26.8671 23.5041 26.8713C23.4942 26.8759 23.4854 26.8824 23.4781 26.8905C23.4708 26.8985 23.4652 26.908 23.4616 26.9182ZM24.2533 24.9342C23.0918 24.5007 21.8321 25.1817 21.4885 26.3272L17.098 41.1828C16.7534 42.2792 17.347 43.4355 18.4182 43.8182L22.2809 45.1991C23.4424 45.6326 24.7021 44.9515 25.0457 43.8061L25.0469 43.802L29.4363 28.9505C29.7808 27.8542 29.1874 26.6979 28.1164 26.3153L24.2533 24.9342Z" fill="#FDFDFD"/>
<path fill-rule="evenodd" clip-rule="evenodd" d="M44.7951 29.1648C43.7519 28.8967 42.8544 28.8583 42.1913 29.1236L42.18 29.1281C40.5983 29.7391 37.589 31.7427 35.5774 34.4152C35.1686 34.9816 35.2137 35.8319 35.6689 36.359C35.6969 36.3913 35.7227 36.4254 35.7464 36.4609L35.7506 36.4672C36.0811 36.8322 36.561 36.923 36.9708 36.7474L36.9745 36.7459C37.2998 36.6079 37.6685 36.3572 38.1002 36.006C38.364 35.7914 38.5971 35.5865 38.8428 35.3705C39.0246 35.2108 39.2133 35.0449 39.4264 34.8646C39.8747 34.4853 40.3884 34.0817 40.9317 33.816C41.4854 33.5451 42.1863 33.3614 42.933 33.6071C43.5003 33.794 44.2982 34.2319 45.1467 34.7463C46.0246 35.2784 47.0489 35.9501 48.1035 36.6667C50.2126 38.0997 52.4786 39.7362 54.0052 40.8511C55.3129 41.7918 55.8004 43.4776 55.3753 44.9918L55.3732 44.9996C54.8877 46.6787 53.3609 47.7606 51.7739 47.6395C51.7778 48.4939 51.4988 49.3552 50.9231 50.0459L50.9216 50.0477C50.071 51.0636 48.7571 51.4611 47.5528 51.1068C47.5156 51.9542 47.202 52.7942 46.5992 53.4519L46.5961 53.4553C45.5362 54.601 43.8565 54.8844 42.4968 54.0568L38.6242 51.6891C38.139 51.3925 37.9862 50.7586 38.2828 50.2734C38.5795 49.7881 39.2133 49.6352 39.6986 49.9319L43.5677 52.2975C43.5675 52.2974 43.5678 52.2975 43.5677 52.2975C44.0524 52.5922 44.6583 52.5154 45.0825 52.0584C45.7673 51.3091 45.5635 50.0355 44.7876 49.567C44.7874 49.5668 44.7871 49.5667 44.7868 49.5666L40.8172 47.1808C40.3298 46.8878 40.1719 46.255 40.4648 45.7676C40.7577 45.2801 41.3903 45.1224 41.8778 45.4152L47.8596 49.0083C48.3293 49.2942 48.9333 49.2136 49.3418 48.7262C49.9127 48.0398 49.7971 47.0002 49.2189 46.4652L43.4223 42.7547L43.4196 42.753C42.9411 42.4467 42.8011 41.8108 43.1066 41.3318C43.4122 40.8528 44.0479 40.7117 44.5273 41.0166L44.53 41.0183L50.146 44.5884C50.2523 44.6565 50.3549 44.7304 50.4532 44.8098L51.3333 45.3732C52.0375 45.8289 53.0756 45.5228 53.3935 44.4314C53.6077 43.6619 53.3344 42.9047 52.8008 42.5219L52.7938 42.5168C51.2719 41.4055 49.027 39.7842 46.946 38.3703C45.9048 37.6629 44.9135 37.0134 44.0791 36.5077C43.2153 35.9841 42.6039 35.6673 42.2887 35.5634C42.243 35.5484 42.1239 35.5256 41.8368 35.6661C41.5382 35.8122 41.1884 36.0718 40.7568 36.437C40.5904 36.5788 40.4253 36.722 40.2613 36.8665C39.9791 37.1137 39.6741 37.3808 39.3998 37.6039C38.9251 37.99 38.3767 38.3881 37.7802 38.6413C36.519 39.1809 35.0522 38.8421 34.1402 37.7536C34.1161 37.7249 34.0936 37.6948 34.0728 37.6636L34.0651 37.652C33.0395 36.4147 32.9402 34.5361 33.9171 33.1964L33.9259 33.1843C36.164 30.2072 39.4846 27.9632 41.4322 27.2089C42.7025 26.703 44.1186 26.8643 45.3078 27.17C46.5793 27.4969 47.7951 28.0465 48.6041 28.4122C48.6976 28.4544 48.7857 28.4942 48.8679 28.531C49.4018 28.7699 49.9055 28.7721 50.2883 28.7102C50.4408 28.6859 50.5907 28.6479 50.7364 28.5967C50.7778 28.582 50.8186 28.5658 50.8587 28.548C51.3642 28.2979 51.9779 28.501 52.2337 29.005C52.491 29.5123 52.2885 30.132 51.7813 30.3894L51.3153 29.471C51.7813 30.3894 51.781 30.3896 51.7805 30.3898L51.7797 30.3902L51.778 30.3911L51.7741 30.3931L51.7648 30.3977L51.7399 30.4096C51.7207 30.4187 51.696 30.43 51.666 30.4431C51.6065 30.4691 51.5258 30.502 51.4266 30.5372C51.1636 30.6301 50.8928 30.6991 50.6175 30.7434C49.9473 30.8518 49.017 30.8541 48.0267 30.4112C47.9394 30.372 47.8488 30.3312 47.7552 30.289C46.9325 29.918 45.8816 29.4442 44.7951 29.1648ZM27.4417 40.7056L27.4413 40.7066L25.2991 46.0521C25.0744 46.643 25.3621 47.4796 26.1226 47.8529L26.3308 47.9476C26.3403 47.9519 26.3496 47.9563 26.3589 47.9609C27.0693 48.3101 27.7259 48.0008 27.9376 47.4779L27.9379 47.4769L30.0802 42.1314C30.3047 41.5405 30.0171 40.7039 29.2568 40.3305L29.0484 40.2359C29.039 40.2316 29.0296 40.2272 29.0203 40.2226C28.3099 39.8734 27.6533 40.1827 27.4417 40.7056ZM29.9137 38.3667C28.2608 37.5641 26.2404 38.1784 25.5312 39.9359L23.3844 45.2931L23.3795 45.3054C22.7262 46.998 23.5989 48.9209 25.2359 49.712L25.2579 49.7223L25.4655 49.8167C27.1185 50.6194 29.1388 50.0051 29.848 48.2476L31.9948 42.8905L31.9997 42.8781C32.653 41.1855 31.7803 39.2627 30.1433 38.4715C30.1361 38.4679 30.1287 38.4645 30.1213 38.4612L29.9137 38.3667Z" fill="#FDFDFD"/>
<path fill-rule="evenodd" clip-rule="evenodd" d="M32.9966 44.1965C32.2216 43.8215 31.5047 44.1549 31.2726 44.7349L29.2068 49.8893C29.2068 49.8894 29.2069 49.8892 29.2068 49.8893C28.9499 50.5323 29.2682 51.4468 30.09 51.8427L30.3014 51.9387L30.3238 51.9492C31.0987 52.3242 31.8157 51.9908 32.0478 51.4108L34.1135 46.2564M33.8817 42.3367C32.1722 41.5172 30.0897 42.1475 29.3605 43.9694C29.3605 43.9695 29.3605 43.9693 29.3605 43.9694L29.3603 43.97L27.2945 49.1244C26.5898 50.8861 27.5122 52.8964 29.2118 53.7058L29.2285 53.7135L29.4387 53.8091C31.1483 54.6286 33.2312 53.998 33.9601 52.1757L36.0259 47.0213C36.7306 45.2595 35.8082 43.2493 34.1085 42.44L34.092 42.4323L33.8817 42.3367ZM33.2304 44.3031L33.019 44.2069C33.0115 44.2035 33.004 44.2 32.9966 44.1965" fill="#FDFDFD"/>
<path fill-rule="evenodd" clip-rule="evenodd" d="M35.6246 48.2448C35.6246 48.245 35.6247 48.2447 35.6246 48.2448L34.3612 51.4137C34.1039 52.0567 34.4223 52.971 35.2443 53.367L35.4556 53.4631C35.4632 53.4664 35.4706 53.4699 35.4781 53.4735C36.2529 53.8485 36.9698 53.5153 37.2019 52.9354C37.2018 52.9355 37.2019 52.9353 37.2019 52.9354L38.4656 49.7662C38.7228 49.1232 38.4044 48.2088 37.5824 47.8129L37.371 47.7169C37.3635 47.7134 37.3561 47.7099 37.3486 47.7063C36.5738 47.3314 35.8569 47.665 35.6246 48.2448ZM38.2337 45.8465C36.5241 45.0269 34.4413 45.6575 33.7123 47.4799L32.4488 50.6487C32.4487 50.6489 32.4489 50.6485 32.4488 50.6487C31.7445 52.4103 32.6667 54.4208 34.3661 55.23L34.3827 55.2378L34.593 55.3334C36.3027 56.1529 38.3854 55.5224 39.1144 53.7L40.3779 50.5311L40.3782 50.5305C41.0824 48.7688 40.16 46.759 38.4605 45.9498L38.444 45.9421L38.2337 45.8465ZM37.1651 29.5918C36.1005 29.2142 34.9813 28.9965 34.1872 29.2039C32.9485 29.5275 31.4924 29.6082 30.3917 29.6159C29.9268 29.619 29.4619 29.61 28.9975 29.5888C28.8223 29.5808 28.6471 29.5706 28.4722 29.5583L28.441 29.5558L28.4321 29.5551L28.4285 29.5549C28.4283 29.5549 28.4279 29.5549 28.5118 28.5284L28.4285 29.5549C27.8616 29.5085 27.4391 29.0114 27.4854 28.4445C27.5317 27.8777 28.0286 27.4558 28.5953 27.502L28.601 27.5025L28.6241 27.5042C28.6452 27.5058 28.6776 27.508 28.7204 27.5109C28.8059 27.5165 28.9325 27.524 29.0922 27.5313C29.4118 27.546 29.8614 27.5599 30.3773 27.5563C31.4277 27.5489 32.6791 27.4691 33.6666 27.2112C35.0986 26.837 36.7271 27.2511 37.8536 27.6506C38.3536 27.8289 38.8439 28.0335 39.3224 28.2635C39.5056 28.3515 39.6533 28.427 39.7568 28.4815C39.8087 28.5088 39.8496 28.5308 39.8785 28.5466L39.9128 28.5655L39.9229 28.5712L39.9263 28.573L39.9274 28.5737C39.9277 28.5739 39.9283 28.5742 39.4221 29.471L39.9283 28.5742C40.4236 28.8538 40.5986 29.4819 40.3191 29.9772C40.0396 30.4723 39.412 30.6473 38.9168 30.3683L38.916 30.3679L38.9126 30.3661L38.8913 30.3543C38.8603 30.3374 38.8291 30.3207 38.7978 30.3043C38.6766 30.2407 38.5542 30.1793 38.4307 30.1202C38.0184 29.9219 37.5959 29.7456 37.1651 29.5918Z" fill="#FDFDFD"/>
</g>
</g>
<defs>
<clipPath id="clip0_752_14757">
<rect width="46" height="46" fill="white" transform="translate(17 17)"/>
</clipPath>
</defs>
</svg>
