<svg width="80" height="80" viewBox="0 0 80 80" fill="none" xmlns="http://www.w3.org/2000/svg">
<rect width="80" height="80" rx="40" fill="#433878"/>
<path d="M36.6177 55.0177C39.7295 55.0177 42.5707 54.3413 45.2766 52.853L52.5824 60.1589C54.6119 62.1883 57.9942 62.1883 60.1589 60.1589C62.3236 58.1295 62.3236 54.6119 60.1589 52.5824L52.853 45.2766C54.206 42.706 55.0177 39.7295 55.0177 36.6177C55.0177 26.606 46.7648 18.353 36.6177 18.353C26.606 18.353 18.353 26.606 18.353 36.6177C18.353 46.7648 26.606 55.0177 36.6177 55.0177ZM58.1295 54.4766C59.2118 55.5589 59.2118 57.1824 58.1295 58.2648C57.0471 59.3471 55.4236 59.3471 54.3413 58.2648L47.4413 51.3648C49.0648 50.1471 50.0118 49.2001 51.2295 47.5766L58.1295 54.4766ZM36.6177 21.0589C45.2766 21.0589 52.1766 28.0942 52.1766 36.6177C52.1766 45.2766 45.1413 52.1766 36.6177 52.1766C28.0942 52.3119 21.0589 45.2766 21.0589 36.6177C21.0589 28.0942 28.0942 21.0589 36.6177 21.0589Z" fill="#FDFDFD"/>
<path d="M28.4999 45.4119H44.7352C45.547 45.4119 46.0882 44.8707 46.0882 44.0589V42.0295C46.0882 39.3236 43.9234 36.6178 42.1646 35.1295C42.5705 34.3178 42.7058 33.506 42.7058 32.5589C42.7058 29.1766 39.9999 26.4707 36.6176 26.4707C33.2352 26.4707 30.5293 29.1766 30.5293 32.5589C30.5293 33.506 30.7999 34.3178 31.0705 35.1295C29.0411 36.6178 27.147 39.0531 27.147 42.0295V44.0589C27.147 44.8707 27.8234 45.4119 28.4999 45.4119ZM36.6176 29.1766C38.5117 29.1766 39.9999 30.6648 39.9999 32.5589C39.9999 34.4531 38.5117 35.9413 36.6176 35.9413C34.7234 35.9413 33.2352 34.4531 33.2352 32.5589C33.2352 30.6648 34.8587 29.1766 36.6176 29.1766ZM29.8529 42.0295C29.8529 40.1354 31.2058 38.3766 32.8293 37.2942C33.9117 38.106 35.1293 38.6472 36.6176 38.6472C38.1058 38.6472 39.3234 38.106 40.4058 37.2942C41.6234 38.2413 43.3823 40.406 43.3823 42.0295V42.706H29.8529V42.0295Z" fill="#FDFDFD"/>
</svg>
