<svg width="80" height="80" viewBox="0 0 80 80" fill="none" xmlns="http://www.w3.org/2000/svg">
<rect width="80" height="80" rx="40" fill="#433878"/>
<g clip-path="url(#clip0_752_14817)">
<path d="M36.1696 55.3255C39.8621 55.3283 43.4759 54.2582 46.5714 52.2451L47.6693 53.3452C47.8843 53.5605 48.1587 53.7066 48.4573 53.7648C48.7559 53.823 49.0651 53.7906 49.3452 53.6718L57.7637 62.088C58.0478 62.3741 58.3857 62.6013 58.7578 62.7564C59.13 62.9116 59.5292 62.9917 59.9324 62.9921C60.3356 62.9925 60.7349 62.9133 61.1074 62.7589C61.4799 62.6045 61.8182 62.3781 62.1029 62.0926C63.2991 60.8953 63.2991 58.9554 62.1029 57.758L53.6821 49.3373C53.8005 49.0567 53.8326 48.7473 53.7745 48.4484C53.7163 48.1496 53.5705 47.8748 53.3556 47.6591L52.2555 46.559C57.0074 39.1991 56.1617 29.5534 50.2013 23.1328C44.2408 16.7122 34.6846 15.1524 26.9922 19.3448C19.2997 23.5371 15.4309 32.4133 17.5962 40.9022C19.7614 49.3911 27.409 55.3298 36.1696 55.3255ZM61.0142 61.0132C60.4085 61.5906 59.4556 61.5885 58.8523 61.0086L50.5127 52.669L52.6792 50.5025L61.0188 58.8421C61.1613 58.9848 61.2742 59.1542 61.3512 59.3407C61.4281 59.5271 61.4674 59.7269 61.467 59.9286C61.4666 60.1302 61.4264 60.3299 61.3487 60.516C61.271 60.7021 61.1573 60.871 61.0142 61.0132ZM52.2691 48.7423L48.7556 52.2589L47.841 51.3465C49.1597 50.3307 50.3417 49.1487 51.3576 47.83L52.2691 48.7423ZM36.1696 18.5267C45.9079 18.5267 53.8024 26.4212 53.8024 36.1595C53.8024 45.8978 45.9079 53.7923 36.1696 53.7923C26.4313 53.7923 18.5369 45.8977 18.5369 36.1594C18.5479 26.4257 26.4359 18.5376 36.1696 18.5267Z" fill="#FDFDFD"/>
<path d="M36.1693 52.2589C45.0608 52.2589 52.2688 45.0508 52.2688 36.1594C52.2688 27.2679 45.0608 20.0599 36.1693 20.0599C27.2779 20.0599 20.0698 27.2679 20.0698 36.1594C20.0796 45.0469 27.2819 52.2492 36.1693 52.2589ZM36.1693 21.5932C44.214 21.5932 50.7355 28.1147 50.7355 36.1594C50.7355 44.204 44.2139 50.7256 36.1693 50.7256C28.1247 50.7256 21.6031 44.2041 21.6031 36.1594C21.612 28.1184 28.1284 21.6021 36.1693 21.5932Z" fill="#FDFDFD"/>
<path fill-rule="evenodd" clip-rule="evenodd" d="M33.8697 24.8821C33.9193 24.8821 33.9689 24.8772 34.0176 24.8676C34.7266 24.7293 35.4473 24.6597 36.1696 24.6598C36.3729 24.6598 36.5679 24.579 36.7117 24.4352C36.8554 24.2914 36.9362 24.0965 36.9362 23.8931C36.9362 23.6898 36.8554 23.4948 36.7117 23.3511C36.5679 23.2073 36.3729 23.1265 36.1696 23.1265C35.3482 23.1265 34.5286 23.2059 33.7225 23.3634C33.5359 23.4003 33.3696 23.5053 33.256 23.658C33.1425 23.8106 33.0898 24.0001 33.1081 24.1894C33.1265 24.3788 33.2146 24.5546 33.3553 24.6826C33.4961 24.8106 33.6794 24.8817 33.8697 24.8821ZM31.1397 25.8243C31.3227 25.735 31.4627 25.5767 31.529 25.3842C31.5953 25.1917 31.5823 24.9807 31.4931 24.7977C31.4038 24.6148 31.2455 24.4747 31.053 24.4084C30.8605 24.3422 30.6496 24.3551 30.4666 24.4443C25.9993 26.6433 23.1607 31.1803 23.1367 36.1594C23.1367 36.5828 23.4799 36.926 23.9033 36.926C24.3268 36.926 24.6699 36.5828 24.6699 36.1594C24.692 31.7662 27.1975 27.7636 31.1397 25.8243Z" fill="#FDFDFD"/>
<path d="M35.1109 26.5979L27.4882 33.4463C27.2532 33.6546 27.0875 33.9299 27.0135 34.2351C26.9395 34.5403 26.9607 34.8608 27.0742 35.1536C27.1855 35.4438 27.381 35.6941 27.6357 35.8722C27.8903 36.0504 28.1925 36.1482 28.5032 36.1533V43.8259C28.5032 44.6727 29.1897 45.3592 30.0365 45.3592H42.3028C43.1496 45.3592 43.8361 44.6727 43.8361 43.8259V36.1533C44.1465 36.1485 44.4483 36.051 44.7029 35.8735C44.9576 35.6959 45.1533 35.4463 45.2651 35.1567C45.3786 34.8639 45.3997 34.5433 45.3257 34.2381C45.2517 33.9329 45.0861 33.6577 44.8511 33.4494L43.8361 32.534V28.493C43.8361 27.6462 43.1496 26.9597 42.3028 26.9597H40.7694C39.9577 26.9629 39.2892 27.5982 39.2446 28.4086L37.2283 26.5971C36.6264 26.0552 35.7124 26.0554 35.1109 26.5979ZM36.2034 27.7379L43.7923 34.6262H36.1696L28.5132 34.5863L36.2034 27.7379ZM35.403 43.8259V41.526C35.403 41.3226 35.4837 41.1277 35.6275 40.9839C35.7713 40.8401 35.9663 40.7594 36.1696 40.7594C36.3729 40.7594 36.5679 40.8401 36.7117 40.9839C36.8554 41.1277 36.9362 41.3226 36.9362 41.526V43.8259H35.403ZM38.4695 43.8259V41.526C38.4695 40.2558 37.4398 39.226 36.1696 39.226C34.8993 39.226 33.8697 40.2558 33.8697 41.526V43.8259H30.0364V36.1595H42.3028V43.8259H38.4695ZM40.7694 28.493H42.3028V31.1563L40.7694 29.7764V28.493Z" fill="#FDFDFD"/>
</g>
<defs>
<clipPath id="clip0_752_14817">
<rect width="46" height="46" fill="white" transform="translate(17 17)"/>
</clipPath>
</defs>
</svg>
