<svg width="28" height="28" viewBox="0 0 28 28" fill="none" xmlns="http://www.w3.org/2000/svg">
<path d="M14 0C6.26801 0 0 6.26801 0 14C0 21.732 6.26801 28 14 28C21.732 28 28 21.732 28 14C27.991 6.27174 21.7283 0.00900056 14 0Z" fill="#FDFDFD"/>
<path d="M21.7417 9.87015L13.7827 20.5378C13.5928 20.7865 13.3098 20.9495 12.9971 20.9901C12.6845 21.0307 12.3684 20.9455 12.1199 20.7537L6.43641 16.2657C5.93488 15.8693 5.85367 15.1464 6.25503 14.651C6.65638 14.1557 7.38832 14.0754 7.88985 14.4719L12.6292 18.2168L19.8697 8.51158C20.1071 8.15969 20.5211 7.96514 20.9473 8.00517C21.3735 8.0452 21.743 8.31333 21.909 8.7031C22.075 9.09288 22.0107 9.54123 21.7417 9.87015Z" fill="url(#paint0_linear_752_12864)"/>
<defs>
<linearGradient id="paint0_linear_752_12864" x1="14" y1="8" x2="14" y2="21" gradientUnits="userSpaceOnUse">
<stop stop-color="#5243C2"/>
<stop offset="1" stop-color="#27205C"/>
</linearGradient>
</defs>
</svg>
