<svg width="328" height="60" viewBox="0 0 328 60" fill="none" xmlns="http://www.w3.org/2000/svg">
<rect width="60" height="60" rx="20" fill="#2C2C2C"/>
<rect width="60" height="60" rx="6" fill="#433878"/>
<path d="M30 16.25C23.7969 16.25 18.75 21.2969 18.75 27.5C18.75 33.7031 23.7969 38.75 30 38.75C36.2031 38.75 41.25 33.7031 41.25 27.5C41.25 21.2969 36.2031 16.25 30 16.25ZM30 37.5C24.4863 37.5 20 33.0138 20 27.5C20 21.9863 24.4863 17.5 30 17.5C35.5138 17.5 40 21.9863 40 27.5C40 33.0138 35.5138 37.5 30 37.5Z" fill="#FDFDFD"/>
<path d="M38.3811 26.6819C38.3402 26.5565 38.2607 26.4473 38.154 26.3698C38.0472 26.2923 37.9187 26.2506 37.7868 26.2507H35.7305L35.0955 24.295C35.0547 24.1695 34.9752 24.0602 34.8685 23.9826C34.7617 23.9051 34.6331 23.8633 34.5011 23.8633C34.3692 23.8633 34.2406 23.9051 34.1338 23.9826C34.027 24.0602 33.9476 24.1695 33.9068 24.295L33.2711 26.2507H31.2149C31.0827 26.2505 30.9539 26.2921 30.8469 26.3697C30.7399 26.4473 30.6603 26.5569 30.6195 26.6826C30.5787 26.8083 30.5787 26.9437 30.6197 27.0693C30.6606 27.195 30.7403 27.3044 30.8474 27.3819L32.5105 28.59L31.8761 30.5463C31.8357 30.6717 31.836 30.8068 31.877 30.932C31.9179 31.0573 31.9975 31.1665 32.1042 31.2438C32.2109 31.3212 32.3393 31.3629 32.4711 31.3629C32.6029 31.3628 32.7313 31.3212 32.838 31.2438L34.5011 30.0357L36.1643 31.2438C36.271 31.3217 36.3997 31.3637 36.5319 31.3638C36.664 31.364 36.7928 31.3222 36.8997 31.2446C37.0067 31.167 37.0863 31.0574 37.1271 30.9318C37.1678 30.8061 37.1677 30.6707 37.1268 30.545L36.4911 28.59L38.1536 27.3813C38.2605 27.3038 38.3401 27.1944 38.3809 27.0689C38.4218 26.9434 38.4219 26.8075 38.3811 26.6819ZM35.3886 27.8457C35.2819 27.9233 35.2025 28.0327 35.1617 28.1582C35.1209 28.2837 35.121 28.4189 35.1618 28.5444L35.343 29.1025L34.868 28.7575C34.7613 28.68 34.6327 28.6383 34.5008 28.6383C34.3689 28.6383 34.2404 28.68 34.1336 28.7575L33.6586 29.1025L33.8399 28.5438C33.8805 28.4184 33.8805 28.2833 33.8397 28.1579C33.799 28.0325 33.7196 27.9232 33.613 27.8457L33.138 27.5007H33.7255C33.8574 27.5007 33.986 27.459 34.0927 27.3815C34.1995 27.3041 34.279 27.1948 34.3199 27.0694L34.5011 26.5107L34.6824 27.0688C34.7232 27.1943 34.8026 27.3037 34.9094 27.3813C35.0162 27.4589 35.1448 27.5007 35.2768 27.5007H35.8636L35.3886 27.8457ZM28.7799 26.2507H26.7236L26.088 24.295C26.0472 24.1695 25.9677 24.0602 25.861 23.9826C25.7542 23.9051 25.6256 23.8633 25.4936 23.8633C25.3617 23.8633 25.2331 23.9051 25.1263 23.9826C25.0195 24.0602 24.9401 24.1695 24.8993 24.295L24.2636 26.2507H22.208C22.0759 26.2505 21.947 26.2921 21.84 26.3697C21.7331 26.4473 21.6534 26.5569 21.6126 26.6826C21.5718 26.8083 21.5718 26.9437 21.6128 27.0693C21.6537 27.195 21.7335 27.3044 21.8405 27.3819L23.5036 28.59L22.8686 30.5457C22.828 30.6712 22.8282 30.8063 22.8691 30.9317C22.9099 31.0571 22.9894 31.1664 23.0962 31.2439C23.2029 31.3213 23.3315 31.3631 23.4634 31.363C23.5953 31.363 23.7238 31.3213 23.8305 31.2438L25.493 30.0357L27.1568 31.2438C27.2634 31.3218 27.392 31.3639 27.5242 31.364C27.6563 31.3641 27.785 31.3222 27.8918 31.2444C27.9985 31.1668 28.078 31.0574 28.1187 30.9319C28.1595 30.8064 28.1594 30.6712 28.1186 30.5457L27.4843 28.5894L29.1468 27.3813C29.2535 27.3038 29.3329 27.1945 29.3737 27.0691C29.4145 26.9436 29.4146 26.8085 29.374 26.6831C29.3333 26.5576 29.254 26.4482 29.1474 26.3705C29.0408 26.2929 28.9118 26.2509 28.7799 26.2507ZM26.3818 27.8457C26.2751 27.9232 26.1958 28.0325 26.155 28.1579C26.1143 28.2833 26.1142 28.4184 26.1549 28.5438L26.3361 29.1025L25.8611 28.7575C25.7543 28.6799 25.6257 28.6381 25.4936 28.6381C25.3616 28.6381 25.2329 28.6799 25.1261 28.7575L24.6518 29.1019L24.833 28.5444C24.8738 28.4189 24.8738 28.2837 24.8331 28.1582C24.7923 28.0327 24.7129 27.9233 24.6061 27.8457L24.1311 27.5007H24.718C24.8498 27.5006 24.9782 27.4588 25.0848 27.3814C25.1915 27.3039 25.2709 27.1947 25.3118 27.0694L25.493 26.5107L25.6749 27.0688C25.7157 27.1943 25.7951 27.3037 25.9019 27.3813C26.0087 27.4589 26.1373 27.5007 26.2693 27.5007H26.8568L26.3818 27.8457Z" fill="#FDFDFD"/>
<path d="M46.6926 40.8081L41.7089 35.8244C43.4454 33.3962 44.378 30.4852 44.3758 27.5C44.3758 19.5738 37.9276 13.125 30.0008 13.125C22.0739 13.125 15.6258 19.5738 15.6258 27.5C15.6258 30.6013 16.6158 33.4738 18.2926 35.825L13.3089 40.8081C13.2212 40.8954 13.1614 41.0068 13.1371 41.1281C13.1129 41.2494 13.1252 41.3752 13.1725 41.4895C13.2199 41.6039 13.3001 41.7015 13.4031 41.7702C13.506 41.8388 13.627 41.8753 13.7508 41.875H18.1258V46.25C18.1255 46.3737 18.162 46.4948 18.2306 46.5977C18.2992 46.7007 18.3969 46.7809 18.5112 46.8282C18.6255 46.8756 18.7513 46.8879 18.8726 46.8636C18.994 46.8393 19.1053 46.7796 19.1926 46.6919L24.9339 40.9506C26.5108 41.5463 28.2176 41.875 30.0008 41.875C31.7839 41.875 33.4908 41.5463 35.0676 40.95L40.8089 46.6919C40.8963 46.7793 41.0076 46.8388 41.1289 46.8629C41.2501 46.887 41.3757 46.8746 41.4899 46.8273C41.6041 46.78 41.7017 46.6999 41.7704 46.5972C41.8391 46.4944 41.8757 46.3736 41.8758 46.25V41.875H46.2508C46.3745 41.8753 46.4955 41.8388 46.5984 41.7702C46.7014 41.7015 46.7816 41.6039 46.829 41.4895C46.8763 41.3752 46.8886 41.2494 46.8644 41.1281C46.8401 41.0068 46.7803 40.8954 46.6926 40.8081ZM19.3758 44.7413V41.25C19.3758 41.0842 19.3099 40.9253 19.1927 40.8081C19.0755 40.6908 18.9165 40.625 18.7508 40.625H15.2595L19.067 36.8175C20.3489 38.3215 21.9255 39.5467 23.6995 40.4175L19.3758 44.7413ZM16.8758 27.5C16.8758 20.2625 22.7633 14.375 30.0008 14.375C37.2383 14.375 43.1258 20.2625 43.1258 27.5C43.1258 34.7375 37.2383 40.625 30.0008 40.625C22.7633 40.625 16.8758 34.7375 16.8758 27.5ZM41.2508 40.625C41.085 40.625 40.926 40.6908 40.8088 40.8081C40.6916 40.9253 40.6258 41.0842 40.6258 41.25V44.7413L36.302 40.4175C38.076 39.5467 39.6526 38.3215 40.9345 36.8175L44.742 40.625H41.2508Z" fill="#FDFDFD"/>
</svg>
