<svg width="60" height="60" viewBox="0 0 60 60" fill="none" xmlns="http://www.w3.org/2000/svg">
<rect width="60" height="60" rx="20" fill="#2C2C2C"/>
<rect width="60" height="60" rx="6" fill="#433878"/>
<path d="M35.1363 38.3468C34.9648 38.3469 34.7966 38.2998 34.6501 38.2106L29.9413 35.3574L25.1913 38.1437C25.0332 38.2347 24.852 38.2775 24.6698 38.267C24.4877 38.2565 24.3126 38.1931 24.166 38.0846C24.0193 37.976 23.9076 37.8271 23.8444 37.656C23.7811 37.4848 23.7692 37.299 23.8101 37.1212L25.0682 31.7612L20.9476 28.1068C20.8104 27.9849 20.7121 27.8255 20.6647 27.6483C20.6173 27.4711 20.6229 27.2839 20.6808 27.1099C20.7388 26.9358 20.8465 26.7826 20.9907 26.6692C21.1349 26.5558 21.3091 26.4871 21.4919 26.4718L26.9782 26.0124L29.1813 20.9668C29.2543 20.7996 29.3745 20.6573 29.5271 20.5574C29.6798 20.4575 29.8583 20.4043 30.0407 20.4043H30.0476C30.231 20.4056 30.41 20.4608 30.5625 20.5629C30.7149 20.665 30.834 20.8095 30.9051 20.9787L33.0369 26.0549L38.5169 26.5918C38.6994 26.6098 38.8727 26.681 39.0151 26.7965C39.1576 26.9119 39.2631 27.0667 39.3185 27.2415C39.3739 27.4163 39.3768 27.6036 39.3269 27.78C39.277 27.9565 39.1764 28.1144 39.0376 28.2343L34.8688 31.8305L36.0519 37.2055C36.0821 37.3425 36.0812 37.4845 36.0493 37.6211C36.0173 37.7577 35.9551 37.8853 35.8672 37.9947C35.7793 38.104 35.6681 38.1923 35.5416 38.2529C35.4151 38.3135 35.2766 38.3449 35.1363 38.3449V38.3468ZM29.9488 33.328C30.1202 33.3278 30.2882 33.3749 30.4344 33.4643L33.7476 35.473L32.9176 31.688C32.8812 31.5229 32.8902 31.3511 32.9436 31.1907C32.997 31.0302 33.0927 30.8872 33.2207 30.7768L36.1582 28.2449L32.3007 27.8668C32.1325 27.8504 31.9718 27.7888 31.8357 27.6886C31.6996 27.5884 31.5931 27.4532 31.5276 27.2974L30.0276 23.7237L28.4732 27.2755C28.4055 27.4305 28.2971 27.5642 28.1596 27.6626C28.022 27.7609 27.8604 27.8203 27.6919 27.8343L23.8294 28.1574L26.7288 30.7299C26.8551 30.8423 26.9487 30.9867 26.9996 31.1479C27.0506 31.3091 27.057 31.481 27.0182 31.6455L26.1319 35.4187L29.4744 33.4574C29.6184 33.3728 29.7818 33.3281 29.9488 33.328Z" fill="#FDFDFD"/>
<path d="M30 44.6875C27.0951 44.6875 24.2554 43.8261 21.8401 42.2122C19.4247 40.5983 17.5422 38.3045 16.4305 35.6207C15.3189 32.9369 15.028 29.9837 15.5947 27.1346C16.1614 24.2855 17.5603 21.6685 19.6144 19.6144C21.6685 17.5603 24.2855 16.1614 27.1346 15.5947C29.9837 15.028 32.9369 15.3189 35.6207 16.4305C38.3045 17.5422 40.5983 19.4247 42.2122 21.8401C43.8261 24.2554 44.6875 27.0951 44.6875 30C44.683 33.894 43.1342 37.6272 40.3807 40.3807C37.6272 43.1342 33.894 44.683 30 44.6875ZM30 17.1875C27.4659 17.1875 24.9888 17.9389 22.8818 19.3468C20.7748 20.7547 19.1325 22.7557 18.1628 25.0969C17.1931 27.4381 16.9393 30.0142 17.4337 32.4996C17.9281 34.985 19.1483 37.268 20.9402 39.0598C22.7321 40.8517 25.015 42.0719 27.5004 42.5663C29.9858 43.0607 32.562 42.807 34.9031 41.8372C37.2443 40.8675 39.2454 39.2253 40.6532 37.1183C42.0611 35.0112 42.8125 32.5341 42.8125 30C42.8087 26.6031 41.4576 23.3464 39.0556 20.9444C36.6536 18.5424 33.3969 17.1913 30 17.1875Z" fill="#FDFDFD"/>
</svg>
