<svg width="60" height="60" viewBox="0 0 60 60" fill="none" xmlns="http://www.w3.org/2000/svg">
<rect width="60" height="60" rx="20" fill="#2C2C2C"/>
<rect width="60" height="60" rx="6" fill="#433878"/>
<path d="M47.0644 33.9122L30.0019 43.5622L12.9394 33.9122C12.6519 33.7616 12.317 33.7288 12.0058 33.8206C11.6945 33.9124 11.4311 34.1217 11.2713 34.4042C11.1116 34.6867 11.0679 35.0203 11.1497 35.3344C11.2314 35.6485 11.4321 35.9185 11.7094 36.0872L29.3844 46.0872C29.5723 46.1937 29.7846 46.2497 30.0006 46.2497C30.2166 46.2497 30.4289 46.1937 30.6169 46.0872L48.2944 36.0872C48.5716 35.9185 48.7723 35.6485 48.854 35.3344C48.9358 35.0203 48.8922 34.6867 48.7324 34.4042C48.5726 34.1217 48.3093 33.9124 47.998 33.8206C47.6867 33.7288 47.3519 33.7616 47.0644 33.9122Z" fill="#FDFDFD"/>
<path d="M47.0644 28.9122L30.0019 38.5622L12.9394 28.9122C12.6519 28.7616 12.317 28.7288 12.0058 28.8206C11.6945 28.9124 11.4311 29.1217 11.2713 29.4042C11.1116 29.6867 11.0679 30.0203 11.1497 30.3344C11.2314 30.6485 11.4321 30.9185 11.7094 31.0872L29.3844 41.0872C29.5723 41.1937 29.7846 41.2497 30.0006 41.2497C30.2166 41.2497 30.4289 41.1937 30.6169 41.0872L48.2944 31.0872C48.5716 30.9185 48.7723 30.6485 48.854 30.3344C48.9358 30.0203 48.8922 29.6867 48.7324 29.4042C48.5726 29.1217 48.3093 28.9124 47.998 28.8206C47.6867 28.7288 47.3519 28.7616 47.0644 28.9122Z" fill="#FDFDFD"/>
<path d="M48.2929 23.9116L30.6179 13.9116C30.4302 13.8044 30.2178 13.748 30.0017 13.748C29.7855 13.748 29.5731 13.8044 29.3854 13.9116L11.7079 23.9116C11.5155 24.0207 11.3555 24.1788 11.2442 24.3698C11.1329 24.5609 11.0742 24.778 11.0742 24.9991C11.0742 25.2203 11.1329 25.4374 11.2442 25.6285C11.3555 25.8195 11.5155 25.9776 11.7079 26.0866L29.3829 36.0866C29.5708 36.1931 29.7831 36.2491 29.9992 36.2491C30.2152 36.2491 30.4275 36.1931 30.6154 36.0866L48.2929 26.0866C48.4853 25.9776 48.6453 25.8195 48.7566 25.6285C48.8679 25.4374 48.9266 25.2203 48.9266 24.9991C48.9266 24.778 48.8679 24.5609 48.7566 24.3698C48.6453 24.1788 48.4853 24.0207 48.2929 23.9116ZM30.0004 33.5616L14.8604 24.9991L30.0004 16.4341L45.1404 24.9991L30.0004 33.5616Z" fill="#FDFDFD"/>
</svg>
