<svg width="328" height="60" viewBox="0 0 328 60" fill="none" xmlns="http://www.w3.org/2000/svg">
<rect width="60" height="60" rx="20" fill="#2C2C2C"/>
<rect width="60" height="60" rx="6" fill="#FDFDFD"/>
<path d="M29.2993 31.6075L28.0109 34.2181L25.1299 34.6367C24.8356 34.6795 24.5912 34.8856 24.4992 35.1684C24.4073 35.4513 24.484 35.7617 24.697 35.9693L26.7816 38.0014L26.2895 40.8708C26.2392 41.1639 26.3597 41.4601 26.6003 41.6349C26.8409 41.8096 27.16 41.8326 27.423 41.6944L29.9998 40.3396L32.5766 41.6944C32.7057 41.7622 32.8511 41.7926 32.9965 41.7821C33.1419 41.7716 33.2814 41.7206 33.3994 41.6349C33.5173 41.5492 33.6089 41.4322 33.6638 41.2972C33.7188 41.1622 33.7348 41.0145 33.7102 40.8708L33.218 38.0014L35.3027 35.9693C35.4071 35.8676 35.481 35.7386 35.516 35.5971C35.5509 35.4555 35.5456 35.307 35.5005 35.1684C35.4555 35.0297 35.3725 34.9064 35.261 34.8125C35.1496 34.7185 35.014 34.6576 34.8698 34.6367L31.9888 34.2181L30.7004 31.6075C30.6359 31.4768 30.5361 31.3667 30.4123 31.2897C30.2885 31.2127 30.1456 31.1719 29.9998 31.1719C29.8541 31.1719 29.7112 31.2127 29.5874 31.2897C29.4636 31.3667 29.3638 31.4768 29.2993 31.6075ZM30.7695 35.278C30.8255 35.3916 30.9084 35.4898 31.0108 35.5643C31.1133 35.6387 31.2323 35.6872 31.3577 35.7054L33.0786 35.9554L31.8334 37.1692C31.7426 37.2576 31.6748 37.3668 31.6356 37.4873C31.5965 37.6078 31.5872 37.7359 31.6087 37.8608L31.9027 39.5747L30.3634 38.7655C30.2513 38.7066 30.1265 38.6758 29.9999 38.6758C29.8732 38.6758 29.7485 38.7066 29.6363 38.7655L28.0971 39.5747L28.3911 37.8608C28.4125 37.7359 28.4033 37.6078 28.3641 37.4873C28.325 37.3668 28.2571 37.2576 28.1664 37.1692L26.9212 35.9554L28.6421 35.7054C28.7675 35.6872 28.8865 35.6387 28.989 35.5643C29.0914 35.4898 29.1743 35.3916 29.2303 35.278L29.9999 33.7186L30.7695 35.278Z" fill="#433878"/>
<path d="M19.8438 36.6406C19.8438 42.2409 24.3998 46.7969 30 46.7969C35.6002 46.7969 40.1562 42.2409 40.1562 36.6406C40.1562 31.0404 35.6002 26.4844 30 26.4844C24.3998 26.4844 19.8438 31.0404 19.8438 36.6406ZM38.5938 36.6406C38.5938 41.3792 34.7386 45.2344 30 45.2344C25.2614 45.2344 21.4062 41.3792 21.4062 36.6406C21.4062 31.902 25.2614 28.0469 30 28.0469C34.7386 28.0469 38.5938 31.902 38.5938 36.6406Z" fill="#433878"/>
<path d="M43.5099 15.4612L39.6036 10.3831C39.4572 10.1921 39.2219 10.0772 38.982 10.0781H21.0186C20.8985 10.0782 20.78 10.1057 20.6722 10.1585C20.5643 10.2114 20.47 10.2882 20.3964 10.3831L16.4901 15.4612C16.3976 15.5815 16.3421 15.7261 16.3304 15.8774C16.3188 16.0287 16.3514 16.1801 16.4244 16.3131L21.8319 26.1753C18.7217 28.6083 16.7188 32.3948 16.7188 36.6406C16.7188 43.9639 22.6768 49.9219 30.0001 49.9219C37.3233 49.9219 43.2813 43.9639 43.2813 36.6406C43.2813 32.3948 41.2784 28.6083 38.1682 26.1753L43.5758 16.3131C43.6487 16.1801 43.6813 16.0286 43.6696 15.8774C43.6579 15.7261 43.6024 15.5814 43.5099 15.4612ZM28.7085 23.4223L24.8661 16.3281H35.1312L31.2858 23.4218C30.4287 23.3384 29.5655 23.3386 28.7085 23.4223ZM35.9782 14.7656H24.0198L22.3272 11.6406H37.6722L35.9782 14.7656ZM18.0398 16.0094L20.9015 12.2891L27.0737 23.6849C25.6794 23.9998 24.3454 24.5391 23.1239 25.2816L18.0398 16.0094ZM41.7188 36.6406C41.7188 43.1023 36.4618 48.3594 30.0001 48.3594C23.5383 48.3594 18.2813 43.1023 18.2813 36.6406C18.2813 30.1789 23.5383 24.9219 30.0001 24.9219C36.4618 24.9219 41.7188 30.1789 41.7188 36.6406ZM36.8762 25.2816C35.6532 24.5381 34.3174 23.9985 32.9211 23.6838L39.0983 12.2887L41.9603 16.0094L36.8762 25.2816Z" fill="#433878"/>
</svg>
