<svg width="90" height="90" viewBox="0 0 90 90" fill="none" xmlns="http://www.w3.org/2000/svg">
<path fill-rule="evenodd" clip-rule="evenodd" d="M45.0106 7.03125C37.501 7.03069 30.1599 9.25705 23.9156 13.4288C17.6713 17.6005 12.8043 23.5302 9.93009 30.468C7.05589 37.4059 6.30358 45.0402 7.7683 52.4056C9.23301 59.771 12.849 66.5367 18.1589 71.847C23.4688 77.1573 30.2342 80.7737 37.5995 82.239C44.9648 83.7043 52.5991 82.9525 59.5372 80.0788C66.4752 77.2051 72.4053 72.3386 76.5775 66.0946C80.7497 59.8506 82.9766 52.5096 82.9766 45C82.9714 34.9322 78.9698 25.2781 71.851 18.1588C64.7322 11.0395 55.0785 7.03721 45.0106 7.03125ZM29.0975 48.9741L37.0541 56.9306C37.445 57.3232 37.9096 57.6346 38.4212 57.8472C38.9328 58.0597 39.4813 58.1691 40.0353 58.1691C40.5893 58.1691 41.1379 58.0597 41.6495 57.8472C42.1611 57.6346 42.6257 57.3232 43.0166 56.9306L60.9238 39.0347C61.669 38.235 62.0747 37.1772 62.0554 36.0843C62.0361 34.9913 61.5933 33.9485 60.8204 33.1756C60.0474 32.4026 59.0047 31.9599 57.9117 31.9406C56.8188 31.9213 55.761 32.327 54.9613 33.0722L40.041 47.9897L35.0628 43.0088C34.2631 42.2636 33.2053 41.8579 32.1124 41.8771C31.0194 41.8964 29.9767 42.3392 29.2037 43.1121C28.4308 43.8851 27.988 44.9279 27.9687 46.0208C27.9494 47.1138 28.3551 48.1715 29.1003 48.9713L29.0975 48.9741Z" fill="#433878"/>
</svg>
