<svg width="48" height="48" viewBox="0 0 48 48" fill="none" xmlns="http://www.w3.org/2000/svg">
<circle cx="24" cy="24" r="23.5" stroke="#FDFDFD"/>
<g clip-path="url(#clip0_809_258)">
<path d="M31 30.69V25.5135C31 22.7398 29.5195 21.4491 27.5455 21.4491C25.9526 21.4491 25.2386 22.3255 24.8409 22.9406V21.6613H21.8396C21.8794 22.5088 21.8396 30.69 21.8396 30.69H24.8409V25.6478C24.8409 25.3788 24.8601 25.1088 24.9398 24.9163C25.1563 24.3769 25.6503 23.8186 26.4789 23.8186C27.5652 23.8186 27.9992 24.6464 27.9992 25.86V30.6905L31 30.69ZM18.6778 20.4289C19.7239 20.4289 20.3762 19.735 20.3762 18.8683C20.3569 17.9828 19.7243 17.3091 18.6979 17.3091C17.6716 17.3091 17 17.9824 17 18.8683C17 19.735 17.6514 20.4289 18.659 20.4289H18.6778ZM20.1784 30.69V21.6613H17.1776V30.69H20.1784Z" fill="#FDFDFD"/>
</g>
<defs>
<clipPath id="clip0_809_258">
<rect width="14" height="14" fill="white" transform="translate(17 17)"/>
</clipPath>
</defs>
</svg>
