<svg width="64" height="64" viewBox="0 0 64 64" fill="none" xmlns="http://www.w3.org/2000/svg">
<circle cx="32" cy="32" r="31.5" fill="white" stroke="#E0DEF7"/>
<circle cx="32" cy="32" r="28" fill="#E0DEF7"/>
<g clip-path="url(#clip0_806_133)">
<path fill-rule="evenodd" clip-rule="evenodd" d="M18.667 32H21.6299V42.3704C21.6299 43.1562 21.9421 43.9098 22.4977 44.4655C23.0534 45.0212 23.807 45.3333 24.5928 45.3333H39.4077C40.1935 45.3333 40.9471 45.0212 41.5028 44.4655C42.0585 43.9098 42.3706 43.1562 42.3706 42.3704V32H42.3707H45.3337L32.0003 18.6667L18.667 32Z" fill="white"/>
<path d="M21.6299 32H22.6299C22.6299 31.4477 22.1822 31 21.6299 31V32ZM18.667 32L17.9599 31.2929C17.6739 31.5789 17.5883 32.009 17.7431 32.3827C17.8979 32.7563 18.2625 33 18.667 33V32ZM22.4977 44.4655L23.2048 43.7584L23.2048 43.7584L22.4977 44.4655ZM41.5028 44.4655L40.7957 43.7584L40.7957 43.7584L41.5028 44.4655ZM42.3706 32V31C41.8183 31 41.3706 31.4477 41.3706 32H42.3706ZM45.3337 32V33C45.7381 33 46.1028 32.7563 46.2575 32.3827C46.4123 32.009 46.3268 31.5789 46.0408 31.2929L45.3337 32ZM32.0003 18.6667L32.7074 17.9595C32.3169 17.569 31.6837 17.569 31.2932 17.9595L32.0003 18.6667ZM21.6299 31H18.667V33H21.6299V31ZM20.6299 32V42.3704H22.6299V32H20.6299ZM20.6299 42.3704C20.6299 43.4214 21.0474 44.4294 21.7906 45.1726L23.2048 43.7584C22.8367 43.3903 22.6299 42.891 22.6299 42.3704H20.6299ZM21.7906 45.1726C22.5338 45.9158 23.5418 46.3333 24.5928 46.3333V44.3333C24.0722 44.3333 23.5729 44.1265 23.2048 43.7584L21.7906 45.1726ZM24.5928 46.3333H39.4077V44.3333H24.5928V46.3333ZM39.4077 46.3333C40.4587 46.3333 41.4667 45.9158 42.2099 45.1726L40.7957 43.7584C40.4276 44.1265 39.9283 44.3333 39.4077 44.3333V46.3333ZM42.2099 45.1726C42.9531 44.4294 43.3706 43.4214 43.3706 42.3704H41.3706C41.3706 42.891 41.1638 43.3903 40.7957 43.7584L42.2099 45.1726ZM43.3706 42.3704V32H41.3706V42.3704H43.3706ZM42.3707 31H42.3706V33H42.3707V31ZM45.3337 31H42.3707V33H45.3337V31ZM31.2932 19.3738L44.6266 32.7071L46.0408 31.2929L32.7074 17.9595L31.2932 19.3738ZM19.3741 32.7071L32.7074 19.3738L31.2932 17.9595L17.9599 31.2929L19.3741 32.7071Z" fill="white"/>
<path d="M28 34.0002L30.6667 36.6668L36 31.3335" stroke="#7065F0" stroke-width="2" stroke-linecap="round" stroke-linejoin="round"/>
</g>
<path d="M40 40H64V52C64 58.6274 58.6274 64 52 64C45.3726 64 40 58.6274 40 52V40Z" fill="#7065F0"/>
<path d="M56.3605 46.78L52.6939 45.4066C52.3139 45.2666 51.6939 45.2666 51.3139 45.4066L47.6472 46.78C46.9405 47.0466 46.3672 47.8733 46.3672 48.6266V54.0266C46.3672 54.5666 46.7205 55.28 47.1539 55.6L50.8205 58.34C51.4672 58.8266 52.5272 58.8266 53.1739 58.34L56.8405 55.6C57.2739 55.2733 57.6272 54.5666 57.6272 54.0266V48.6266C57.6339 47.8733 57.0605 47.0466 56.3605 46.78ZM52.5005 52.58V54.3333C52.5005 54.6066 52.2739 54.8333 52.0005 54.8333C51.7272 54.8333 51.5005 54.6066 51.5005 54.3333V52.58C50.8272 52.3666 50.3339 51.74 50.3339 51C50.3339 50.08 51.0805 49.3333 52.0005 49.3333C52.9205 49.3333 53.6672 50.08 53.6672 51C53.6672 51.7466 53.1739 52.3666 52.5005 52.58Z" fill="white"/>
<defs>
<clipPath id="clip0_806_133">
<rect width="32" height="32" fill="white" transform="translate(16 16)"/>
</clipPath>
</defs>
</svg>
