<svg width="1280" height="48" viewBox="0 0 1280 48" fill="none" xmlns="http://www.w3.org/2000/svg">
<path d="M45.2778 22.3183C46.1 19.25 49.2539 16.0961 52.3222 15.2739L71.4512 10.1475C74.5194 9.32522 76.3402 11.146 75.5179 14.2142L70.3916 33.3432C69.5693 36.4115 66.4154 39.5654 63.3471 40.3877L44.2181 45.514C41.1499 46.3363 39.3291 44.5155 40.1514 41.4473L45.2778 22.3183Z" fill="#98A2B3"/>
<path d="M37.6088 14.6493C38.4311 11.5811 41.585 8.42717 44.6533 7.60491L63.7822 2.47854C66.8505 1.65628 68.6713 3.47702 67.849 6.54529L62.7226 25.6743C61.9004 28.7425 58.7465 31.8964 55.6782 32.7187L36.5492 37.8451C33.4809 38.6673 31.6602 36.8466 32.4824 33.7783L37.6088 14.6493Z" fill="#667085"/>
<path d="M93.2916 31.424H99.8716V34H90.0996V14.54H93.2916V31.424Z" fill="#475467"/>
<path d="M101.477 26.216C101.477 24.6667 101.794 23.2947 102.429 22.1C103.082 20.9054 103.96 19.9814 105.061 19.328C106.181 18.656 107.413 18.32 108.757 18.32C109.97 18.32 111.025 18.5627 111.921 19.048C112.836 19.5147 113.564 20.1027 114.105 20.812V18.572H117.325V34H114.105V31.704C113.564 32.432 112.826 33.0387 111.893 33.524C110.96 34.0094 109.896 34.252 108.701 34.252C107.376 34.252 106.162 33.916 105.061 33.244C103.96 32.5534 103.082 31.6014 102.429 30.388C101.794 29.156 101.477 27.7654 101.477 26.216ZM114.105 26.272C114.105 25.208 113.881 24.284 113.433 23.5C113.004 22.716 112.434 22.1187 111.725 21.708C111.016 21.2974 110.25 21.092 109.429 21.092C108.608 21.092 107.842 21.2974 107.133 21.708C106.424 22.1 105.845 22.688 105.397 23.472C104.968 24.2374 104.753 25.152 104.753 26.216C104.753 27.28 104.968 28.2134 105.397 29.016C105.845 29.8187 106.424 30.4347 107.133 30.864C107.861 31.2747 108.626 31.48 109.429 31.48C110.25 31.48 111.016 31.2747 111.725 30.864C112.434 30.4534 113.004 29.856 113.433 29.072C113.881 28.2694 114.105 27.336 114.105 26.272Z" fill="#475467"/>
<path d="M135.406 18.572L125.942 41.252H122.638L125.774 33.748L119.698 18.572H123.254L127.594 30.332L132.102 18.572H135.406Z" fill="#475467"/>
<path d="M151.954 25.908C151.954 26.4867 151.917 27.0094 151.842 27.476H140.054C140.148 28.708 140.605 29.6974 141.426 30.444C142.248 31.1907 143.256 31.564 144.45 31.564C146.168 31.564 147.381 30.8454 148.09 29.408H151.534C151.068 30.8267 150.218 31.9934 148.986 32.908C147.773 33.804 146.261 34.252 144.45 34.252C142.976 34.252 141.65 33.9254 140.474 33.272C139.317 32.6 138.402 31.6667 137.73 30.472C137.077 29.2587 136.75 27.8587 136.75 26.272C136.75 24.6854 137.068 23.2947 137.702 22.1C138.356 20.8867 139.261 19.9534 140.418 19.3C141.594 18.6467 142.938 18.32 144.45 18.32C145.906 18.32 147.204 18.6374 148.342 19.272C149.481 19.9067 150.368 20.8027 151.002 21.96C151.637 23.0987 151.954 24.4147 151.954 25.908ZM148.622 24.9C148.604 23.724 148.184 22.7814 147.362 22.072C146.541 21.3627 145.524 21.008 144.31 21.008C143.209 21.008 142.266 21.3627 141.482 22.072C140.698 22.7627 140.232 23.7054 140.082 24.9H148.622Z" fill="#475467"/>
<path d="M158.288 20.812C158.754 20.028 159.37 19.4214 160.136 18.992C160.92 18.544 161.844 18.32 162.908 18.32V21.624H162.096C160.845 21.624 159.893 21.9414 159.24 22.576C158.605 23.2107 158.288 24.312 158.288 25.88V34H155.096V18.572H158.288V20.812Z" fill="#475467"/>
<path d="M171.442 34.252C170.228 34.252 169.136 34.0374 168.166 33.608C167.214 33.16 166.458 32.5627 165.898 31.816C165.338 31.0507 165.039 30.2014 165.002 29.268H168.306C168.362 29.9214 168.67 30.472 169.23 30.92C169.808 31.3494 170.527 31.564 171.386 31.564C172.282 31.564 172.972 31.396 173.458 31.06C173.962 30.7054 174.214 30.2574 174.214 29.716C174.214 29.1374 173.934 28.708 173.374 28.428C172.832 28.148 171.964 27.84 170.77 27.504C169.612 27.1867 168.67 26.8787 167.942 26.58C167.214 26.2814 166.579 25.824 166.038 25.208C165.515 24.592 165.254 23.78 165.254 22.772C165.254 21.9507 165.496 21.204 165.982 20.532C166.467 19.8414 167.158 19.3 168.054 18.908C168.968 18.516 170.014 18.32 171.19 18.32C172.944 18.32 174.354 18.768 175.418 19.664C176.5 20.5414 177.079 21.7454 177.154 23.276H173.962C173.906 22.5854 173.626 22.0347 173.122 21.624C172.618 21.2134 171.936 21.008 171.078 21.008C170.238 21.008 169.594 21.1667 169.146 21.484C168.698 21.8014 168.474 22.2214 168.474 22.744C168.474 23.1547 168.623 23.5 168.922 23.78C169.22 24.06 169.584 24.284 170.014 24.452C170.443 24.6014 171.078 24.7974 171.918 25.04C173.038 25.3387 173.952 25.6467 174.662 25.964C175.39 26.2627 176.015 26.7107 176.538 27.308C177.06 27.9054 177.331 28.6987 177.35 29.688C177.35 30.5654 177.107 31.3494 176.622 32.04C176.136 32.7307 175.446 33.272 174.55 33.664C173.672 34.056 172.636 34.252 171.442 34.252Z" fill="#475467"/>
<rect x="270.75" y="19.2002" width="9.59998" height="9.59999" fill="#667085"/>
<rect x="299.55" y="28.7998" width="9.6" height="9.59999" transform="rotate(180 299.55 28.7998)" fill="#667085"/>
<path d="M280.35 19.2001L289.95 9.6001V19.2001L280.35 28.8001V19.2001Z" fill="#D0D5DD"/>
<path d="M289.95 28.7999L280.35 38.3999L280.35 28.7999L289.95 19.1999L289.95 28.7999Z" fill="#98A2B3"/>
<path d="M270.75 19.2L289.95 0V9.59999L280.35 19.2H270.75Z" fill="#667085"/>
<path d="M299.55 28.8L280.35 48L280.35 38.4L289.95 28.8L299.55 28.8Z" fill="#667085"/>
<path d="M320.458 34.2798C318.946 34.2798 317.481 34.0651 316.062 33.6358C314.662 33.2065 313.552 32.6371 312.73 31.9278L313.99 29.0998C314.793 29.7345 315.773 30.2571 316.93 30.6678C318.106 31.0598 319.282 31.2558 320.458 31.2558C321.914 31.2558 322.997 31.0225 323.706 30.5558C324.434 30.0891 324.798 29.4731 324.798 28.7078C324.798 28.1478 324.593 27.6905 324.182 27.3358C323.79 26.9625 323.286 26.6731 322.67 26.4678C322.054 26.2625 321.214 26.0291 320.15 25.7678C318.657 25.4131 317.444 25.0585 316.51 24.7038C315.596 24.3491 314.802 23.7985 314.13 23.0518C313.477 22.2865 313.15 21.2598 313.15 19.9718C313.15 18.8891 313.44 17.9091 314.018 17.0318C314.616 16.1358 315.502 15.4265 316.678 14.9038C317.873 14.3811 319.329 14.1198 321.046 14.1198C322.241 14.1198 323.417 14.2691 324.574 14.5678C325.732 14.8665 326.73 15.2958 327.57 15.8558L326.422 18.6838C325.564 18.1798 324.668 17.7971 323.734 17.5358C322.801 17.2745 321.896 17.1438 321.018 17.1438C319.581 17.1438 318.508 17.3865 317.798 17.8718C317.108 18.3571 316.762 19.0011 316.762 19.8038C316.762 20.3638 316.958 20.8211 317.35 21.1758C317.761 21.5305 318.274 21.8105 318.89 22.0158C319.506 22.2211 320.346 22.4545 321.41 22.7158C322.866 23.0518 324.061 23.4065 324.994 23.7798C325.928 24.1345 326.721 24.6851 327.374 25.4318C328.046 26.1785 328.382 27.1865 328.382 28.4558C328.382 29.5385 328.084 30.5185 327.486 31.3958C326.908 32.2731 326.021 32.9731 324.826 33.4958C323.632 34.0185 322.176 34.2798 320.458 34.2798Z" fill="#475467"/>
<path d="M331.656 19.0478H335.156V33.9998H331.656V19.0478ZM333.42 16.5838C332.785 16.5838 332.253 16.3878 331.824 15.9958C331.395 15.5851 331.18 15.0811 331.18 14.4838C331.18 13.8865 331.395 13.3918 331.824 12.9998C332.253 12.5891 332.785 12.3838 333.42 12.3838C334.055 12.3838 334.587 12.5798 335.016 12.9718C335.445 13.3451 335.66 13.8211 335.66 14.3998C335.66 15.0158 335.445 15.5385 335.016 15.9678C334.605 16.3785 334.073 16.5838 333.42 16.5838Z" fill="#475467"/>
<path d="M344.37 34.1958C343.156 34.1958 341.971 34.0371 340.814 33.7198C339.656 33.4025 338.732 33.0011 338.042 32.5158L339.386 29.8558C340.058 30.3038 340.86 30.6678 341.794 30.9478C342.746 31.2091 343.679 31.3398 344.594 31.3398C346.684 31.3398 347.73 30.7891 347.73 29.6878C347.73 29.1651 347.459 28.8011 346.918 28.5958C346.395 28.3905 345.546 28.1945 344.37 28.0078C343.138 27.8211 342.13 27.6065 341.346 27.3638C340.58 27.1211 339.908 26.7011 339.33 26.1038C338.77 25.4878 338.49 24.6385 338.49 23.5558C338.49 22.1371 339.078 21.0078 340.254 20.1678C341.448 19.3091 343.054 18.8798 345.07 18.8798C346.096 18.8798 347.123 19.0011 348.15 19.2438C349.176 19.4678 350.016 19.7758 350.67 20.1678L349.326 22.8278C348.056 22.0811 346.628 21.7078 345.042 21.7078C344.015 21.7078 343.231 21.8665 342.69 22.1838C342.167 22.4825 341.906 22.8838 341.906 23.3878C341.906 23.9478 342.186 24.3491 342.746 24.5918C343.324 24.8158 344.211 25.0305 345.406 25.2358C346.6 25.4225 347.58 25.6371 348.346 25.8798C349.111 26.1225 349.764 26.5331 350.306 27.1118C350.866 27.6905 351.146 28.5118 351.146 29.5758C351.146 30.9758 350.539 32.0958 349.326 32.9358C348.112 33.7758 346.46 34.1958 344.37 34.1958Z" fill="#475467"/>
<path d="M367.886 19.0478L360.886 35.2038C360.233 36.8278 359.44 37.9665 358.506 38.6198C357.573 39.2918 356.444 39.6278 355.118 39.6278C354.372 39.6278 353.634 39.5065 352.906 39.2638C352.178 39.0211 351.581 38.6851 351.114 38.2558L352.514 35.6798C352.85 35.9971 353.242 36.2491 353.69 36.4358C354.157 36.6225 354.624 36.7158 355.09 36.7158C355.706 36.7158 356.21 36.5571 356.602 36.2398C357.013 35.9225 357.386 35.3905 357.722 34.6438L357.974 34.0558L351.45 19.0478H355.09L359.794 30.1078L364.526 19.0478H367.886Z" fill="#475467"/>
<path d="M378.362 18.8798C379.818 18.8798 381.115 19.1971 382.254 19.8318C383.411 20.4665 384.316 21.3625 384.97 22.5198C385.623 23.6771 385.95 25.0118 385.95 26.5238C385.95 28.0358 385.623 29.3798 384.97 30.5558C384.316 31.7131 383.411 32.6091 382.254 33.2438C381.115 33.8785 379.818 34.1958 378.362 34.1958C376.346 34.1958 374.75 33.5238 373.574 32.1798V39.4318H370.074V19.0478H373.406V21.0078C373.984 20.2985 374.694 19.7665 375.534 19.4118C376.392 19.0571 377.335 18.8798 378.362 18.8798ZM377.97 31.1998C379.258 31.1998 380.312 30.7705 381.134 29.9118C381.974 29.0531 382.394 27.9238 382.394 26.5238C382.394 25.1238 381.974 23.9945 381.134 23.1358C380.312 22.2771 379.258 21.8478 377.97 21.8478C377.13 21.8478 376.374 22.0438 375.702 22.4358C375.03 22.8091 374.498 23.3505 374.106 24.0598C373.714 24.7691 373.518 25.5905 373.518 26.5238C373.518 27.4571 373.714 28.2785 374.106 28.9878C374.498 29.6971 375.03 30.2478 375.702 30.6398C376.374 31.0131 377.13 31.1998 377.97 31.1998Z" fill="#475467"/>
<path d="M397.753 18.8798C399.638 18.8798 401.15 19.4305 402.289 20.5318C403.428 21.6331 403.997 23.2665 403.997 25.4318V33.9998H400.497V25.8798C400.497 24.5731 400.189 23.5931 399.573 22.9398C398.957 22.2678 398.08 21.9318 396.941 21.9318C395.653 21.9318 394.636 22.3238 393.889 23.1078C393.142 23.8731 392.769 24.9838 392.769 26.4398V33.9998H389.269V13.2238H392.769V20.7838C393.348 20.1678 394.057 19.7011 394.897 19.3838C395.756 19.0478 396.708 18.8798 397.753 18.8798Z" fill="#475467"/>
<path d="M422.913 19.0478V33.9998H419.581V32.0958C419.021 32.7678 418.321 33.2905 417.481 33.6638C416.641 34.0185 415.736 34.1958 414.765 34.1958C412.768 34.1958 411.19 33.6451 410.033 32.5438C408.894 31.4238 408.325 29.7718 408.325 27.5878V19.0478H411.825V27.1118C411.825 28.4558 412.124 29.4638 412.721 30.1358C413.337 30.7891 414.205 31.1158 415.325 31.1158C416.576 31.1158 417.565 30.7331 418.293 29.9678C419.04 29.1838 419.413 28.0638 419.413 26.6078V19.0478H422.913Z" fill="#475467"/>
<path d="M432.116 34.1958C430.902 34.1958 429.717 34.0371 428.56 33.7198C427.402 33.4025 426.478 33.0011 425.788 32.5158L427.132 29.8558C427.804 30.3038 428.606 30.6678 429.54 30.9478C430.492 31.2091 431.425 31.3398 432.34 31.3398C434.43 31.3398 435.476 30.7891 435.476 29.6878C435.476 29.1651 435.205 28.8011 434.664 28.5958C434.141 28.3905 433.292 28.1945 432.116 28.0078C430.884 27.8211 429.876 27.6065 429.092 27.3638C428.326 27.1211 427.654 26.7011 427.076 26.1038C426.516 25.4878 426.236 24.6385 426.236 23.5558C426.236 22.1371 426.824 21.0078 428 20.1678C429.194 19.3091 430.8 18.8798 432.816 18.8798C433.842 18.8798 434.869 19.0011 435.896 19.2438C436.922 19.4678 437.762 19.7758 438.416 20.1678L437.072 22.8278C435.802 22.0811 434.374 21.7078 432.788 21.7078C431.761 21.7078 430.977 21.8665 430.436 22.1838C429.913 22.4825 429.652 22.8838 429.652 23.3878C429.652 23.9478 429.932 24.3491 430.492 24.5918C431.07 24.8158 431.957 25.0305 433.152 25.2358C434.346 25.4225 435.326 25.6371 436.092 25.8798C436.857 26.1225 437.51 26.5331 438.052 27.1118C438.612 27.6905 438.892 28.5118 438.892 29.5758C438.892 30.9758 438.285 32.0958 437.072 32.9358C435.858 33.7758 434.206 34.1958 432.116 34.1958Z" fill="#475467"/>
<path d="M548.214 33.4284C556.893 33.4284 563.928 26.3929 563.928 17.7141C563.928 16.7306 563.838 15.7681 563.665 14.8345C562.732 14.6617 561.769 14.5713 560.786 14.5713C552.107 14.5713 545.071 21.6068 545.071 30.2856C545.071 31.2692 545.162 32.2317 545.335 33.1652C546.268 33.3381 547.231 33.4284 548.214 33.4284Z" fill="#667085"/>
<path fill-rule="evenodd" clip-rule="evenodd" d="M545.335 33.1653C538.031 31.8127 532.5 25.4095 532.5 17.7143C532.5 9.03553 539.536 2 548.214 2C555.909 2 562.313 7.53118 563.665 14.8347C562.732 14.6618 561.769 14.5714 560.786 14.5714C552.107 14.5714 545.071 21.607 545.071 30.2857C545.071 31.2693 545.162 32.2318 545.335 33.1653Z" fill="#667085"/>
<path fill-rule="evenodd" clip-rule="evenodd" d="M548.215 33.4284C556.893 33.4284 563.929 26.3928 563.929 17.7141C563.929 16.7305 563.838 15.768 563.666 14.8345C570.969 16.187 576.5 22.5903 576.5 30.2855C576.5 38.9643 569.465 45.9998 560.786 45.9998C553.091 45.9998 546.688 40.4686 545.335 33.1651C546.268 33.338 547.231 33.4284 548.215 33.4284Z" fill="#98A2B3"/>
<path d="M606.728 28.9042C606.168 30.7148 605.188 32.0682 603.788 32.9642C602.388 33.8415 600.755 34.2802 598.888 34.2802C597.059 34.2802 595.472 33.8975 594.128 33.1322C592.803 32.3668 591.776 31.2748 591.048 29.8562C590.339 28.4375 589.984 26.7388 589.984 24.7602C589.984 22.7815 590.348 21.0828 591.076 19.6642C591.804 18.2455 592.831 17.1535 594.156 16.3882C595.482 15.6228 597.04 15.2402 598.832 15.2402C600.718 15.2402 602.332 15.6415 603.676 16.4442C605.039 17.2282 605.972 18.4228 606.476 20.0282L602.976 21.5122C602.659 20.3922 602.174 19.5988 601.52 19.1322C600.867 18.6468 600.027 18.4042 599 18.4042C597.47 18.4042 596.247 18.9548 595.332 20.0562C594.436 21.1388 593.988 22.7068 593.988 24.7602C593.988 26.7948 594.418 28.3628 595.276 29.4642C596.135 30.5655 597.376 31.1162 599 31.1162C600.008 31.1162 600.876 30.8455 601.604 30.3042C602.351 29.7628 602.874 28.9415 603.172 27.8402L606.728 28.9042Z" fill="#475467"/>
<path d="M611.562 17.9842C609.975 17.9842 609.182 17.3028 609.182 15.9402C609.182 14.5588 609.975 13.8682 611.562 13.8682C613.148 13.8682 613.942 14.5588 613.942 15.9402C613.942 17.3028 613.148 17.9842 611.562 17.9842ZM613.466 20.0002V34.0002H609.63V20.0002H613.466Z" fill="#475467"/>
<path d="M617.532 34.0002V20.0002H620.864L621.116 22.7442C621.471 21.7922 622.003 21.0548 622.712 20.5322C623.44 19.9908 624.355 19.7202 625.456 19.7202C626.109 19.7202 626.613 19.8228 626.968 20.0282L626.52 23.2482C626.333 23.1922 626.1 23.1455 625.82 23.1082C625.559 23.0522 625.213 23.0242 624.784 23.0242C624.205 23.0242 623.655 23.1642 623.132 23.4442C622.628 23.7055 622.208 24.1162 621.872 24.6762C621.536 25.2175 621.368 25.9082 621.368 26.7482V34.0002H617.532Z" fill="#475467"/>
<path d="M635.427 19.7202C637.294 19.7202 638.74 20.1215 639.767 20.9242C640.812 21.7268 641.503 22.6975 641.839 23.8362L638.255 25.1242C637.882 23.4255 636.958 22.5762 635.483 22.5762C634.419 22.5762 633.588 22.9495 632.991 23.6962C632.412 24.4428 632.123 25.5535 632.123 27.0282C632.123 28.5215 632.422 29.6322 633.019 30.3602C633.635 31.0695 634.466 31.4242 635.511 31.4242C637.135 31.4242 638.106 30.5935 638.423 28.9322L641.895 30.0522C641.578 31.3028 640.868 32.3202 639.767 33.1042C638.684 33.8882 637.275 34.2802 635.539 34.2802C634.083 34.2802 632.804 33.9908 631.703 33.4122C630.62 32.8335 629.78 32.0028 629.183 30.9202C628.586 29.8375 628.287 28.5308 628.287 27.0002C628.287 25.4695 628.586 24.1628 629.183 23.0802C629.799 21.9975 630.639 21.1668 631.703 20.5882C632.786 20.0095 634.027 19.7202 635.427 19.7202Z" fill="#475467"/>
<path d="M651.26 19.7202C652.66 19.7202 653.901 20.0095 654.984 20.5882C656.066 21.1668 656.906 21.9975 657.504 23.0802C658.12 24.1628 658.428 25.4695 658.428 27.0002C658.428 28.5308 658.12 29.8375 657.504 30.9202C656.906 32.0028 656.066 32.8335 654.984 33.4122C653.901 33.9908 652.66 34.2802 651.26 34.2802C649.841 34.2802 648.59 33.9908 647.508 33.4122C646.444 32.8335 645.604 32.0028 644.988 30.9202C644.39 29.8375 644.092 28.5308 644.092 27.0002C644.092 25.4695 644.39 24.1628 644.988 23.0802C645.604 21.9975 646.444 21.1668 647.508 20.5882C648.59 20.0095 649.841 19.7202 651.26 19.7202ZM651.26 22.5762C650.214 22.5762 649.393 22.9495 648.796 23.6962C648.217 24.4242 647.928 25.5255 647.928 27.0002C647.928 28.4748 648.217 29.5855 648.796 30.3322C649.393 31.0602 650.214 31.4242 651.26 31.4242C652.286 31.4242 653.089 31.0602 653.668 30.3322C654.265 29.5855 654.564 28.4748 654.564 27.0002C654.564 25.5255 654.265 24.4242 653.668 23.6962C653.089 22.9495 652.286 22.5762 651.26 22.5762Z" fill="#475467"/>
<path d="M668.021 19.7202C669.421 19.7202 670.663 20.0095 671.745 20.5882C672.828 21.1668 673.668 21.9975 674.265 23.0802C674.881 24.1628 675.189 25.4695 675.189 27.0002C675.189 28.5308 674.881 29.8375 674.265 30.9202C673.668 32.0028 672.828 32.8335 671.745 33.4122C670.663 33.9908 669.421 34.2802 668.021 34.2802C666.603 34.2802 665.352 33.9908 664.269 33.4122C663.205 32.8335 662.365 32.0028 661.749 30.9202C661.152 29.8375 660.853 28.5308 660.853 27.0002C660.853 25.4695 661.152 24.1628 661.749 23.0802C662.365 21.9975 663.205 21.1668 664.269 20.5882C665.352 20.0095 666.603 19.7202 668.021 19.7202ZM668.021 22.5762C666.976 22.5762 666.155 22.9495 665.557 23.6962C664.979 24.4242 664.689 25.5255 664.689 27.0002C664.689 28.4748 664.979 29.5855 665.557 30.3322C666.155 31.0602 666.976 31.4242 668.021 31.4242C669.048 31.4242 669.851 31.0602 670.429 30.3322C671.027 29.5855 671.325 28.4748 671.325 27.0002C671.325 25.5255 671.027 24.4242 670.429 23.6962C669.851 22.9495 669.048 22.5762 668.021 22.5762Z" fill="#475467"/>
<path d="M682.179 13.8682V29.6882C682.179 30.3415 682.291 30.7988 682.515 31.0602C682.739 31.3215 683.112 31.4522 683.635 31.4522C683.952 31.4522 684.214 31.4335 684.419 31.3962C684.625 31.3588 684.886 31.2842 685.203 31.1722L684.867 33.6922C684.55 33.8788 684.148 34.0188 683.663 34.1122C683.196 34.2242 682.73 34.2802 682.263 34.2802C680.9 34.2802 679.902 33.9535 679.267 33.3002C678.651 32.6282 678.343 31.5642 678.343 30.1082V13.8682H682.179Z" fill="#475467"/>
<path d="M693.837 34.2802C691.634 34.2802 689.87 33.6455 688.545 32.3762C687.219 31.0882 686.557 29.2962 686.557 27.0002C686.557 25.4695 686.855 24.1628 687.453 23.0802C688.05 21.9975 688.881 21.1668 689.945 20.5882C691.027 20.0095 692.259 19.7202 693.641 19.7202C695.059 19.7202 696.263 20.0095 697.253 20.5882C698.242 21.1482 698.998 21.9228 699.521 22.9122C700.043 23.8828 700.305 24.9935 700.305 26.2442C700.305 26.6175 700.295 26.9722 700.277 27.3082C700.258 27.6442 700.23 27.9428 700.193 28.2042H690.309C690.458 29.2868 690.831 30.0988 691.429 30.6402C692.045 31.1628 692.838 31.4242 693.809 31.4242C694.63 31.4242 695.293 31.2655 695.797 30.9482C696.301 30.6308 696.693 30.1922 696.973 29.6322L700.025 30.8082C699.577 31.9095 698.793 32.7682 697.673 33.3842C696.553 33.9815 695.274 34.2802 693.837 34.2802ZM693.613 22.5482C691.802 22.5482 690.71 23.5468 690.337 25.5442H696.637C696.525 24.5735 696.207 23.8362 695.685 23.3322C695.181 22.8095 694.49 22.5482 693.613 22.5482Z" fill="#475467"/>
<path d="M709.155 34.2802C707.737 34.2802 706.439 34.0282 705.263 33.5242C704.106 33.0202 703.163 32.3108 702.435 31.3962L704.647 29.1562C705.095 29.8282 705.693 30.3788 706.439 30.8082C707.186 31.2375 708.073 31.4522 709.099 31.4522C709.827 31.4522 710.406 31.3495 710.835 31.1442C711.283 30.9202 711.507 30.5748 711.507 30.1082C711.507 29.8095 711.405 29.5575 711.199 29.3522C710.994 29.1282 710.583 28.9508 709.967 28.8202L707.503 28.3162C705.879 27.9802 704.722 27.4762 704.031 26.8042C703.359 26.1135 703.023 25.2268 703.023 24.1442C703.023 23.3788 703.247 22.6602 703.695 21.9882C704.162 21.3162 704.853 20.7748 705.767 20.3642C706.682 19.9348 707.821 19.7202 709.183 19.7202C712.021 19.7202 714.055 20.5882 715.287 22.3242L712.991 24.5642C712.581 23.9108 712.039 23.4162 711.367 23.0802C710.714 22.7255 710.023 22.5482 709.295 22.5482C707.653 22.5482 706.831 23.0055 706.831 23.9202C706.831 24.2188 706.962 24.4802 707.223 24.7042C707.485 24.9095 707.961 25.0868 708.651 25.2362L711.507 25.8242C712.889 26.1042 713.878 26.5802 714.475 27.2522C715.073 27.9055 715.371 28.6988 715.371 29.6322C715.371 30.9762 714.83 32.0868 713.747 32.9642C712.683 33.8415 711.153 34.2802 709.155 34.2802Z" fill="#475467"/>
<path d="M830.25 2C818.1 2 808.25 11.8497 808.25 24C808.25 36.1503 818.1 46 830.25 46C841.151 46 850.2 38.0716 851.946 27.6667H851.788C850.16 33.9925 844.417 38.6667 837.583 38.6667C829.483 38.6667 822.917 32.1002 822.917 24C822.917 15.8998 829.483 9.33333 837.583 9.33333C844.417 9.33333 850.16 14.0075 851.788 20.3333H851.946C850.2 9.92838 841.151 2 830.25 2Z" fill="#98A2B3"/>
<path d="M808.25 24C808.25 11.8497 818.1 2 830.25 2C841.151 2 850.2 9.92838 851.946 20.3333H837.121C835.493 14.0075 829.751 9.33333 822.917 9.33333C814.816 9.33333 808.25 15.8998 808.25 24Z" fill="#667085"/>
<path d="M808.25 24C808.25 36.1503 818.1 46 830.25 46C841.151 46 850.2 38.0716 851.946 27.6667H837.121C835.493 33.9925 829.751 38.6667 822.917 38.6667C814.816 38.6667 808.25 32.1002 808.25 24Z" fill="#667085"/>
<path d="M883.689 20.5071C883.062 15.9829 879.582 13.3579 875.068 13.3579C869.748 13.3579 865.741 17.2358 865.741 23.8181C865.741 30.3906 869.699 34.2784 875.068 34.2784C879.91 34.2784 883.122 31.1463 883.689 27.2585L879.97 27.2386C879.503 29.625 877.554 30.9673 875.118 30.9673C871.816 30.9673 869.45 28.4914 869.45 23.8181C869.45 19.2244 871.797 16.669 875.128 16.669C877.603 16.669 879.542 18.071 879.97 20.5071H883.689Z" fill="#475467"/>
<path d="M891.303 34.3082C893.699 34.3082 895.131 33.1846 895.787 31.9019H895.906V34H899.367V23.7784C899.367 19.7414 896.075 18.5284 893.162 18.5284C889.95 18.5284 887.484 19.9602 886.689 22.7443L890.05 23.2215C890.408 22.1775 891.422 21.2826 893.182 21.2826C894.852 21.2826 895.767 22.1377 895.767 23.6392V23.6988C895.767 24.7329 894.683 24.7826 891.989 25.071C889.026 25.3892 886.192 26.2741 886.192 29.7144C886.192 32.7173 888.389 34.3082 891.303 34.3082ZM892.237 31.6633C890.736 31.6633 889.662 30.9772 889.662 29.6548C889.662 28.2727 890.865 27.696 892.476 27.4673C893.421 27.338 895.31 27.0994 895.777 26.7215V28.5213C895.777 30.2215 894.405 31.6633 892.237 31.6633Z" fill="#475467"/>
<path d="M910.612 18.7272H907.6V15.0681H904V18.7272H901.832V21.5113H904V30.0028C903.98 32.8764 906.068 34.2883 908.773 34.2088C909.797 34.1789 910.503 33.9801 910.891 33.8508L910.284 31.0369C910.085 31.0866 909.678 31.1761 909.23 31.1761C908.325 31.1761 907.6 30.8579 907.6 29.4062V21.5113H910.612V18.7272Z" fill="#475467"/>
<path d="M918.017 34.3082C920.414 34.3082 921.846 33.1846 922.502 31.9019H922.621V34H926.081V23.7784C926.081 19.7414 922.79 18.5284 919.877 18.5284C916.665 18.5284 914.199 19.9602 913.404 22.7443L916.765 23.2215C917.123 22.1775 918.137 21.2826 919.897 21.2826C921.567 21.2826 922.482 22.1377 922.482 23.6392V23.6988C922.482 24.7329 921.398 24.7826 918.704 25.071C915.74 25.3892 912.907 26.2741 912.907 29.7144C912.907 32.7173 915.104 34.3082 918.017 34.3082ZM918.952 31.6633C917.451 31.6633 916.377 30.9772 916.377 29.6548C916.377 28.2727 917.58 27.696 919.191 27.4673C920.135 27.338 922.025 27.0994 922.492 26.7215V28.5213C922.492 30.2215 921.12 31.6633 918.952 31.6633Z" fill="#475467"/>
<path d="M933.3 13.6363H929.701V34H933.3V13.6363Z" fill="#475467"/>
<path d="M943.663 34.2983C948.138 34.2983 950.982 31.1463 950.982 26.4233C950.982 21.6903 948.138 18.5284 943.663 18.5284C939.189 18.5284 936.345 21.6903 936.345 26.4233C936.345 31.1463 939.189 34.2983 943.663 34.2983ZM943.683 31.4147C941.207 31.4147 939.994 29.2073 939.994 26.4133C939.994 23.6193 941.207 21.3821 943.683 21.3821C946.119 21.3821 947.332 23.6193 947.332 26.4133C947.332 29.2073 946.119 31.4147 943.683 31.4147Z" fill="#475467"/>
<path d="M960.679 40.0454C964.805 40.0454 967.848 38.1562 967.848 34.2485V18.7272H964.298V21.2528H964.099C963.552 20.1491 962.409 18.5284 959.714 18.5284C956.184 18.5284 953.41 21.2926 953.41 26.3139C953.41 31.2954 956.184 33.7812 959.704 33.7812C962.319 33.7812 963.542 32.3792 964.099 31.2556H964.278V34.1491C964.278 36.3963 962.787 37.321 960.738 37.321C958.571 37.321 957.616 36.2968 957.179 35.4019L953.937 36.1875C954.593 38.3252 956.791 40.0454 960.679 40.0454ZM960.709 30.9573C958.332 30.9573 957.079 29.1079 957.079 26.294C957.079 23.5198 958.312 21.4815 960.709 21.4815C963.025 21.4815 964.298 23.4005 964.298 26.294C964.298 29.2073 963.005 30.9573 960.709 30.9573Z" fill="#475467"/>
<path fill-rule="evenodd" clip-rule="evenodd" d="M1083 36.4667C1089.89 36.4667 1095.47 30.8851 1095.47 24C1095.47 17.1149 1089.89 11.5333 1083 11.5333C1076.11 11.5333 1070.53 17.1149 1070.53 24C1070.53 30.8851 1076.11 36.4667 1083 36.4667ZM1083 46C1095.15 46 1105 36.1503 1105 24C1105 11.8497 1095.15 2 1083 2C1070.85 2 1061 11.8497 1061 24C1061 36.1503 1070.85 46 1083 46Z" fill="#667085"/>
<path d="M1083.25 24.4819C1085.54 22.1908 1089.26 22.1908 1091.55 24.4819L1102.96 35.8898C1105.25 38.1809 1105.25 41.8955 1102.96 44.1866C1100.67 46.4776 1096.95 46.4776 1094.66 44.1866L1083.25 32.7786C1080.96 30.4875 1080.96 26.7729 1083.25 24.4819Z" fill="#98A2B3"/>
<path d="M1086.46 35.9816L1093.7 43.2269C1097.18 41.2887 1100.07 38.4357 1102.06 34.9936L1094.87 27.8076C1093.61 31.747 1090.44 34.8334 1086.46 35.9816Z" fill="#667085"/>
<path d="M1140.52 36.0999C1139.89 36.8839 1139.11 37.4812 1138.2 37.8919C1137.3 38.3025 1136.31 38.5079 1135.23 38.5079C1133.77 38.5079 1132.46 38.1905 1131.28 37.5559C1130.1 36.9399 1128.76 35.8385 1127.25 34.2519C1125.47 34.0279 1123.89 33.4585 1122.49 32.5439C1121.11 31.6292 1120.02 30.4532 1119.24 29.0159C1118.47 27.5599 1118.09 25.9545 1118.09 24.1999C1118.09 22.2772 1118.55 20.5505 1119.46 19.0199C1120.4 17.4705 1121.68 16.2572 1123.3 15.3799C1124.94 14.5025 1126.78 14.0639 1128.82 14.0639C1130.85 14.0639 1132.68 14.5025 1134.3 15.3799C1135.93 16.2572 1137.21 17.4705 1138.14 19.0199C1139.07 20.5505 1139.54 22.2772 1139.54 24.1999C1139.54 26.4772 1138.9 28.4745 1137.61 30.1919C1136.34 31.9092 1134.65 33.1039 1132.54 33.7759C1133.01 34.2612 1133.45 34.6065 1133.88 34.8119C1134.33 35.0359 1134.81 35.1479 1135.31 35.1479C1136.53 35.1479 1137.59 34.6625 1138.5 33.6919L1140.52 36.0999ZM1122.68 24.1999C1122.68 25.4132 1122.95 26.4959 1123.47 27.4479C1124.01 28.3999 1124.75 29.1465 1125.68 29.6879C1126.61 30.2105 1127.66 30.4719 1128.82 30.4719C1129.97 30.4719 1131.02 30.2105 1131.95 29.6879C1132.89 29.1465 1133.61 28.3999 1134.14 27.4479C1134.68 26.4959 1134.95 25.4132 1134.95 24.1999C1134.95 22.9865 1134.68 21.9039 1134.14 20.9519C1133.61 19.9999 1132.89 19.2625 1131.95 18.7399C1131.02 18.1985 1129.97 17.9279 1128.82 17.9279C1127.66 17.9279 1126.61 18.1985 1125.68 18.7399C1124.75 19.2625 1124.01 19.9999 1123.47 20.9519C1122.95 21.9039 1122.68 22.9865 1122.68 24.1999Z" fill="#475467"/>
<path d="M1157.82 18.9359V33.9999H1153.67V32.2079C1153.09 32.8612 1152.4 33.3652 1151.6 33.7199C1150.8 34.0559 1149.93 34.2239 1149 34.2239C1147.02 34.2239 1145.45 33.6545 1144.29 32.5159C1143.14 31.3772 1142.56 29.6879 1142.56 27.4479V18.9359H1146.92V26.8039C1146.92 29.2305 1147.94 30.4439 1149.98 30.4439C1151.02 30.4439 1151.86 30.1079 1152.5 29.4359C1153.13 28.7452 1153.45 27.7279 1153.45 26.3839V18.9359H1157.82Z" fill="#475467"/>
<path d="M1169.03 34.2239C1167.44 34.2239 1166.02 33.8972 1164.75 33.2439C1163.5 32.5719 1162.52 31.6479 1161.81 30.4719C1161.1 29.2959 1160.74 27.9612 1160.74 26.4679C1160.74 24.9745 1161.1 23.6399 1161.81 22.4639C1162.52 21.2879 1163.5 20.3732 1164.75 19.7199C1166.02 19.0479 1167.44 18.7119 1169.03 18.7119C1170.62 18.7119 1172.04 19.0479 1173.29 19.7199C1174.54 20.3732 1175.52 21.2879 1176.23 22.4639C1176.94 23.6399 1177.29 24.9745 1177.29 26.4679C1177.29 27.9612 1176.94 29.2959 1176.23 30.4719C1175.52 31.6479 1174.54 32.5719 1173.29 33.2439C1172.04 33.8972 1170.62 34.2239 1169.03 34.2239ZM1169.03 30.6399C1170.15 30.6399 1171.07 30.2665 1171.78 29.5199C1172.5 28.7545 1172.87 27.7372 1172.87 26.4679C1172.87 25.1985 1172.5 24.1905 1171.78 23.4439C1171.07 22.6785 1170.15 22.2959 1169.03 22.2959C1167.91 22.2959 1166.99 22.6785 1166.26 23.4439C1165.53 24.1905 1165.17 25.1985 1165.17 26.4679C1165.17 27.7372 1165.53 28.7545 1166.26 29.5199C1166.99 30.2665 1167.91 30.6399 1169.03 30.6399Z" fill="#475467"/>
<path d="M1189.93 33.2719C1189.5 33.5892 1188.97 33.8319 1188.33 33.9999C1187.72 34.1492 1187.06 34.2239 1186.37 34.2239C1184.58 34.2239 1183.19 33.7665 1182.2 32.8519C1181.23 31.9372 1180.74 30.5932 1180.74 28.8199V22.6319H1178.42V19.2719H1180.74V15.6039H1185.11V19.2719H1188.86V22.6319H1185.11V28.7639C1185.11 29.3985 1185.27 29.8932 1185.59 30.2479C1185.92 30.5839 1186.39 30.7519 1186.99 30.7519C1187.68 30.7519 1188.27 30.5652 1188.75 30.1919L1189.93 33.2719Z" fill="#475467"/>
<path d="M1192.38 18.9359H1196.75V33.9999H1192.38V18.9359ZM1194.56 16.8359C1193.76 16.8359 1193.11 16.6025 1192.6 16.1359C1192.1 15.6692 1191.85 15.0905 1191.85 14.3999C1191.85 13.7092 1192.1 13.1305 1192.6 12.6639C1193.11 12.1972 1193.76 11.9639 1194.56 11.9639C1195.37 11.9639 1196.02 12.1879 1196.52 12.6359C1197.03 13.0839 1197.28 13.6439 1197.28 14.3159C1197.28 15.0439 1197.03 15.6505 1196.52 16.1359C1196.02 16.6025 1195.37 16.8359 1194.56 16.8359Z" fill="#475467"/>
<path d="M1215.56 26.5239C1215.56 26.5799 1215.53 26.9719 1215.47 27.6999H1204.08C1204.28 28.6332 1204.77 29.3705 1205.53 29.9119C1206.3 30.4532 1207.25 30.7239 1208.39 30.7239C1209.17 30.7239 1209.86 30.6119 1210.46 30.3879C1211.08 30.1452 1211.65 29.7719 1212.17 29.2679L1214.49 31.7879C1213.07 33.4119 1211 34.2239 1208.28 34.2239C1206.58 34.2239 1205.08 33.8972 1203.77 33.2439C1202.46 32.5719 1201.45 31.6479 1200.74 30.4719C1200.04 29.2959 1199.68 27.9612 1199.68 26.4679C1199.68 24.9932 1200.03 23.6679 1200.72 22.4919C1201.43 21.2972 1202.39 20.3732 1203.6 19.7199C1204.83 19.0479 1206.2 18.7119 1207.72 18.7119C1209.19 18.7119 1210.53 19.0292 1211.72 19.6639C1212.92 20.2985 1213.85 21.2132 1214.52 22.4079C1215.21 23.5839 1215.56 24.9559 1215.56 26.5239ZM1207.74 22.0159C1206.76 22.0159 1205.92 22.2959 1205.25 22.8559C1204.58 23.4159 1204.17 24.1812 1204.02 25.1519H1211.44C1211.29 24.1999 1210.88 23.4439 1210.21 22.8839C1209.54 22.3052 1208.72 22.0159 1207.74 22.0159Z" fill="#475467"/>
<path d="M1227.62 18.7119C1229.49 18.7119 1230.99 19.2719 1232.13 20.3919C1233.29 21.5119 1233.87 23.1732 1233.87 25.3759V33.9999H1229.5V26.0479C1229.5 24.8532 1229.24 23.9665 1228.71 23.3879C1228.19 22.7905 1227.43 22.4919 1226.45 22.4919C1225.34 22.4919 1224.47 22.8372 1223.81 23.5279C1223.16 24.1999 1222.83 25.2079 1222.83 26.5519V33.9999H1218.47V18.9359H1222.64V20.6999C1223.22 20.0652 1223.93 19.5799 1224.79 19.2439C1225.65 18.8892 1226.59 18.7119 1227.62 18.7119Z" fill="#475467"/>
<path d="M1247.54 33.2719C1247.11 33.5892 1246.58 33.8319 1245.94 33.9999C1245.33 34.1492 1244.68 34.2239 1243.98 34.2239C1242.19 34.2239 1240.8 33.7665 1239.81 32.8519C1238.84 31.9372 1238.36 30.5932 1238.36 28.8199V22.6319H1236.03V19.2719H1238.36V15.6039H1242.72V19.2719H1246.48V22.6319H1242.72V28.7639C1242.72 29.3985 1242.88 29.8932 1243.2 30.2479C1243.54 30.5839 1244 30.7519 1244.6 30.7519C1245.29 30.7519 1245.88 30.5652 1246.36 30.1919L1247.54 33.2719Z" fill="#475467"/>
</svg>
