<svg width="80" height="80" viewBox="0 0 80 80" fill="none" xmlns="http://www.w3.org/2000/svg">
<rect width="80" height="80" rx="40" fill="#433878"/>
<g clip-path="url(#clip0_1_5060)">
<path d="M59.9891 38.0793L59.8359 37.9261L64.571 33.1909C64.8457 32.9162 65 32.5437 65 32.1552C65 31.7667 64.8457 31.3942 64.571 31.1195L59.8359 26.3844L59.9892 26.2311C61.1668 26.0658 62.2568 25.5251 63.108 24.6741C65.2533 22.5286 65.2533 19.0379 63.108 16.8926C62.0686 15.8531 60.6869 15.2807 59.2171 15.2807C57.7474 15.2807 56.3656 15.8531 55.3264 16.8923C54.4754 17.7434 53.9347 18.8334 53.7694 20.0112L53.6162 20.1644L48.8809 15.4292C48.3089 14.8573 47.3814 14.8573 46.8093 15.4292L26.384 35.8545L26.2308 35.7013C26.0656 34.5236 25.5249 33.4335 24.6738 32.5824C22.5285 30.437 19.0377 30.437 16.8922 32.5824C14.7469 34.7279 14.7469 38.2187 16.8922 40.364C17.7433 41.2151 18.8333 41.7558 20.011 41.921L20.1643 42.0742L15.4291 46.8095C14.857 47.3815 14.857 48.309 15.4291 48.8811L31.1192 64.5711C31.3939 64.8458 31.7665 65.0001 32.1549 65.0001C32.5434 65.0001 32.916 64.8458 33.1907 64.5711L38.9616 58.8001C39.5336 58.2281 39.5336 57.3006 38.9616 56.7285L37.3958 55.1627C37.131 54.8979 36.7749 54.7446 36.4005 54.7342C35.7434 54.7171 35.118 54.4479 34.6539 53.9824C34.1679 53.4965 33.9003 52.8504 33.9003 52.1633C33.9003 51.4761 34.1679 50.83 34.6539 50.3441C35.6569 49.341 37.289 49.3409 38.2922 50.3441C38.7577 50.8082 39.0268 51.4336 39.0439 52.0906C39.0542 52.465 39.2075 52.8211 39.4723 53.086L41.0382 54.6519C41.3129 54.9266 41.6855 55.0809 42.074 55.0809C42.4625 55.0809 42.8351 54.9266 43.1098 54.6519L53.616 44.1457L53.7692 44.299C53.9344 45.4767 54.4751 46.5667 55.3262 47.4178C57.4715 49.5632 60.9624 49.5632 63.1078 47.4178C64.147 46.3784 64.7193 44.9967 64.7193 43.527C64.7193 42.0573 64.1469 40.6755 63.1078 39.6363C62.2569 38.7854 61.1668 38.2446 59.9891 38.0793ZM42.0742 51.5446L41.9208 51.3913C41.7557 50.2136 41.2149 49.1237 40.3639 48.2726C38.2184 46.1272 34.7277 46.1272 32.5823 48.2726C31.543 49.3119 30.9708 50.6937 30.9708 52.1634C30.9708 53.6331 31.5431 55.0149 32.5823 56.0541C33.4333 56.9052 34.5234 57.4459 35.701 57.6112L35.8542 57.7644L32.1549 61.4638L18.5365 47.8452L23.2716 43.1101C23.5463 42.8354 23.7006 42.4628 23.7006 42.0743C23.7006 41.6859 23.5463 41.3133 23.2716 41.0386L21.7057 39.4728C21.4409 39.208 21.0848 39.0546 20.7105 39.0443C20.0534 39.0271 19.428 38.758 18.9638 38.2925C17.9608 37.2895 17.9608 35.6573 18.9638 34.6541C19.9669 33.6511 21.599 33.6511 22.6021 34.6541C23.0676 35.1183 23.3368 35.7437 23.3539 36.4009C23.3642 36.7752 23.5175 37.1314 23.7824 37.3961L25.3482 38.9619C25.9202 39.5339 26.8477 39.5339 27.4198 38.9619L32.1549 34.2268L36.8901 38.9619C37.4622 39.534 38.3896 39.534 38.9617 38.9619L40.5276 37.3961C40.7924 37.1313 40.9458 36.7752 40.9561 36.4008C40.9732 35.7437 41.2424 35.1183 41.7078 34.6541C42.7109 33.6511 44.3431 33.6511 45.3461 34.6541C46.3493 35.6573 46.3493 37.2894 45.3461 38.2925C44.882 38.758 44.2566 39.0272 43.5995 39.0443C43.2251 39.0546 42.869 39.208 42.6042 39.4728L41.0384 41.0386C40.4664 41.6106 40.4664 42.5381 41.0384 43.1102L45.7736 47.8453L42.0742 51.5446ZM61.0363 45.3463C60.0332 46.3493 58.4009 46.3493 57.398 45.3463C56.9325 44.8821 56.6633 44.2567 56.6462 43.5995C56.6359 43.2252 56.4825 42.8691 56.2177 42.6043L54.6519 41.0385C54.3659 40.7525 53.991 40.6094 53.6162 40.6094C53.2414 40.6094 52.8664 40.7525 52.5804 41.0385L47.8453 45.7737L44.1459 42.0742L44.2992 41.921C45.4768 41.7558 46.5668 41.2151 47.4179 40.3641C49.5632 38.2187 49.5632 34.7279 47.4179 32.5824C45.2725 30.437 41.7818 30.437 39.6363 32.5824C38.7853 33.4336 38.2446 34.5237 38.0794 35.7013L37.9261 35.8545L34.2268 32.1551L47.8451 18.5366L52.5803 23.2717C53.1523 23.8437 54.0798 23.8437 54.6519 23.2717L56.2177 21.7059C56.4825 21.4411 56.6359 21.085 56.6462 20.7107C56.6633 20.0535 56.9325 19.4281 57.398 18.964C57.8839 18.4781 58.5299 18.2104 59.2171 18.2104C59.9043 18.2104 60.5503 18.4781 61.0363 18.964C62.0393 19.967 62.0393 21.5991 61.0364 22.6023C60.5722 23.0678 59.9468 23.3369 59.2896 23.354C58.9152 23.3644 58.5591 23.5177 58.2943 23.7825L56.7285 25.3485C56.1565 25.9205 56.1565 26.848 56.7285 27.42L61.4636 32.1551L56.7285 36.8903C56.1564 37.4622 56.1564 38.3898 56.7285 38.9618L58.2943 40.5277C58.5591 40.7925 58.9152 40.9458 59.2895 40.9562C59.9466 40.9733 60.572 41.2425 61.0362 41.7079C61.5221 42.1939 61.7897 42.84 61.7897 43.5271C61.7898 44.2143 61.5222 44.8604 61.0363 45.3463Z" fill="#FDFDFD"/>
</g>
<defs>
<clipPath id="clip0_1_5060">
<rect width="50" height="50" fill="white" transform="translate(15 15)"/>
</clipPath>
</defs>
</svg>
