<svg width="80" height="80" viewBox="0 0 80 80" fill="none" xmlns="http://www.w3.org/2000/svg">
<rect width="80" height="80" rx="40" fill="#433878"/>
<path d="M29.2188 46.8281C29.2188 48.8129 27.6097 50.4219 25.625 50.4219C23.6403 50.4219 22.0312 48.8129 22.0312 46.8281V40.3594C22.0312 38.3746 23.6403 36.7656 25.625 36.7656C27.6097 36.7656 29.2188 38.3746 29.2188 40.3594V46.8281ZM57.9688 46.8281C57.9688 48.8129 56.3597 50.4219 54.375 50.4219C52.3903 50.4219 50.7812 48.8129 50.7812 46.8281V40.3594C50.7812 38.3746 52.3903 36.7656 54.375 36.7656C56.3597 36.7656 57.9688 38.3746 57.9688 40.3594V46.8281Z" stroke="#FDFDFD" stroke-width="3.59375" stroke-miterlimit="10" stroke-linecap="round" stroke-linejoin="round"/>
<path d="M22.0312 40.3594V36.7656C22.0312 26.8418 30.0761 18.7969 40 18.7969C49.9239 18.7969 57.9688 26.8418 57.9688 36.7656V40.3594M57.9688 46.8281V50.4219C57.9688 54.3914 54.7508 57.6094 50.7812 57.6094H43.5938" stroke="#FDFDFD" stroke-width="3.59375" stroke-miterlimit="10" stroke-linecap="round" stroke-linejoin="round"/>
<path d="M40 61.2031C41.9848 61.2031 43.5938 59.5941 43.5938 57.6094C43.5938 55.6246 41.9848 54.0156 40 54.0156C38.0152 54.0156 36.4062 55.6246 36.4062 57.6094C36.4062 59.5941 38.0152 61.2031 40 61.2031Z" stroke="#FDFDFD" stroke-width="3.59375" stroke-miterlimit="10" stroke-linecap="round" stroke-linejoin="round"/>
</svg>
