<svg width="80" height="80" viewBox="0 0 80 80" fill="none" xmlns="http://www.w3.org/2000/svg">
<rect width="80" height="80" rx="40" fill="#FDFDFD"/>
<path d="M58.75 40H55.625V38.4375C55.625 35.8594 53.5156 33.75 50.9375 33.75H41.5625V28.7812C43.375 28.1406 44.6875 26.4219 44.6875 24.375C44.6875 21.7969 42.5781 19.6875 40 19.6875C37.4219 19.6875 35.3125 21.7969 35.3125 24.375C35.3125 26.4062 36.625 28.125 38.4375 28.7812V33.75H29.0625C26.4844 33.75 24.375 35.8594 24.375 38.4375V40H21.25C19.5312 40 18.125 41.4062 18.125 43.125V50.9375C18.125 52.6562 19.5312 54.0625 21.25 54.0625H24.375V55.625C24.375 58.2031 26.4844 60.3125 29.0625 60.3125H50.9375C53.5156 60.3125 55.625 58.2031 55.625 55.625V54.0625H58.75C60.4688 54.0625 61.875 52.6562 61.875 50.9375V43.125C61.875 41.4062 60.4688 40 58.75 40ZM40 22.8125C40.8594 22.8125 41.5625 23.5156 41.5625 24.375C41.5625 25.2344 40.8594 25.9375 40 25.9375C39.1406 25.9375 38.4375 25.2344 38.4375 24.375C38.4375 23.5156 39.1406 22.8125 40 22.8125ZM21.25 50.9375V43.125H24.375V50.9375H21.25ZM52.5 55.625C52.5 56.4844 51.7969 57.1875 50.9375 57.1875H29.0625C28.2031 57.1875 27.5 56.4844 27.5 55.625V38.4375C27.5 37.5781 28.2031 36.875 29.0625 36.875H50.9375C51.7969 36.875 52.5 37.5781 52.5 38.4375V55.625ZM55.625 50.9375V43.125H58.75V50.9375H55.625ZM33.75 45.4688C32.4531 45.4688 31.4062 44.4219 31.4062 43.125C31.4062 41.8281 32.4531 40.7812 33.75 40.7812C35.0469 40.7812 36.0938 41.8281 36.0938 43.125C36.0938 44.4219 35.0469 45.4688 33.75 45.4688ZM45.9375 50C46.4531 50.6875 46.3125 51.6719 45.625 52.1875C43.9987 53.3978 42.0272 54.0549 40 54.0625C37.2812 54.0625 35.3125 52.8906 34.375 52.1875C33.6875 51.6719 33.5469 50.6875 34.0625 50C34.5781 49.3125 35.5625 49.1719 36.25 49.6875C36.875 50.1563 38.1875 50.9375 40 50.9375C40.7812 50.9375 42.2969 50.7813 43.75 49.6875C44.4375 49.1719 45.4219 49.3125 45.9375 50ZM48.5938 43.125C48.5938 44.4219 47.5469 45.4688 46.25 45.4688C44.9531 45.4688 43.9062 44.4219 43.9062 43.125C43.9062 41.8281 44.9531 40.7812 46.25 40.7812C47.5469 40.7812 48.5938 41.8281 48.5938 43.125Z" fill="#433878"/>
</svg>
