<svg width="80" height="80" viewBox="0 0 80 80" fill="none" xmlns="http://www.w3.org/2000/svg">
<rect width="80" height="80" rx="40" fill="#433878"/>
<path d="M61.79 53.5815L50.2969 42.0877C51.483 39.6648 52.1002 37.003 52.1015 34.3054C52.1081 31.9674 51.6507 29.6513 50.756 27.4913C49.8613 25.3312 48.547 23.3701 46.8892 21.7215C43.5284 18.3608 39.06 16.51 34.3061 16.51C29.5523 16.51 25.0838 18.3608 21.723 21.7215C18.3615 25.0831 16.5107 29.5515 16.5107 34.3054C16.5107 39.0592 18.3623 43.5285 21.723 46.8892C25.0838 50.25 29.553 52.1008 34.3061 52.1008C37.0507 52.1008 39.6923 51.4654 42.0884 50.2962L44.9484 53.1562L44.9492 53.1577L44.9507 53.1585L53.583 61.7915C54.1216 62.3308 54.7614 62.7583 55.4656 63.0495C56.1699 63.3407 56.9248 63.4899 57.6869 63.4885C58.4491 63.49 59.2041 63.3408 59.9085 63.0496C60.6129 62.7584 61.2528 62.3308 61.7915 61.7915C62.8884 60.6946 63.4923 59.2369 63.4923 57.6862C63.4923 56.1354 62.8869 54.6777 61.79 53.5815ZM23.353 45.2569C17.3138 39.2177 17.3138 29.3915 23.353 23.3523C24.7879 21.9097 26.4946 20.766 28.3745 19.9875C30.2543 19.209 32.2699 18.8112 34.3046 18.8169C36.3392 18.8113 38.3548 19.2092 40.2346 19.9877C42.1144 20.7662 43.8212 21.9098 45.2561 23.3523C51.2954 29.3915 51.2954 39.2177 45.2561 45.2569C43.8213 46.6995 42.1145 47.8432 40.2347 48.6217C38.3548 49.4002 36.3392 49.7981 34.3046 49.7923C32.2699 49.7981 30.2543 49.4002 28.3745 48.6217C26.4946 47.8432 24.7879 46.6995 23.353 45.2569ZM46.8884 46.8885C47.7191 46.0591 48.4662 45.1501 49.1192 44.1746L50.7092 45.7646L45.763 50.71L44.1738 49.12C45.1495 48.4667 46.0587 47.7193 46.8884 46.8885ZM60.1584 60.1592C59.502 60.8139 58.6128 61.1816 57.6857 61.1816C56.7587 61.1816 55.8694 60.8139 55.213 60.1592L47.3954 52.3415L52.3415 47.3962L60.1584 55.2131C60.8184 55.8731 61.183 56.7515 61.183 57.6854C61.1842 58.145 61.0942 58.6002 60.9183 59.0249C60.7424 59.4495 60.4842 59.835 60.1584 60.1592Z" fill="#FDFDFD"/>
<path d="M45.4582 33.3192C45.7304 33.4589 46.047 33.4851 46.3385 33.3919C46.63 33.2988 46.8727 33.094 47.0136 32.8223C47.0831 32.6876 47.1254 32.5406 47.1381 32.3896C47.1507 32.2386 47.1336 32.0866 47.0875 31.9422C47.0414 31.7978 46.9674 31.664 46.8695 31.5482C46.7717 31.4325 46.6521 31.3371 46.5174 31.2677L34.8343 25.2361C34.8089 25.223 34.782 25.2161 34.7559 25.2053C34.7159 25.1884 34.6774 25.1707 34.6366 25.1577C34.6013 25.1469 34.5659 25.1415 34.5297 25.1346C34.492 25.1269 34.4543 25.1184 34.4166 25.1146C34.3805 25.1115 34.3451 25.1123 34.3082 25.1123C34.2697 25.1123 34.2305 25.1115 34.192 25.1146C34.1566 25.1177 34.122 25.1261 34.0874 25.133C34.0489 25.1407 34.0105 25.1469 33.9728 25.1577C33.9328 25.17 33.8943 25.1877 33.8566 25.2038C33.8297 25.2153 33.8028 25.2215 33.7766 25.2353L22.0928 31.2684C21.8207 31.4088 21.6156 31.6515 21.5225 31.9431C21.4294 32.2347 21.4559 32.5514 21.5963 32.8234C21.7366 33.0955 21.9793 33.3006 22.2709 33.3937C22.5625 33.4869 22.8792 33.4603 23.1513 33.32L26.6305 31.5238V42.3469C26.6305 42.6529 26.752 42.9464 26.9684 43.1628C27.1848 43.3792 27.4783 43.5007 27.7843 43.5007H40.8251C41.1311 43.5007 41.4246 43.3792 41.641 43.1628C41.8574 42.9464 41.9789 42.6529 41.9789 42.3469V31.523L45.4582 33.3192ZM33.0674 41.193V36.0923H35.5413V41.193H33.0674ZM39.6713 41.193H37.8489V34.9384C37.8489 34.6324 37.7274 34.3389 37.511 34.1225C37.2946 33.9061 37.0011 33.7846 36.6951 33.7846H31.9136C31.6075 33.7846 31.3141 33.9061 31.0977 34.1225C30.8813 34.3389 30.7597 34.6324 30.7597 34.9384V41.193H28.9382V30.3323L34.3051 27.5615L39.672 30.3323L39.6713 41.193Z" fill="#FDFDFD"/>
</svg>
