<svg width="80" height="80" viewBox="0 0 80 80" fill="none" xmlns="http://www.w3.org/2000/svg">
<rect width="80" height="80" rx="40" fill="#443878"/>
<path d="M25.625 41.4375C28.7961 41.4375 31.375 38.8586 31.375 35.6875C31.375 32.5164 28.7961 29.9375 25.625 29.9375C22.4539 29.9375 19.875 32.5164 19.875 35.6875C19.875 38.8586 22.4539 41.4375 25.625 41.4375ZM25.625 32.8125C27.2106 32.8125 28.5 34.1019 28.5 35.6875C28.5 37.2731 27.2106 38.5625 25.625 38.5625C24.0394 38.5625 22.75 37.2731 22.75 35.6875C22.75 34.1019 24.0394 32.8125 25.625 32.8125ZM54.375 41.4375C57.5461 41.4375 60.125 38.8586 60.125 35.6875C60.125 32.5164 57.5461 29.9375 54.375 29.9375C51.2039 29.9375 48.625 32.5164 48.625 35.6875C48.625 38.8586 51.2039 41.4375 54.375 41.4375ZM54.375 32.8125C55.9606 32.8125 57.25 34.1019 57.25 35.6875C57.25 37.2731 55.9606 38.5625 54.375 38.5625C52.7894 38.5625 51.5 37.2731 51.5 35.6875C51.5 34.1019 52.7894 32.8125 54.375 32.8125ZM58.1873 42.5357C57.9994 42.4174 57.7866 42.3441 57.5656 42.3216C57.3447 42.2992 57.1215 42.3282 56.9136 42.4064C55.2781 43.0267 53.472 43.0267 51.8364 42.4064C51.6285 42.3282 51.4054 42.2992 51.1844 42.3216C50.9634 42.3441 50.7507 42.4174 50.5628 42.5357C49.9274 42.9339 49.3797 43.427 48.9096 43.9776C48.1975 42.61 47.1785 41.4258 45.9326 40.5175C45.7204 40.3636 45.47 40.2707 45.2088 40.2489C44.9475 40.2271 44.6853 40.2772 44.4505 40.3939C43.0664 41.0769 41.5435 41.4322 40 41.4322C38.4565 41.4322 36.9337 41.0769 35.5495 40.3939C35.3147 40.2774 35.0525 40.2273 34.7912 40.2491C34.53 40.2709 34.2797 40.3637 34.0674 40.5175C32.821 41.4256 31.8015 42.6099 31.0889 43.9776C30.6148 43.4158 30.0579 42.9297 29.4373 42.5357C29.2494 42.4174 29.0366 42.3441 28.8156 42.3216C28.5947 42.2992 28.3715 42.3282 28.1636 42.4064C26.5281 43.0267 24.722 43.0267 23.0864 42.4064C22.8785 42.3283 22.6553 42.2993 22.4344 42.3218C22.2135 42.3442 22.0007 42.4175 21.8128 42.5357C20.7785 43.1796 19.9257 44.0769 19.335 45.1424C18.7444 46.208 18.4355 47.4067 18.4375 48.625V54.375C18.4375 54.7562 18.589 55.1219 18.8585 55.3915C19.1281 55.6611 19.4938 55.8125 19.875 55.8125H60.125C60.5063 55.8125 60.8719 55.6611 61.1415 55.3915C61.4111 55.1219 61.5625 54.7562 61.5625 54.375V48.625C61.5646 47.4067 61.2556 46.208 60.665 45.1424C60.0743 44.0769 59.2215 43.1796 58.1873 42.5357ZM21.3125 48.625C21.3125 47.3499 21.8674 46.1669 22.8248 45.3504C24.6461 45.8808 26.6039 45.8808 28.4253 45.3504C28.9001 45.7535 29.2814 46.2554 29.5426 46.8209C29.8037 47.3864 29.9385 48.0021 29.9375 48.625V52.9375H21.3125V48.625ZM32.8125 48.625C32.8125 46.6125 33.6664 44.6977 35.1283 43.3566C36.2294 43.8065 37.3881 44.0897 38.5625 44.2219V48.625C38.5625 49.0062 38.714 49.3719 38.9835 49.6415C39.2531 49.9111 39.6188 50.0625 40 50.0625C40.3813 50.0625 40.7469 49.9111 41.0165 49.6415C41.2861 49.3719 41.4375 49.0062 41.4375 48.625V44.2219C42.6168 44.0941 43.7726 43.8029 44.8717 43.3566C45.601 44.0269 46.1834 44.8412 46.582 45.748C46.9806 46.6548 47.1868 47.6344 47.1875 48.625V52.9375H32.8125V48.625ZM58.6875 52.9375H50.0625V48.625C50.0625 47.3499 50.6174 46.1669 51.5748 45.3504C53.3961 45.8808 55.3539 45.8808 57.1753 45.3504C57.6501 45.7535 58.0314 46.2554 58.2926 46.8209C58.5537 47.3864 58.6885 48.0021 58.6875 48.625V52.9375ZM40 38.5625C43.9632 38.5625 47.1875 35.3382 47.1875 31.375C47.1875 27.4118 43.9632 24.1875 40 24.1875C36.0368 24.1875 32.8125 27.4118 32.8125 31.375C32.8125 35.3382 36.0368 38.5625 40 38.5625ZM40 27.0625C42.3776 27.0625 44.3125 28.9974 44.3125 31.375C44.3125 33.7526 42.3776 35.6875 40 35.6875C37.6224 35.6875 35.6875 33.7526 35.6875 31.375C35.6875 28.9974 37.6224 27.0625 40 27.0625Z" fill="white"/>
</svg>
