<svg width="80" height="80" viewBox="0 0 80 80" fill="none" xmlns="http://www.w3.org/2000/svg">
<rect width="80" height="80" rx="40" fill="#433878"/>
<g clip-path="url(#clip0_1_4859)">
<path d="M59.2748 28.8442C59.2512 27.6022 59.2287 26.429 59.2287 25.294C59.2287 24.867 59.059 24.4574 58.7571 24.1555C58.4551 23.8535 58.0456 23.6839 57.6185 23.6839C50.7326 23.6839 45.4898 21.7049 41.1198 17.4559C40.8193 17.1636 40.4166 17 39.9973 17C39.578 17 39.1753 17.1636 38.8748 17.4559C34.5052 21.7049 29.2633 23.6839 22.3778 23.6839C21.9507 23.6839 21.5412 23.8535 21.2393 24.1555C20.9373 24.4574 20.7677 24.867 20.7677 25.294C20.7677 26.4292 20.7453 27.6029 20.7215 28.845C20.5008 40.4027 20.1985 56.2314 39.4699 62.9113C39.8115 63.0297 40.1829 63.0297 40.5245 62.9113C59.7973 56.2312 59.4955 40.402 59.2748 28.8442ZM39.9974 59.6814C23.4697 53.6774 23.7195 40.5248 23.9413 28.9064C23.9546 28.2092 23.9675 27.5333 23.9765 26.8708C30.4256 26.5986 35.5827 24.6444 39.9974 20.7985C44.4126 24.6444 49.5705 26.5988 56.02 26.8708C56.029 27.5331 56.0419 28.2085 56.0552 28.9054C56.2768 40.5242 56.5264 53.6771 39.9974 59.6814Z" fill="#FDFDFD"/>
<path d="M45.5436 34.4067L37.7723 42.1776L34.4561 38.8614C34.1524 38.5678 33.7456 38.4053 33.3232 38.4089C32.9009 38.4125 32.4968 38.5819 32.1982 38.8806C31.8995 39.1793 31.7302 39.5833 31.7266 40.0057C31.7231 40.428 31.8856 40.8349 32.1792 41.1385L36.6338 45.5932C36.7832 45.7429 36.9607 45.8616 37.156 45.9425C37.3514 46.0234 37.5608 46.0649 37.7723 46.0646C37.9838 46.0649 38.1932 46.0234 38.3886 45.9425C38.5839 45.8616 38.7614 45.7429 38.9108 45.5932L47.8203 36.6839C47.9699 36.5344 48.0885 36.3569 48.1695 36.1616C48.2504 35.9663 48.2921 35.7569 48.2921 35.5454C48.2921 35.334 48.2505 35.1246 48.1696 34.9293C48.0887 34.7339 47.97 34.5564 47.8205 34.4069C47.5186 34.105 47.1091 33.9353 46.6821 33.9353C46.2551 33.9353 45.8456 34.1048 45.5436 34.4067Z" fill="#FDFDFD"/>
</g>
<defs>
<clipPath id="clip0_1_4859">
<rect width="46" height="46" fill="white" transform="translate(17 17)"/>
</clipPath>
</defs>
</svg>
