<svg width="173" height="28" viewBox="0 0 173 28" fill="none" xmlns="http://www.w3.org/2000/svg">
<path d="M43.4054 14C43.4054 21.7329 37.2933 28 29.7516 28C22.2098 28 16.0977 21.7329 16.0977 14C16.0977 6.26595 22.211 0 29.7516 0C37.2933 0.00116424 43.4054 6.26711 43.4054 14Z" fill="#D9E021" stroke="white" stroke-width="0.0133056" stroke-miterlimit="10"/>
<path d="M39.4742 13.9996C39.4742 19.5041 35.1231 23.9655 29.7547 23.9655C24.3862 23.9655 20.0352 19.5041 20.0352 13.9996C20.0352 8.4939 24.3874 4.03369 29.7547 4.03369C35.1231 4.03486 39.4742 8.49506 39.4742 13.9996Z" fill="#121B00"/>
<path d="M37.0234 13.9997C37.0234 18.1177 33.7681 21.4555 29.7519 21.4555C25.7358 21.4555 22.4805 18.1177 22.4805 13.9997C22.4805 9.88182 25.7358 6.54395 29.7519 6.54395C33.7681 6.54395 37.0234 9.88182 37.0234 13.9997Z" fill="#D7DB2D"/>
<path d="M13.906 8.47907C13.353 7.71766 12.6717 7.14718 11.8599 6.76648C11.048 6.38577 10.2032 6.196 9.32212 6.196C8.30361 6.196 7.36686 6.40789 6.51299 6.83284C5.65913 7.25779 4.91995 7.82826 4.29885 8.54544C3.67775 9.26261 3.19405 10.0939 2.84887 11.0416C2.50369 11.9881 2.3311 12.9754 2.3311 14.0022C2.3311 15.1001 2.50369 16.1223 2.84887 17.0688C3.19405 18.0165 3.67321 18.8397 4.28636 19.5382C4.89951 20.2379 5.63301 20.7909 6.48801 21.1972C7.34188 21.6047 8.28772 21.8085 9.32326 21.8085C10.4462 21.8085 11.4466 21.5826 12.3277 21.132C13.2077 20.6803 13.9752 20.0307 14.6315 19.1808L16.2632 20.5883C15.4343 21.7212 14.4374 22.5524 13.2712 23.0845C12.1063 23.6154 10.7903 23.8808 9.32212 23.8808C8.00953 23.8808 6.78437 23.6328 5.6455 23.1369C4.5055 22.6421 3.51765 21.9552 2.68082 21.0797C1.84285 20.203 1.18656 19.1633 0.711935 17.9595C0.237313 16.7557 0 15.4377 0 14.0034C0 12.6226 0.228226 11.3315 0.685816 10.1265C1.14341 8.92265 1.78607 7.87833 2.61496 6.9935C3.44385 6.10868 4.42829 5.40897 5.56715 4.89554C6.70715 4.38211 7.95843 4.12598 9.32212 4.12598C10.5654 4.12598 11.7599 4.3565 12.909 4.81637C14.057 5.27625 15.0199 6.02835 15.7965 7.07267L13.906 8.47907Z" fill="black" stroke="black" stroke-width="0.0033264" stroke-miterlimit="10"/>
<path d="M44.7734 4.60205H47.5178L58.1344 20.2134H58.1866V4.60205H60.3622V23.3999H57.6166L47.0001 7.78858H46.9478V23.3999H44.7734V4.60205Z" fill="black" stroke="black" stroke-width="0.0033264" stroke-miterlimit="10"/>
<path d="M75.5591 7.9211C75.1969 7.31919 74.7132 6.88143 74.1091 6.60667C73.505 6.33191 72.8737 6.19453 72.2186 6.19453C71.7349 6.19453 71.2602 6.25624 70.7936 6.38081C70.328 6.50538 69.909 6.6905 69.5377 6.93848C69.1664 7.18647 68.8678 7.51362 68.6441 7.9211C68.4205 8.32859 68.308 8.80592 68.308 9.35428C68.308 9.77923 68.3728 10.1553 68.5022 10.4824C68.6316 10.8107 68.8428 11.1065 69.1369 11.3719C69.4299 11.6374 69.8273 11.8853 70.328 12.1159C70.8276 12.3464 71.4419 12.5769 72.1675 12.8063C72.8749 13.0368 73.5607 13.2836 74.2249 13.5502C74.8892 13.8157 75.4762 14.1521 75.986 14.5596C76.4947 14.9671 76.9012 15.4759 77.2032 16.0859C77.5053 16.6972 77.6563 17.4621 77.6563 18.383C77.6563 19.3214 77.4757 20.1352 77.1135 20.8256C76.7502 21.5159 76.271 22.0864 75.676 22.5381C75.0799 22.9899 74.3941 23.3263 73.6163 23.5475C72.8397 23.7688 72.0369 23.8794 71.2091 23.8794C70.6732 23.8794 70.1384 23.8305 69.6025 23.7338C69.0677 23.636 68.5544 23.4858 68.0616 23.2821C67.57 23.0784 67.1079 22.8129 66.6764 22.4858C66.2449 22.1586 65.8736 21.7558 65.5625 21.2773L67.4269 19.7114C67.8232 20.4018 68.3762 20.9245 69.0847 21.2773C69.7921 21.6312 70.5426 21.8082 71.3374 21.8082C71.803 21.8082 72.2742 21.7383 72.7488 21.5963C73.2234 21.4554 73.6504 21.247 74.0308 20.9722C74.41 20.6975 74.7211 20.3575 74.963 19.95C75.2048 19.5437 75.3263 19.0745 75.3263 18.5425C75.3263 17.958 75.2309 17.4853 75.0413 17.1221C74.8506 16.76 74.5587 16.4457 74.1613 16.1802C73.7639 15.9148 73.2632 15.6761 72.6591 15.4631C72.0551 15.25 71.3477 15.0032 70.5369 14.7191C69.8807 14.5072 69.2766 14.2639 68.7236 13.9891C68.1706 13.7144 67.6915 13.3791 67.2861 12.9797C66.8808 12.5816 66.5617 12.1031 66.3278 11.5465C66.0939 10.9889 65.9781 10.3206 65.9781 9.54173C65.9781 8.63944 66.1495 7.85125 66.4947 7.17832C66.8399 6.50655 67.3066 5.94422 67.8936 5.4925C68.4806 5.04077 69.1449 4.70081 69.8875 4.47029C70.6301 4.24094 71.4067 4.12451 72.2186 4.12451C73.2541 4.12451 74.1988 4.28867 75.0538 4.61582C75.9077 4.94414 76.6718 5.51462 77.3463 6.32842L75.5591 7.9211Z" fill="black" stroke="black" stroke-width="0.0033264" stroke-miterlimit="10"/>
<path d="M83.2012 4.60205H94.7238V6.67324H85.3756V12.5678H94.1027V14.639H85.3756V21.3299H95.1893V23.4011H83.2012V4.60205Z" fill="black" stroke="black" stroke-width="0.0033264" stroke-miterlimit="10"/>
<path d="M100.496 4.60205H103.242L113.858 20.2134H113.91V4.60205H116.086V23.3999H113.342L102.723 7.78858H102.67V23.3999H100.496V4.60205Z" fill="black" stroke="black" stroke-width="0.0033264" stroke-miterlimit="10"/>
<path d="M122.586 4.60205H125.33L135.947 20.2134H135.999V4.60205H138.175V23.3999H135.429L124.813 7.78858H124.76V23.3999H122.586V4.60205Z" fill="black" stroke="black" stroke-width="0.0033264" stroke-miterlimit="10"/>
<path d="M153.372 7.9211C153.01 7.31919 152.526 6.88143 151.922 6.60667C151.318 6.33191 150.688 6.19453 150.032 6.19453C149.548 6.19453 149.074 6.25624 148.608 6.38081C148.141 6.50538 147.723 6.6905 147.352 6.93848C146.981 7.18647 146.682 7.51362 146.459 7.9211C146.234 8.32859 146.121 8.80592 146.121 9.35428C146.121 9.77923 146.187 10.1553 146.317 10.4824C146.446 10.8107 146.656 11.1065 146.95 11.3719C147.243 11.6374 147.641 11.8853 148.141 12.1159C148.642 12.3464 149.255 12.5769 149.981 12.8063C150.688 13.0368 151.375 13.2836 152.039 13.5502C152.704 13.8157 153.291 14.1521 153.799 14.5596C154.308 14.9671 154.715 15.4759 155.017 16.0859C155.319 16.6972 155.47 17.4621 155.47 18.383C155.47 19.3214 155.288 20.1352 154.927 20.8256C154.563 21.5159 154.084 22.0864 153.489 22.5381C152.893 22.9899 152.207 23.3263 151.431 23.5475C150.654 23.7688 149.851 23.8794 149.022 23.8794C148.487 23.8794 147.952 23.8305 147.417 23.7338C146.882 23.636 146.368 23.4858 145.876 23.2821C145.384 23.0784 144.922 22.8129 144.491 22.4858C144.059 22.1586 143.688 21.7558 143.377 21.2773L145.241 19.7114C145.639 20.4018 146.192 20.9245 146.899 21.2773C147.607 21.6312 148.357 21.8082 149.152 21.8082C149.619 21.8082 150.089 21.7383 150.563 21.5963C151.038 21.4554 151.465 21.247 151.845 20.9722C152.224 20.6975 152.536 20.3575 152.777 19.95C153.019 19.5437 153.14 19.0745 153.14 18.5425C153.14 17.958 153.044 17.4853 152.855 17.1221C152.664 16.76 152.371 16.4457 151.974 16.1802C151.576 15.9148 151.076 15.6761 150.471 15.4631C149.867 15.25 149.159 15.0032 148.348 14.7191C147.692 14.5072 147.088 14.2639 146.536 13.9891C145.983 13.7144 145.504 13.3791 145.098 12.9797C144.692 12.5816 144.373 12.1031 144.14 11.5465C143.906 10.9889 143.79 10.3206 143.79 9.54173C143.79 8.63944 143.963 7.85125 144.308 7.17832C144.653 6.50655 145.12 5.94422 145.707 5.4925C146.293 5.04077 146.958 4.70081 147.701 4.47029C148.442 4.24094 149.22 4.12451 150.031 4.12451C151.066 4.12451 152.012 4.28867 152.866 4.61582C153.72 4.94414 154.484 5.51462 155.158 6.32842L153.372 7.9211Z" fill="black" stroke="black" stroke-width="0.0033264" stroke-miterlimit="10"/>
<path d="M161.012 4.60205H172.534V6.67324H163.186V12.5678H171.913V14.639H163.186V21.3299H173V23.4011H161.012V4.60205Z" fill="black" stroke="black" stroke-width="0.0033264" stroke-miterlimit="10"/>
</svg>
