<svg width="80" height="80" viewBox="0 0 80 80" fill="none" xmlns="http://www.w3.org/2000/svg">
<rect width="80" height="80" rx="40" fill="#433878"/>
<path d="M39.9985 50.1518C46.2323 50.1518 51.3039 45.0813 51.3039 38.8488C51.3005 35.8515 50.1083 32.9779 47.9889 30.8585C45.8695 28.739 42.9959 27.5468 39.9985 27.5434C33.7661 27.5434 28.6956 32.615 28.6956 38.8488C28.7005 41.7005 29.7789 44.4458 31.7162 46.5384L30.5471 50.9C30.478 51.1575 30.4869 51.4297 30.5726 51.6822C30.6583 51.9346 30.8169 52.156 31.0285 52.3183C31.24 52.4805 31.4949 52.5764 31.7609 52.5938C32.0269 52.6112 32.2922 52.5492 32.523 52.4159L37.0956 49.7737C38.0427 50.0253 39.0186 50.1524 39.9985 50.1518ZM36.2478 47.151L33.9935 48.4537L34.5208 46.4871C34.5841 46.2506 34.5819 46.0014 34.5144 45.7662C34.4468 45.5309 34.3165 45.3185 34.1373 45.1517C33.2671 44.3494 32.5735 43.3747 32.1007 42.2896C31.6278 41.2045 31.3861 40.0329 31.391 38.8493C31.3916 37.0323 31.9674 35.2622 33.0357 33.7926C34.1041 32.323 35.6103 31.2292 37.3384 30.6681C39.0665 30.107 40.9279 30.1073 42.6559 30.669C44.3838 31.2307 45.8896 32.325 46.9575 33.7949C48.0253 35.2649 48.6005 37.0352 48.6005 38.8522C48.6005 40.6691 48.0254 42.4394 46.9576 43.9095C45.8897 45.3795 44.384 46.4738 42.6561 47.0355C40.9281 47.5972 39.0668 47.5976 37.3386 47.0366C37.1589 46.9781 36.969 46.958 36.7811 46.9777C36.5932 46.9973 36.4115 47.0563 36.2478 47.1507V47.151ZM62.2631 39.8113C62.2777 39.2599 62.2929 38.6896 62.2666 38.0959C62.1954 36.4372 61.4835 34.8709 60.2805 33.7266C59.0776 32.5824 57.4776 31.9496 55.8174 31.9615C53.1529 25.8655 47.0655 21.5942 39.9985 21.5942C32.9315 21.5942 26.8467 25.8654 24.1821 31.9614C22.5223 31.9496 20.9227 32.5822 19.7198 33.726C18.517 34.8698 17.8048 36.4356 17.7332 38.0939C17.7068 38.6897 17.7219 39.26 17.7366 39.8116C17.7521 40.3943 17.7681 40.9969 17.7382 41.674C17.6669 43.3717 18.2717 45.0283 19.4199 46.2807C20.5682 47.5331 22.1663 48.279 23.8638 48.3548C23.9643 48.3595 24.0646 48.3618 24.1646 48.3618C25.0107 48.3623 25.8482 48.1931 26.6277 47.8641C26.9534 47.7277 27.2124 47.4686 27.3487 47.1429C27.4851 46.8172 27.488 46.451 27.3567 46.1232C27.3404 46.0596 27.3155 45.9985 27.2827 45.9416C26.0753 43.7726 25.4416 41.3313 25.4417 38.8488C25.4417 30.8208 31.9719 24.2896 39.9985 24.2896C48.0252 24.2896 54.5579 30.8212 54.5579 38.8488C54.5673 42.2469 53.384 45.5406 51.2143 48.1558C49.0445 50.7709 46.0258 52.5418 42.6844 53.1598C42.3324 52.3631 41.7131 51.7144 40.9336 51.3259C40.1541 50.9374 39.2634 50.8334 38.4154 51.032C37.5673 51.2305 36.8153 51.7191 36.2893 52.4133C35.7633 53.1075 35.4963 53.9636 35.5346 54.8337C35.5728 55.7039 35.9139 56.5333 36.4988 57.1786C37.0837 57.824 37.8757 58.2447 38.7379 58.3681C39.6 58.4914 40.4782 58.3097 41.2206 57.8543C41.963 57.3988 42.523 56.6983 42.8037 55.8739C45.1774 55.4812 47.4429 54.5973 49.4552 53.2787C51.4676 51.9601 53.1825 50.2359 54.4901 48.2164C54.9314 48.3128 55.3817 48.3616 55.8334 48.3619C55.9324 48.3619 56.0317 48.3596 56.1312 48.3551C56.9726 48.3189 57.7985 48.1173 58.5619 47.7618C59.3253 47.4064 60.0113 46.904 60.5805 46.2834C61.1497 45.6628 61.5912 44.9362 61.8796 44.145C62.1679 43.3538 62.2976 42.5136 62.2613 41.6723C62.2314 40.9973 62.2475 40.3941 62.2631 39.8113ZM23.9836 45.6622C22.9996 45.6188 22.073 45.1869 21.407 44.4612C20.741 43.7356 20.39 42.7754 20.4309 41.7913C20.465 41.0205 20.4469 40.3402 20.4309 39.7399C20.4169 39.2121 20.404 38.7136 20.426 38.2113C20.4608 37.411 20.753 36.6433 21.2593 36.0224C21.7656 35.4016 22.4588 34.9609 23.2357 34.7658C22.3863 38.2584 22.6469 41.9289 23.9815 45.2664L23.9798 45.2671C24.0323 45.4008 24.0865 45.5338 24.1424 45.6663C24.0898 45.666 24.0369 45.6647 23.9836 45.6622ZM39.2676 55.7104C39.0617 55.7104 38.8604 55.6494 38.6892 55.535C38.518 55.4206 38.3845 55.2581 38.3057 55.0678C38.2268 54.8776 38.2062 54.6683 38.2463 54.4663C38.2865 54.2643 38.3856 54.0788 38.5312 53.9331C38.6767 53.7875 38.8622 53.6883 39.0642 53.6481C39.2661 53.6079 39.4755 53.6284 39.6657 53.7072C39.856 53.7859 40.0186 53.9193 40.1331 54.0905C40.2476 54.2617 40.3087 54.463 40.3088 54.6689V54.6708C40.3081 54.9466 40.1981 55.2109 40.003 55.4057C39.8078 55.6006 39.5434 55.7101 39.2676 55.7104ZM59.5686 41.7894C59.5896 42.2773 59.5142 42.7646 59.3467 43.2234C59.1793 43.6821 58.9231 44.1034 58.5928 44.4631C58.2624 44.8228 57.8644 45.1139 57.4215 45.3196C56.9786 45.5254 56.4995 45.6419 56.0116 45.6624C55.9598 45.6648 55.9082 45.6662 55.8567 45.6663C55.8589 45.6613 55.8592 45.6557 55.8577 45.6504C57.329 42.2157 57.6469 38.3966 56.7638 34.7659C57.5411 34.961 58.2346 35.402 58.7409 36.0232C59.2472 36.6444 59.5393 37.4126 59.5737 38.2133C59.5959 38.7135 59.5827 39.212 59.5686 39.7397C59.5527 40.34 59.5345 41.0204 59.5686 41.7894ZM36.8499 38.7167C36.8542 38.7606 36.8563 38.8047 36.8561 38.8488C36.8563 38.8932 36.8542 38.9376 36.8499 38.9818C36.8454 39.0249 36.8382 39.0689 36.8301 39.1121C36.822 39.1552 36.8103 39.1983 36.7978 39.2405C36.7852 39.2828 36.7699 39.3241 36.7528 39.3645C36.7358 39.405 36.7169 39.4454 36.6962 39.484C36.6756 39.5226 36.6531 39.5604 36.6288 39.5972C36.6048 39.634 36.5787 39.6694 36.5507 39.7032C36.5228 39.7383 36.4923 39.7706 36.4617 39.8021C36.4303 39.8334 36.3973 39.863 36.3629 39.891C36.3288 39.9189 36.2928 39.9449 36.2569 39.9701C36.2201 39.9934 36.1823 40.0168 36.1428 40.0375C36.1043 40.0582 36.0647 40.0768 36.0242 40.0932C35.9837 40.1102 35.9423 40.1252 35.9002 40.1381C35.858 40.1507 35.8149 40.1614 35.7717 40.1704C35.7287 40.1792 35.6852 40.1858 35.6415 40.1902C35.553 40.1986 35.464 40.1986 35.3755 40.1902C35.3318 40.1858 35.2883 40.1792 35.2453 40.1704C35.2021 40.1614 35.159 40.1507 35.1168 40.1381C35.0747 40.1252 35.0333 40.1102 34.9928 40.0932C34.9523 40.0768 34.9127 40.0582 34.8742 40.0375C34.8347 40.0168 34.7969 39.9934 34.7601 39.9701C34.7242 39.9449 34.6882 39.9189 34.6541 39.891C34.6197 39.863 34.5867 39.8334 34.5553 39.8021C34.5247 39.7706 34.4942 39.7383 34.4663 39.7032C34.4382 39.6694 34.4122 39.634 34.3881 39.5972C34.3642 39.5604 34.3417 39.5226 34.3208 39.484C34.3001 39.4454 34.2812 39.405 34.2642 39.3645C34.2471 39.3241 34.2327 39.2828 34.2192 39.2405C34.2058 39.1983 34.1959 39.1552 34.1869 39.1121C34.169 39.0255 34.1603 38.9372 34.1608 38.8488C34.1608 38.8048 34.1635 38.7608 34.1671 38.7167C34.1707 38.6727 34.1788 38.6287 34.1869 38.5856C34.195 38.5425 34.2067 38.5002 34.2192 38.458C34.2318 38.4158 34.2471 38.3744 34.2642 38.334C34.2812 38.2936 34.3001 38.2532 34.3208 38.2145C34.3622 38.1367 34.411 38.063 34.4663 37.9944C34.4942 37.9603 34.5247 37.927 34.5553 37.8965C34.5867 37.8652 34.6197 37.8355 34.6541 37.8075C34.6882 37.7797 34.7242 37.7527 34.7601 37.7285C34.797 37.7041 34.8351 37.6816 34.8742 37.6611C34.9128 37.6404 34.9524 37.6216 34.9928 37.6045C35.0332 37.5883 35.0754 37.573 35.1168 37.5605C35.159 37.5475 35.2019 37.5367 35.2453 37.5281C35.419 37.4928 35.598 37.4928 35.7717 37.5281C35.8151 37.5367 35.858 37.5475 35.9002 37.5605C35.9415 37.573 35.9838 37.5883 36.0242 37.6045C36.0646 37.6207 36.1042 37.6404 36.1428 37.6611C36.1819 37.6816 36.22 37.7041 36.2569 37.7285C36.2928 37.7527 36.3288 37.7797 36.3629 37.8075C36.3973 37.8355 36.4303 37.8652 36.4617 37.8965C36.4923 37.927 36.5228 37.9603 36.5507 37.9944C36.606 38.063 36.6547 38.1367 36.6962 38.2145C36.7169 38.2532 36.7358 38.2936 36.7528 38.334C36.7699 38.3744 36.7843 38.4158 36.7978 38.458C36.8112 38.5002 36.8211 38.5434 36.8301 38.5856C36.8391 38.6278 36.8454 38.6724 36.8499 38.7164V38.7167ZM38.6521 38.8488C38.652 38.6719 38.6867 38.4967 38.7543 38.3332C38.8219 38.1697 38.921 38.0212 39.0461 37.896C39.1711 37.7709 39.3196 37.6716 39.483 37.6038C39.6464 37.5361 39.8216 37.5012 39.9985 37.5012H40.001C40.2675 37.5014 40.528 37.5807 40.7494 37.7289C40.9709 37.8771 41.1434 38.0877 41.2452 38.334C41.347 38.5802 41.3735 38.8512 41.3214 39.1125C41.2693 39.3738 41.1408 39.6139 40.9523 39.8022C40.7638 39.9905 40.5236 40.1188 40.2622 40.1707C40.0008 40.2226 39.7299 40.1958 39.4838 40.0938C39.2376 39.9917 39.0272 39.819 38.8792 39.5974C38.7311 39.3758 38.6521 39.1153 38.6521 38.8488ZM43.1497 38.9814C43.1454 38.9372 43.1433 38.8929 43.1434 38.8485C43.1433 38.8044 43.1454 38.7603 43.1497 38.7164C43.1542 38.6724 43.1614 38.6283 43.1695 38.5852C43.1776 38.5421 43.1892 38.4999 43.2018 38.4576C43.2145 38.4155 43.2295 38.3741 43.2467 38.3337C43.2629 38.2932 43.2827 38.2528 43.3024 38.2142C43.3447 38.1366 43.3937 38.063 43.4489 37.994C43.4767 37.9599 43.5073 37.9267 43.5378 37.8961C43.5693 37.8648 43.6022 37.8351 43.6367 37.8072C43.6705 37.7788 43.7059 37.7524 43.7427 37.7281C43.7795 37.7042 43.8172 37.6817 43.8559 37.6607C43.8945 37.6401 43.9349 37.6212 43.9754 37.6041C44.0158 37.5871 44.058 37.5727 44.0994 37.5601C44.1416 37.5471 44.1845 37.5363 44.2278 37.5278C44.3579 37.5013 44.4911 37.4947 44.6231 37.508C44.6672 37.5123 44.711 37.5189 44.7543 37.5278C44.7974 37.5362 44.84 37.547 44.8819 37.5601C44.9241 37.5727 44.9663 37.588 45.0068 37.6041C45.0472 37.6203 45.0867 37.6401 45.1254 37.6607C45.1645 37.6812 45.2026 37.7037 45.2395 37.7281C45.2754 37.7524 45.3113 37.7793 45.3455 37.8072C45.3798 37.8349 45.4125 37.8646 45.4434 37.8961C45.4749 37.9267 45.5045 37.9599 45.5333 37.994C45.5602 38.0282 45.5872 38.0641 45.6114 38.101C45.6358 38.1375 45.6583 38.1753 45.6788 38.2142C45.6995 38.2528 45.7183 38.2932 45.7354 38.3337C45.7523 38.3741 45.767 38.4155 45.7794 38.4576C45.7928 38.4995 45.8036 38.5421 45.8118 38.5852C45.8211 38.6285 45.8277 38.6723 45.8315 38.7164C45.8362 38.7603 45.8386 38.8043 45.8387 38.8485C45.8386 38.8929 45.8362 38.9373 45.8315 38.9814C45.8276 39.0252 45.821 39.0687 45.8118 39.1117C45.8036 39.1552 45.7928 39.1981 45.7794 39.2402C45.7669 39.2822 45.7522 39.3236 45.7354 39.3642C45.7183 39.4046 45.6995 39.445 45.6788 39.4837C45.6581 39.5223 45.6357 39.56 45.6114 39.5969C45.5872 39.6337 45.5602 39.6696 45.5333 39.7029C45.5045 39.7379 45.4749 39.7703 45.4434 39.8017C45.4125 39.8332 45.3798 39.8629 45.3455 39.8906C45.3113 39.9185 45.2754 39.9446 45.2395 39.9688C45.2026 39.9935 45.1645 40.0163 45.1254 40.0371C45.0869 40.0578 45.0473 40.0764 45.0068 40.0928C44.966 40.11 44.9243 40.125 44.8819 40.1377C44.8406 40.1503 44.7974 40.1611 44.7543 40.1701C44.6677 40.1877 44.5795 40.1964 44.4911 40.1961C44.4467 40.1963 44.4023 40.1942 44.3581 40.1898C44.3144 40.1854 44.2709 40.1788 44.2278 40.1701C44.1847 40.1611 44.1416 40.1503 44.0994 40.1377C44.0573 40.1249 44.0159 40.1099 43.9754 40.0928C43.9345 40.0764 43.8947 40.0578 43.8559 40.0371C43.8172 40.0164 43.7795 39.9931 43.7427 39.9688C43.7059 39.9448 43.6705 39.9187 43.6367 39.8906C43.6022 39.8627 43.5693 39.833 43.5378 39.8017C43.5073 39.7703 43.4767 39.7379 43.4489 39.7029C43.4208 39.6691 43.3947 39.6337 43.3707 39.5969C43.3465 39.56 43.3231 39.5223 43.3024 39.4837C43.2818 39.445 43.2629 39.4046 43.2467 39.3642C43.2296 39.3236 43.2147 39.2823 43.2018 39.2402C43.1892 39.198 43.1785 39.1548 43.1695 39.1117C43.1605 39.0686 43.1542 39.0246 43.1497 38.9814Z" fill="#FDFDFD"/>
</svg>
