<svg width="80" height="80" viewBox="0 0 80 80" fill="none" xmlns="http://www.w3.org/2000/svg">
<rect width="80" height="80" rx="40" fill="#433878"/>
<path d="M59.5053 28.0206C59.5053 27.1941 59.1768 26.4013 58.5925 25.817L51.538 18.7624C50.9535 18.178 50.1608 17.8496 49.3343 17.8496H24.1658C23.1894 17.8496 22.253 18.2375 21.5626 18.9279C20.8722 19.6183 20.4844 20.5547 20.4844 21.531V58.469C20.4844 59.4454 20.8722 60.3818 21.5626 61.0722C22.253 61.7626 23.1894 62.1505 24.1658 62.1505H55.8239C56.8003 62.1505 57.7366 61.7626 58.427 61.0722C59.1175 60.3818 59.5053 59.4454 59.5053 58.469V28.0206ZM24.3987 21.6374H47.7056V25.6639C47.7069 26.6865 48.1138 27.6669 48.8369 28.3901C49.56 29.1132 50.5405 29.5201 51.5631 29.5214H55.591V58.3627H24.3987V21.6374Z" fill="#FDFDFD"/>
<path d="M35.3141 27.5114C35.1539 27.3511 34.9637 27.224 34.7543 27.1373C34.545 27.0505 34.3206 27.0059 34.094 27.0059C33.8674 27.0059 33.643 27.0505 33.4336 27.1373C33.2243 27.224 33.0341 27.3511 32.8739 27.5114L31.9374 28.448L31.0008 27.5114C30.8406 27.3512 30.6504 27.2241 30.4411 27.1374C30.2317 27.0507 30.0074 27.006 29.7808 27.006C29.5542 27.006 29.3298 27.0507 29.1205 27.1374C28.9111 27.2241 28.7209 27.3512 28.5607 27.5114C28.4005 27.6716 28.2734 27.8619 28.1867 28.0712C28.0999 28.2805 28.0553 28.5049 28.0553 28.7315C28.0553 28.9581 28.0999 29.1825 28.1867 29.3918C28.2734 29.6011 28.4005 29.7914 28.5607 29.9516L29.4972 30.8881L28.5607 31.8246C28.3199 32.0661 28.156 32.3735 28.0897 32.708C28.0234 33.0425 28.0577 33.3891 28.1882 33.7042C28.3186 34.0192 28.5395 34.2886 28.8228 34.4783C29.1062 34.668 29.4394 34.7695 29.7804 34.7701C30.007 34.7705 30.2314 34.726 30.4407 34.6393C30.6501 34.5526 30.8402 34.4253 31.0001 34.2648L31.9367 33.3283L32.8732 34.2648C33.2103 34.6019 33.6516 34.7701 34.0929 34.7701C34.5342 34.7701 34.9762 34.6019 35.3126 34.2648C35.636 33.9411 35.8176 33.5023 35.8176 33.0447C35.8176 32.5872 35.636 32.1484 35.3126 31.8246L34.3761 30.8881L35.3126 29.9516C35.473 29.7915 35.6003 29.6013 35.6871 29.3921C35.774 29.1828 35.8188 28.9584 35.8189 28.7318C35.819 28.5052 35.7745 28.2808 35.6879 28.0714C35.6013 27.862 35.4742 27.6717 35.3141 27.5114ZM51.4327 45.3874C51.2726 45.2272 51.0824 45.1 50.873 45.0133C50.6637 44.9265 50.4393 44.8819 50.2127 44.8819C49.9861 44.8819 49.7617 44.9265 49.5523 45.0133C49.343 45.1 49.1528 45.2272 48.9926 45.3874L48.0561 46.324L47.1195 45.3874C46.9593 45.2272 46.7691 45.1001 46.5598 45.0134C46.3504 44.9267 46.126 44.8821 45.8995 44.8821C45.6729 44.8821 45.4485 44.9267 45.2391 45.0134C45.0298 45.1001 44.8396 45.2272 44.6794 45.3874C44.5191 45.5477 44.3921 45.7379 44.3053 45.9472C44.2186 46.1566 44.174 46.3809 44.174 46.6075C44.174 46.8341 44.2186 47.0585 44.3053 47.2678C44.3921 47.4772 44.5191 47.6674 44.6794 47.8276L45.6159 48.7641L44.6794 49.7007C44.4386 49.9421 44.2747 50.2495 44.2084 50.584C44.1421 50.9185 44.1764 51.2651 44.3068 51.5802C44.4373 51.8953 44.6582 52.1646 44.9415 52.3543C45.2249 52.544 45.5581 52.6455 45.8991 52.6461C46.1257 52.6465 46.3501 52.602 46.5594 52.5153C46.7688 52.4286 46.9589 52.3013 47.1188 52.1408L48.0553 51.2043L48.9919 52.1408C49.329 52.4779 49.7703 52.6461 50.2116 52.6461C50.6529 52.6461 51.0949 52.4779 51.4313 52.1408C51.7547 51.8171 51.9363 51.3783 51.9363 50.9207C51.9363 50.4632 51.7547 50.0244 51.4313 49.7007L50.4948 48.7641L51.4313 47.8276C51.5917 47.6675 51.7189 47.4774 51.8058 47.2681C51.8927 47.0588 51.9375 46.8344 51.9376 46.6078C51.9377 46.3812 51.8932 46.1568 51.8066 45.9474C51.72 45.738 51.5929 45.5477 51.4327 45.3874ZM46.7911 32.764C45.8596 31.2475 44.9985 29.5908 44.2632 27.9721C43.7975 26.9465 42.3247 26.9472 41.859 27.9721C41.1244 29.5908 40.2634 31.2475 39.3319 32.764C38.6721 33.8379 39.7229 35.1409 40.9081 34.7126L41.2639 34.5839V37.7744C41.2631 38.387 41.0194 38.9742 40.5862 39.4073C40.153 39.8404 39.5657 40.0839 38.9531 40.0845H34.5903C31.3351 40.0845 28.6865 42.7331 28.6865 45.9883V48.8971C28.2816 49.3448 28.0566 49.9265 28.0547 50.5301C28.0547 51.1838 28.3143 51.8106 28.7765 52.2728C29.2388 52.735 29.8656 52.9947 30.5193 52.9947C31.1729 52.9947 31.7998 52.735 32.262 52.2728C32.7242 51.8106 32.9839 51.1838 32.9839 50.5301C32.9839 49.8602 32.7143 49.2543 32.2802 48.8101V45.9883C32.281 45.3759 32.5246 44.7888 32.9577 44.3557C33.3907 43.9226 33.9778 43.679 34.5903 43.6783H38.9531C42.2083 43.6783 44.8576 41.0297 44.8576 37.7744V34.5839L45.2141 34.7126C46.4001 35.1409 47.4509 33.8379 46.7911 32.764Z" fill="#FDFDFD"/>
</svg>
