<svg width="80" height="80" viewBox="0 0 80 80" fill="none" xmlns="http://www.w3.org/2000/svg">
<circle cx="40" cy="40" r="40" fill="#433878"/>
<g clip-path="url(#clip0_752_13117)">
<path d="M62.4442 59.7225L51.0208 48.2992C53.7042 45.0025 55.3333 40.7667 55.3333 36.1667C55.3333 25.6058 46.7275 17 36.1667 17C25.6058 17 17 25.6058 17 36.1667C17 46.7275 25.6058 55.3333 36.1667 55.3333C40.7667 55.3333 45.0025 53.7042 48.2992 51.0208L59.7225 62.4442C60.1058 62.8083 60.585 63 61.0833 63C61.5817 63 62.0608 62.8083 62.4442 62.4442C63.1917 61.6967 63.1917 60.47 62.4442 59.7225ZM36.1667 51.5C28.3658 51.5 21.9067 45.635 20.9483 38.0833H26.5833C27.1775 38.0833 27.7525 37.7958 28.1167 37.3167L31.8733 32.295L36.32 42.6642C36.6075 43.3158 37.2017 43.7567 37.9108 43.8333H38.0833C38.7158 43.8333 39.3292 43.5075 39.6742 42.9708L42.9517 38.0833H45.75C46.8042 38.0833 47.6667 37.2208 47.6667 36.1667C47.6667 35.1125 46.8042 34.25 45.75 34.25H41.9167C41.2842 34.25 40.6708 34.5758 40.3258 35.1125L38.4475 37.9108L34.0967 27.7525C33.9648 27.4429 33.7536 27.1735 33.4844 26.9716C33.2152 26.7697 32.8975 26.6424 32.5633 26.6025C31.8733 26.5067 31.2025 26.7942 30.8 27.35L25.625 34.25H20.9483C21.9067 26.6983 28.3658 20.8333 36.1667 20.8333C44.6192 20.8333 51.5 27.7142 51.5 36.1667C51.5 44.6192 44.6192 51.5 36.1667 51.5Z" fill="#FDFDFD"/>
</g>
<defs>
<clipPath id="clip0_752_13117">
<rect width="46" height="46" fill="white" transform="translate(17 17)"/>
</clipPath>
</defs>
</svg>
