<svg width="80" height="80" viewBox="0 0 80 80" fill="none" xmlns="http://www.w3.org/2000/svg">
<rect width="80" height="80" rx="40" fill="#FDFDFD"/>
<path fill-rule="evenodd" clip-rule="evenodd" d="M45.4834 28.9034C45.0823 28.9213 44.7035 29.0933 44.426 29.3835C44.1485 29.6736 43.9937 30.0597 43.9937 30.4612C43.9937 30.8627 44.1485 31.2488 44.426 31.539C44.7035 31.8291 45.0823 32.0011 45.4834 32.0191C45.8965 32.0191 46.2928 31.8549 46.5849 31.5628C46.8771 31.2706 47.0412 30.8744 47.0412 30.4612C47.0412 30.048 46.8771 29.6518 46.5849 29.3596C46.2928 29.0675 45.8965 28.9034 45.4834 28.9034ZM45.4834 35.1347C42.9067 35.1347 40.8098 33.0394 40.8098 30.4612C40.8098 27.883 42.9067 25.7877 45.4834 25.7877C48.0601 25.7877 50.1569 27.8845 50.1569 30.4612C50.1569 33.0379 48.0601 35.1347 45.4834 35.1347ZM36.1363 29.595V31.3274H37.3545C37.6905 31.3273 38.0176 31.4359 38.2868 31.6369C38.5561 31.8379 38.7531 32.1206 38.8485 32.4428C38.9825 32.8946 39.1648 33.3354 39.3922 33.7561C39.5514 34.0511 39.6112 34.3897 39.5626 34.7214C39.5141 35.0531 39.3598 35.3604 39.1227 35.5974L38.2612 36.4589L39.4857 37.6834L40.3472 36.8219C40.5844 36.585 40.8916 36.4309 41.2232 36.3823C41.5549 36.3338 41.8934 36.3934 42.1885 36.5524C42.6072 36.7783 43.0477 36.961 43.5034 37.0976C43.825 37.1933 44.1071 37.3902 44.3078 37.6591C44.5085 37.928 44.617 38.2545 44.6172 38.59V39.8083H46.3495V38.59C46.3497 38.2545 46.4582 37.928 46.6589 37.6591C46.8596 37.3902 47.1418 37.1933 47.4634 37.0976C47.919 36.961 48.3596 36.7783 48.7782 36.5524C49.0733 36.3932 49.4118 36.3334 49.7436 36.382C50.0753 36.4305 50.3825 36.5848 50.6196 36.8219L51.4811 37.6834L52.7056 36.4589L51.8441 35.5974C51.607 35.3604 51.4527 35.0531 51.4041 34.7214C51.3556 34.3897 51.4153 34.0511 51.5746 33.7561C51.8007 33.3383 51.9829 32.8982 52.1182 32.4428C52.2137 32.1206 52.4107 31.8379 52.6799 31.6369C52.9492 31.4359 53.2762 31.3273 53.6122 31.3274H54.8305V29.595H53.6122C53.2764 29.5952 52.9495 29.4868 52.6803 29.2861C52.4111 29.0854 52.2139 28.8031 52.1182 28.4812C51.9832 28.0257 51.801 27.5856 51.5746 27.1679C51.2474 26.5604 51.358 25.8126 51.8441 25.325L52.7056 24.4635L51.4811 23.2406L50.6196 24.1021C50.3825 24.3392 50.0753 24.4935 49.7436 24.542C49.4118 24.5906 49.0733 24.5308 48.7782 24.3716C48.3596 24.1457 47.919 23.963 47.4634 23.8263C47.1418 23.7307 46.8596 23.5338 46.6589 23.2649C46.4582 22.996 46.3497 22.6695 46.3495 22.3339V21.1157H44.6172V22.3339C44.617 22.6695 44.5085 22.996 44.3078 23.2649C44.1071 23.5338 43.825 23.7307 43.5034 23.8263C43.0477 23.963 42.6072 24.1457 42.1885 24.3716C41.8932 24.5296 41.5549 24.5886 41.2235 24.5401C40.892 24.4916 40.5849 24.3381 40.3472 24.1021L39.4857 23.2406L38.2612 24.4651L39.1227 25.325C39.6087 25.8126 39.7193 26.5604 39.3922 27.1679C39.1658 27.5856 38.9836 28.0257 38.8485 28.4812C38.7528 28.8031 38.5557 29.0854 38.2864 29.2861C38.0172 29.4868 37.6903 29.5952 37.3545 29.595H36.1363ZM35.8948 34.4353C35.1129 34.373 34.3831 34.0187 33.8505 33.4429C33.3179 32.867 33.0217 32.1118 33.0206 31.3274V29.595C33.0206 27.9593 34.2871 26.6133 35.8933 26.4887C35.4087 25.9255 35.1432 25.2065 35.1455 24.4635C35.1455 23.6316 35.4695 22.8496 36.0584 22.2623L37.2829 21.0362C37.5684 20.742 37.9111 20.5094 38.29 20.3527C38.6688 20.1959 39.0757 20.1184 39.4857 20.1249C40.2366 20.1249 40.9469 20.3882 41.5109 20.8727C41.5731 20.0912 41.9272 19.3617 42.5028 18.8294C43.0784 18.2972 43.8332 18.001 44.6172 18H46.3495C47.9853 18 49.3313 19.2681 49.4559 20.8727C50.0198 20.3882 50.7302 20.1249 51.4811 20.1249H51.4842C51.8934 20.1237 52.2988 20.2039 52.6767 20.3609C53.0546 20.5179 53.3975 20.7485 53.6854 21.0394L54.9083 22.2607C55.4972 22.8496 55.8212 23.6316 55.8212 24.4635C55.8212 25.2159 55.558 25.9248 55.0719 26.4887C55.8537 26.5506 56.5835 26.9045 57.1161 27.4801C57.6487 28.0558 57.9451 28.8108 57.9461 29.595V31.3274C57.9455 32.1116 57.6495 32.8668 57.1172 33.4428C56.5849 34.0187 55.8552 34.373 55.0735 34.4353C55.5564 34.9977 55.8212 35.708 55.8212 36.4589C55.8212 37.2924 55.4972 38.0728 54.9083 38.6617L53.6839 39.8877C53.3958 40.1777 53.053 40.4075 52.6754 40.564C52.2978 40.7204 51.8929 40.8003 51.4842 40.7991H51.4811C50.7302 40.7991 50.0198 40.5358 49.4559 40.0513C49.3937 40.8328 49.0395 41.5622 48.4639 42.0945C47.8884 42.6268 47.1335 42.9229 46.3495 42.924H44.6172C43.8332 42.9229 43.0784 42.6268 42.5028 42.0945C41.9272 41.5622 41.5731 40.8328 41.5109 40.0513C40.9469 40.5358 40.2366 40.7991 39.4857 40.7991H39.4826C39.0733 40.8003 38.668 40.7201 38.29 40.5631C37.9121 40.4061 37.5692 40.1754 37.2813 39.8846L36.0584 38.6633C35.7681 38.3744 35.538 38.0308 35.3813 37.6525C35.2246 37.2741 35.1445 36.8684 35.1455 36.4589C35.1455 35.708 35.4088 34.9977 35.8948 34.4353ZM26.7892 56.915V46.0397C26.7892 45.1813 26.0913 44.4818 25.2314 44.4818H23.6735C22.8136 44.4818 22.1157 45.1813 22.1157 46.0397V56.915C22.1157 57.7734 22.8136 58.4728 23.6735 58.4728H25.2314C26.0913 58.4728 26.7892 57.7734 26.7892 56.915ZM56.2216 47.8639C56.3057 47.677 56.3883 47.3981 56.3883 47.2626C56.3883 46.6067 55.9443 46.2889 55.7527 46.183C55.5611 46.0771 55.0548 45.8683 54.4986 46.2173L45.5862 51.7866C45.0932 52.0944 44.5239 52.2584 43.9427 52.2601L37.7113 52.2742H34.5785C34.1653 52.2742 33.769 52.11 33.4769 51.8179C33.1847 51.5257 33.0206 51.1295 33.0206 50.7163C33.0206 50.3031 33.1847 49.9069 33.4769 49.6147C33.769 49.3226 34.1653 49.1585 34.5785 49.1585H37.7035C37.9424 49.1565 38.1776 49.0994 38.3908 48.9915C38.604 48.8837 38.7894 48.7281 38.9326 48.5369C39.0811 48.3439 39.1819 48.1186 39.2268 47.8793C39.2717 47.64 39.2596 47.3935 39.1912 47.1598C39.0152 46.5117 38.3313 46.0428 37.5664 46.0428H31.4628C30.6028 46.0428 29.9049 46.7423 29.9049 47.6006V55.3899C29.9041 55.5947 29.9438 55.7976 30.0218 55.987C30.0998 56.1764 30.2145 56.3484 30.3594 56.4933C30.5042 56.6381 30.6763 56.7528 30.8656 56.8308C31.055 56.9088 31.258 56.9485 31.4628 56.9477H31.4643L43.3616 56.9337C43.6927 56.9342 44.0153 56.8288 44.2823 56.633L56.2216 47.8639ZM57.2638 43.4583C57.9465 43.8304 58.5154 44.3807 58.9099 45.0507C59.3044 45.7207 59.5097 46.4851 59.504 47.2626C59.4767 48.1996 59.1738 49.1078 58.6332 49.8735L58.3091 50.1944L46.1252 59.1427C45.3214 59.7347 44.3648 60.0478 43.3647 60.0494L31.4674 60.0634H31.4628C30.6371 60.0634 29.8535 59.8328 29.1556 59.434C28.7346 60.0933 28.1545 60.6362 27.4688 61.0127C26.783 61.3891 26.0137 61.5872 25.2314 61.5885H23.6735C21.0969 61.5885 19 59.4917 19 56.915V46.0397C19 43.463 21.0969 41.3661 23.6735 41.3661H25.2314C26.892 41.3661 28.344 42.2432 29.1727 43.5518C29.8685 43.1473 30.658 42.9319 31.4628 42.9271H37.5664C39.7443 42.9271 41.648 44.3307 42.1979 46.3388C42.4542 47.2632 42.4211 48.2441 42.1029 49.1491L43.9349 49.1444L52.8473 43.5736C53.5042 43.1566 54.2618 42.9256 55.0396 42.9053C55.8174 42.885 56.5861 43.0761 57.2638 43.4583Z" fill="#433878"/>
</svg>
