<svg width="80" height="80" viewBox="0 0 80 80" fill="none" xmlns="http://www.w3.org/2000/svg">
<rect width="80" height="80" rx="40" fill="#433878"/>
<g clip-path="url(#clip0_752_13135)">
<path d="M50.6228 40.9651L51.7518 39.8361L51.7529 39.835L51.754 39.8339L55.7369 35.851L55.7377 35.8503L55.7383 35.8496L59.722 31.8659L59.7222 31.8657L59.7225 31.8654L61.9106 29.6773C62.6131 28.9749 63 28.0409 63 27.0475C63 26.054 62.613 25.12 61.9106 24.4177L55.5824 18.0894C54.88 17.387 53.946 17 52.9526 17C51.9591 17 51.0252 17.3869 50.3228 18.0894L39.0348 29.3772L31.373 21.7153C30.0897 20.4323 28.4835 19.52 26.7242 19.0751L18.678 17.0411C18.4518 16.9839 18.2146 16.9864 17.9897 17.0484C17.7647 17.1104 17.5597 17.2298 17.3948 17.3948C17.2298 17.5598 17.1104 17.7648 17.0485 17.9897C16.9865 18.2146 16.984 18.4518 17.0411 18.678L19.0752 26.7242C19.5201 28.4834 20.4324 30.0897 21.7154 31.373L29.3772 39.0348L18.0893 50.3226C17.3869 51.0251 17 51.9591 17 52.9525C17 53.9459 17.3869 54.8798 18.0894 55.5822L24.4177 61.9105C25.1202 62.6131 26.0541 63 27.0476 63C28.041 63 28.9749 62.6131 29.6773 61.9106L35.8475 55.7405L35.8504 55.7377L35.8532 55.7348L40.9652 50.6228L51.3421 60.9999C52.6735 62.3312 54.4222 62.9969 56.171 62.9969C57.9198 62.9969 59.6685 62.3312 60.9998 60.9999C63.6625 58.3372 63.6625 54.0048 60.9998 51.3422L50.6228 40.9651ZM21.6882 26.0637L20.208 20.208L26.0636 21.6884C27.3516 22.0141 28.5276 22.6819 29.4671 23.6213L30.5296 24.6838L24.6836 30.5297L23.6211 29.4672C22.6818 28.5276 22.014 27.3517 21.6882 26.0637ZM26.5895 32.4355L32.4354 26.5895L37.129 31.283L31.283 37.129L26.5895 32.4355ZM27.0476 60.3046C26.9131 60.305 26.7798 60.2787 26.6556 60.2272C26.5313 60.1757 26.4185 60.1001 26.3236 60.0047L19.9952 53.6764C19.8019 53.4831 19.6954 53.2259 19.6954 52.9525C19.6954 52.679 19.8019 52.4218 19.9952 52.2284L52.2285 19.9952C52.4219 19.8018 52.6791 19.6953 52.9526 19.6953C53.2261 19.6953 53.4831 19.8018 53.6766 19.9952L60.0049 26.3236C60.1982 26.5168 60.3048 26.774 60.3048 27.0475C60.3048 27.3209 60.1982 27.5781 60.0049 27.7715L58.7694 29.0069L54.6585 24.8959C54.1323 24.3696 53.279 24.3696 52.7526 24.8959C52.2263 25.4221 52.2263 26.2754 52.7526 26.8017L56.8636 30.9128L54.7848 32.9916L52.6661 30.873C52.1399 30.3466 51.2865 30.3468 50.7602 30.873C50.2339 31.3993 50.2339 32.2525 50.7602 32.7789L52.8789 34.8975L50.8001 36.9763L46.6891 32.8652C46.1628 32.3389 45.3096 32.3389 44.7833 32.8652C44.257 33.3914 44.257 34.2447 44.7833 34.771L48.8943 38.882L46.8155 40.9608L44.6968 38.8422C44.1705 38.316 43.3172 38.316 42.7909 38.8422C42.2646 39.3684 42.2646 40.2218 42.7909 40.7481L44.9095 42.8667L42.8667 44.9095L38.7558 40.7985C38.2295 40.2722 37.3762 40.2722 36.8499 40.7985C36.3236 41.3247 36.3236 42.178 36.8499 42.7043L40.9609 46.8153L38.8821 48.8941L36.7635 46.7755C36.2373 46.2493 35.3839 46.2493 34.8576 46.7755C34.3313 47.3017 34.3313 48.1551 34.8576 48.6814L36.9762 50.8L34.8974 52.8788L30.7865 48.7679C30.2603 48.2417 29.407 48.2417 28.8807 48.7679C28.3544 49.2941 28.3544 50.1474 28.8807 50.6737L32.9916 54.7846L30.9128 56.8634L28.7941 54.7448C28.2679 54.2186 27.4146 54.2186 26.8883 54.7448C26.362 55.2711 26.362 56.1244 26.8883 56.6507L29.0069 58.7693L27.7715 60.0047C27.6766 60.1001 27.5638 60.1757 27.4396 60.2272C27.3153 60.2787 27.1821 60.305 27.0476 60.3046ZM43.8142 47.7738L43.8198 47.7683L43.8253 47.7627L47.7669 43.8211L47.7684 43.8196L47.77 43.818L48.717 42.871L54.4276 48.5816L48.5817 54.4276L42.871 48.717L43.8142 47.7738ZM59.094 59.0939C57.4822 60.7056 54.8597 60.7056 53.248 59.0939L50.4875 56.3334L56.3335 50.4874L59.094 53.2479C60.7057 54.8597 60.7057 57.4822 59.094 59.0939Z" fill="#FDFDFD"/>
</g>
<defs>
<clipPath id="clip0_752_13135">
<rect width="46" height="46" fill="white" transform="translate(17 17)"/>
</clipPath>
</defs>
</svg>
