<svg width="80" height="80" viewBox="0 0 80 80" fill="none" xmlns="http://www.w3.org/2000/svg">
<rect width="80" height="80" rx="40" fill="#433878"/>
<g clip-path="url(#clip0_752_13187)">
<path d="M62.9461 20.434C62.8465 18.6068 61.3933 17.1537 59.566 17.054C55.879 16.8526 48.6642 17.0485 41.7653 20.6168C38.2483 22.436 34.5288 25.5202 31.5605 29.0788C31.5239 29.1226 31.4883 29.1667 31.452 29.2107L24.7155 29.731C23.6067 29.8167 22.619 30.3979 22.0058 31.3255L17.4099 38.2769C16.9448 38.9804 16.8708 39.8607 17.212 40.6319C17.5532 41.4031 18.2543 41.9405 19.0876 42.0696L24.7632 42.9487C24.7431 43.059 24.723 43.1692 24.7046 43.2796C24.5156 44.4098 24.8901 45.5718 25.7064 46.3881L33.612 54.2937C34.2887 54.9705 35.2033 55.3436 36.1403 55.3436C36.3347 55.3436 36.5288 55.3275 36.7205 55.2954C36.8309 55.277 36.9411 55.2569 37.0514 55.2369L37.9305 60.9125C38.0596 61.7458 38.597 62.447 39.3681 62.7881C39.6824 62.9277 40.0225 62.9999 40.3664 63.0002C40.8491 62.9998 41.321 62.8572 41.7231 62.5903L48.6745 57.9943C49.6022 57.381 50.1833 56.3933 50.2688 55.2846L50.7892 48.5482C50.8331 48.5119 50.8773 48.4763 50.9212 48.4397C54.4798 45.4714 57.5641 41.7519 59.3832 38.2348C62.9517 31.3356 63.1473 24.1207 62.9461 20.434ZM47.1881 55.7459L40.5386 60.1422L39.6819 54.611C42.4922 53.7847 45.2722 52.4613 47.9207 50.6884L47.5818 55.0769C47.5718 55.2111 47.5311 55.3412 47.4629 55.4573C47.3946 55.5733 47.3006 55.672 47.1881 55.7459ZM35.5178 52.3878L27.6122 44.4822C27.4105 44.2804 27.3172 43.997 27.363 43.7239C27.598 42.3185 27.9632 40.9806 28.4153 39.7203L40.2772 51.5822C38.7635 52.1244 37.4077 52.4478 36.2761 52.6371C36.0026 52.6825 35.7195 52.5895 35.5178 52.3878ZM24.9232 32.4183L29.3115 32.0794C27.5385 34.7279 26.2151 37.5079 25.3888 40.3182L19.8577 39.4616L24.2541 32.812C24.328 32.6995 24.4267 32.6055 24.5428 32.5372C24.6588 32.469 24.7889 32.4283 24.9232 32.4183ZM49.1949 46.3698C47.0177 48.1858 44.9043 49.4993 42.9563 50.4498L29.5498 37.0432C30.7948 34.5003 32.3143 32.3828 33.6302 30.8053C36.3772 27.5121 39.7937 24.6711 43.0037 23.0108C49.3353 19.7357 56.0063 19.5594 59.4193 19.7452C59.6372 19.7568 59.843 19.8486 59.9973 20.0029C60.1516 20.1571 60.2433 20.363 60.2549 20.5809C60.441 23.9939 60.2643 30.6648 56.9892 36.9965C55.329 40.2065 52.488 43.6228 49.1949 46.3698Z" fill="#FDFDFD"/>
<path d="M48.51 38.2237C50.2352 38.2235 51.9611 37.5667 53.2746 36.2533C54.5473 34.9807 55.2481 33.2886 55.2481 31.4888C55.2481 29.6891 54.5472 27.997 53.2746 26.7243C50.6473 24.097 46.3726 24.0972 43.7455 26.7243C42.4728 27.997 41.7719 29.6891 41.7719 31.4888C41.7719 33.2886 42.4729 34.9807 43.7455 36.2533C45.0592 37.567 46.7842 38.2239 48.51 38.2237ZM45.6512 28.6301C46.4393 27.8419 47.4746 27.4478 48.5099 27.4478C49.5452 27.4478 50.5805 27.8419 51.3686 28.6301C52.1322 29.3937 52.5527 30.4089 52.5527 31.4887C52.5527 32.5686 52.1322 33.5839 51.3686 34.3475C49.7924 35.9238 47.2274 35.9237 45.6511 34.3475C44.8875 33.5839 44.467 32.5687 44.467 31.4888C44.467 30.409 44.8876 29.3937 45.6512 28.6301ZM18.3747 54.9072C18.7196 54.9072 19.0645 54.7757 19.3275 54.5124L23.7275 50.1125C24.2538 49.5862 24.2538 48.733 23.7275 48.2067C23.2012 47.6804 22.3479 47.6804 21.8216 48.2067L17.4218 52.6066C16.8955 53.1329 16.8955 53.9861 17.4218 54.5124C17.5468 54.6378 17.6953 54.7372 17.8588 54.8049C18.0223 54.8727 18.1976 54.9074 18.3747 54.9072ZM27.7597 52.239C27.2335 51.7126 26.3802 51.7126 25.8539 52.239L17.3947 60.6982C16.8684 61.2245 16.8684 62.0777 17.3947 62.604C17.6579 62.8672 18.0027 62.9987 18.3476 62.9987C18.6925 62.9987 19.0374 62.8672 19.3005 62.604L27.7596 54.1448C28.286 53.6185 28.286 52.7653 27.7597 52.239ZM29.8862 56.2712L25.4862 60.6711C24.9599 61.1974 24.9599 62.0507 25.4862 62.577C25.7494 62.8402 26.0943 62.9718 26.4391 62.9718C26.7839 62.9718 27.1289 62.8402 27.392 62.577L31.7919 58.1771C32.3182 57.6508 32.3182 56.7975 31.7919 56.2712C31.2657 55.7449 30.4124 55.7449 29.8862 56.2712Z" fill="#FDFDFD"/>
</g>
<defs>
<clipPath id="clip0_752_13187">
<rect width="46" height="46" fill="white" transform="translate(17 17)"/>
</clipPath>
</defs>
</svg>
