<svg width="120" height="120" viewBox="0 0 120 120" fill="none" xmlns="http://www.w3.org/2000/svg">
<path fill-rule="evenodd" clip-rule="evenodd" d="M59.9999 9.375C49.987 9.37426 40.1988 12.3427 31.8731 17.905C23.5474 23.4673 17.0581 31.3736 13.2258 40.6241C9.39353 49.8745 8.39045 60.0536 10.3434 69.8741C12.2964 79.6947 17.1176 88.7155 24.1975 95.796C31.2774 102.876 40.2979 107.698 50.1183 109.652C59.9387 111.606 70.1179 110.603 79.3686 106.772C88.6193 102.94 96.5261 96.4514 102.089 88.1261C107.652 79.8008 110.621 70.0128 110.621 60C110.614 46.5762 105.279 33.7041 95.787 24.2117C86.2953 14.7193 73.4237 9.38295 59.9999 9.375ZM38.7824 65.2988L49.3911 75.9075C49.9123 76.4309 50.5318 76.8462 51.2139 77.1295C51.8961 77.4129 52.6275 77.5588 53.3661 77.5588C54.1048 77.5588 54.8361 77.4129 55.5183 77.1295C56.2004 76.8462 56.8199 76.4309 57.3411 75.9075L81.2174 52.0462C82.211 50.9799 82.7519 49.5696 82.7262 48.1123C82.7005 46.6551 82.1101 45.2647 81.0795 44.2341C80.0489 43.2035 78.6585 42.6132 77.2013 42.5874C75.744 42.5617 74.3337 43.1026 73.2674 44.0962L53.3736 63.9862L46.7361 57.345C45.6698 56.3514 44.2595 55.8105 42.8022 55.8362C41.3449 55.8619 39.9545 56.4522 38.924 57.4828C37.8934 58.5134 37.303 59.9038 37.2773 61.3611C37.2516 62.8183 37.7925 64.2287 38.7861 65.295L38.7824 65.2988Z" fill="#433878"/>
</svg>
