<svg width="38" height="38" viewBox="0 0 38 38" fill="none" xmlns="http://www.w3.org/2000/svg">
<circle cx="19" cy="19" r="19" fill="#433878"/>
<g clip-path="url(#clip0_752_12433)">
<path d="M28.376 8H9.62403C9.19331 8 8.78023 8.1711 8.47567 8.47567C8.1711 8.78023 8 9.19331 8 9.62403V28.376C8 28.8067 8.1711 29.2198 8.47567 29.5243C8.78023 29.8289 9.19331 30 9.62403 30H28.376C28.8067 30 29.2198 29.8289 29.5243 29.5243C29.8289 29.2198 30 28.8067 30 28.376V9.62403C30 9.19331 29.8289 8.78023 29.5243 8.47567C29.2198 8.1711 28.8067 8 28.376 8ZM14.5572 26.7413H11.2496V16.2347H14.5572V26.7413ZM12.9011 14.7788C12.5259 14.7766 12.1598 14.6634 11.8488 14.4534C11.5379 14.2434 11.2962 13.946 11.1541 13.5987C11.0121 13.2514 10.9761 12.8699 11.0507 12.5022C11.1253 12.1345 11.3072 11.7971 11.5733 11.5326C11.8395 11.2682 12.178 11.0885 12.5462 11.0163C12.9144 10.944 13.2957 10.9825 13.642 11.1267C13.9884 11.271 14.2842 11.5147 14.4923 11.8269C14.7003 12.1392 14.8111 12.5061 14.8108 12.8813C14.8144 13.1324 14.7673 13.3818 14.6724 13.6144C14.5776 13.847 14.4368 14.0582 14.2586 14.2352C14.0804 14.4123 13.8684 14.5517 13.6351 14.6451C13.4019 14.7384 13.1523 14.7839 12.9011 14.7788ZM26.7489 26.7504H23.4428V21.0106C23.4428 19.3178 22.7232 18.7953 21.7943 18.7953C20.8135 18.7953 19.851 19.5347 19.851 21.0533V26.7504H16.5433V16.2424H19.7242V17.6983H19.7669C20.0863 17.0521 21.2046 15.9475 22.9111 15.9475C24.7567 15.9475 26.7504 17.0429 26.7504 20.2513L26.7489 26.7504Z" fill="white"/>
</g>
<defs>
<clipPath id="clip0_752_12433">
<rect width="22" height="22" fill="white" transform="translate(8 8)"/>
</clipPath>
</defs>
</svg>
